<svg xmlns="http://www.w3.org/2000/svg" xmlns:xlink="http://www.w3.org/1999/xlink" width="198" zoomAndPan="magnify" viewBox="0 0 148.5 31.5" height="42" preserveAspectRatio="xMidYMid meet" version="1.0"><defs><g/><clipPath id="23edfa9e6d"><path d="M 8.324219 6.238281 L 21.613281 6.238281 L 21.613281 24.695312 L 8.324219 24.695312 Z M 8.324219 6.238281 " clip-rule="nonzero"/></clipPath></defs><g fill="#b7b7b7" fill-opacity="1"><g transform="translate(25.838878, 20.923634)"><g><path d="M 8.6875 -10.078125 L 8.578125 -10.09375 L 8.640625 -10.125 L 8.59375 -10.171875 L 8.6875 -10.203125 L 8.59375 -10.234375 L 8.6875 -10.25 L 8.609375 -10.265625 C 8.597656 -10.285156 8.601562 -10.300781 8.625 -10.3125 C 8.625 -10.3125 8.632812 -10.3125 8.65625 -10.3125 L 8.578125 -10.328125 L 8.609375 -10.375 C 8.628906 -10.382812 8.640625 -10.394531 8.640625 -10.40625 C 8.648438 -10.40625 8.65625 -10.40625 8.65625 -10.40625 L 8.59375 -10.5 L 8.640625 -10.609375 L 8.5625 -10.625 C 8.5625 -10.632812 8.5625 -10.644531 8.5625 -10.65625 C 8.570312 -10.65625 8.582031 -10.660156 8.59375 -10.671875 L 8.625 -10.671875 L 8.515625 -10.734375 C 8.515625 -10.753906 8.519531 -10.78125 8.53125 -10.8125 C 8.539062 -10.820312 8.550781 -10.828125 8.5625 -10.828125 L 8.484375 -10.84375 L 8.578125 -10.875 L 8.484375 -10.890625 C 8.484375 -10.890625 8.488281 -10.898438 8.5 -10.921875 C 8.507812 -10.941406 8.515625 -10.957031 8.515625 -10.96875 C 8.492188 -11 8.476562 -11.035156 8.46875 -11.078125 C 8.46875 -11.109375 8.460938 -11.148438 8.453125 -11.203125 C 8.441406 -11.316406 8.425781 -11.394531 8.40625 -11.4375 C 8.375 -11.519531 8.320312 -11.570312 8.25 -11.59375 C 7.550781 -11.78125 6.832031 -11.851562 6.09375 -11.8125 C 5.34375 -11.769531 4.660156 -11.613281 4.046875 -11.34375 C 3.378906 -11.070312 2.859375 -10.691406 2.484375 -10.203125 C 2.066406 -9.679688 1.847656 -9.0625 1.828125 -8.34375 C 1.773438 -7.25 2.316406 -6.425781 3.453125 -5.875 C 4.160156 -5.53125 5 -5.316406 5.96875 -5.234375 C 6.238281 -5.210938 6.425781 -5.164062 6.53125 -5.09375 C 6.625 -5.03125 6.675781 -4.929688 6.6875 -4.796875 C 6.707031 -4.546875 6.546875 -4.304688 6.203125 -4.078125 C 5.828125 -3.816406 5.289062 -3.640625 4.59375 -3.546875 C 4.21875 -3.492188 3.707031 -3.550781 3.0625 -3.71875 C 2.65625 -3.8125 2.210938 -3.945312 1.734375 -4.125 C 1.609375 -4.175781 1.550781 -4.15625 1.5625 -4.0625 C 1.570312 -3.988281 1.632812 -3.875 1.75 -3.71875 C 1.851562 -3.59375 1.9375 -3.429688 2 -3.234375 C 2.039062 -3.117188 2.09375 -2.953125 2.15625 -2.734375 L 2.1875 -2.640625 C 2.28125 -2.296875 2.53125 -2 2.9375 -1.75 C 3.34375 -1.5 3.84375 -1.335938 4.4375 -1.265625 C 5.050781 -1.179688 5.675781 -1.210938 6.3125 -1.359375 C 7.007812 -1.515625 7.65625 -1.785156 8.25 -2.171875 C 8.582031 -2.410156 8.878906 -2.726562 9.140625 -3.125 C 9.429688 -3.539062 9.617188 -3.976562 9.703125 -4.4375 C 9.785156 -4.945312 9.734375 -5.410156 9.546875 -5.828125 C 9.316406 -6.316406 8.925781 -6.710938 8.375 -7.015625 C 8.21875 -7.109375 7.992188 -7.179688 7.703125 -7.234375 C 7.503906 -7.273438 7.207031 -7.320312 6.8125 -7.375 C 5.988281 -7.5 5.441406 -7.625 5.171875 -7.75 C 4.722656 -7.945312 4.613281 -8.242188 4.84375 -8.640625 C 5.039062 -9.015625 5.457031 -9.257812 6.09375 -9.375 C 6.476562 -9.445312 7.085938 -9.488281 7.921875 -9.5 L 8.609375 -9.5 L 8.609375 -9.53125 C 8.609375 -9.550781 8.609375 -9.566406 8.609375 -9.578125 C 8.609375 -9.597656 8.613281 -9.609375 8.625 -9.609375 L 8.59375 -9.703125 L 8.59375 -9.734375 C 8.582031 -9.742188 8.578125 -9.75 8.578125 -9.75 C 8.566406 -9.757812 8.566406 -9.765625 8.578125 -9.765625 L 8.609375 -9.8125 L 8.5625 -9.8125 L 8.609375 -9.859375 L 8.546875 -9.859375 C 8.546875 -9.878906 8.550781 -9.890625 8.5625 -9.890625 C 8.570312 -9.890625 8.582031 -9.890625 8.59375 -9.890625 L 8.625 -9.90625 L 8.5625 -9.953125 L 8.640625 -9.984375 L 8.578125 -10.015625 Z M 6.046875 -7.109375 C 5.753906 -7.109375 5.445312 -7.160156 5.125 -7.265625 C 4.550781 -7.460938 4.25 -7.78125 4.21875 -8.21875 C 4.1875 -8.4375 4.234375 -8.640625 4.359375 -8.828125 C 4.492188 -9.046875 4.722656 -9.238281 5.046875 -9.40625 C 4.710938 -9.207031 4.484375 -8.972656 4.359375 -8.703125 C 4.234375 -8.460938 4.222656 -8.222656 4.328125 -7.984375 C 4.421875 -7.742188 4.609375 -7.546875 4.890625 -7.390625 C 5.203125 -7.234375 5.585938 -7.140625 6.046875 -7.109375 Z M 9.34375 -4.59375 C 9.351562 -4.289062 9.28125 -3.972656 9.125 -3.640625 C 9 -3.378906 8.851562 -3.148438 8.6875 -2.953125 C 8.40625 -2.671875 8.109375 -2.4375 7.796875 -2.25 C 7.617188 -2.15625 7.421875 -2.066406 7.203125 -1.984375 L 7.125 -1.953125 L 7.296875 -2.046875 C 7.765625 -2.285156 8.144531 -2.535156 8.4375 -2.796875 C 8.9375 -3.273438 9.238281 -3.875 9.34375 -4.59375 Z M 9.34375 -4.59375 "/></g></g></g><g fill="#b7b7b7" fill-opacity="1"><g transform="translate(37.309084, 20.923634)"><g><path d="M 6.921875 -1.90625 C 6.171875 -1.726562 5.453125 -1.75 4.765625 -1.96875 C 4.046875 -2.21875 3.476562 -2.640625 3.0625 -3.234375 C 3.25 -2.992188 3.550781 -2.742188 3.96875 -2.484375 C 4.320312 -2.242188 4.597656 -2.082031 4.796875 -2 C 5.140625 -1.90625 5.546875 -1.851562 6.015625 -1.84375 C 6.441406 -1.832031 6.742188 -1.851562 6.921875 -1.90625 Z M 5.703125 -8.640625 C 5.472656 -8.492188 5.195312 -8.144531 4.875 -7.59375 C 4.519531 -7.019531 4.335938 -6.585938 4.328125 -6.296875 C 4.304688 -6.347656 4.320312 -6.472656 4.375 -6.671875 C 4.4375 -6.898438 4.535156 -7.128906 4.671875 -7.359375 C 4.828125 -7.640625 4.96875 -7.863281 5.09375 -8.03125 C 5.300781 -8.332031 5.503906 -8.535156 5.703125 -8.640625 Z M 10.453125 -4.015625 C 10.929688 -4.835938 11.269531 -5.609375 11.46875 -6.328125 C 11.613281 -6.828125 11.695312 -7.347656 11.71875 -7.890625 C 11.726562 -8.378906 11.65625 -8.882812 11.5 -9.40625 C 11.320312 -9.976562 11.078125 -10.453125 10.765625 -10.828125 C 10.390625 -11.265625 9.945312 -11.535156 9.4375 -11.640625 C 8.832031 -11.753906 8.175781 -11.632812 7.46875 -11.28125 C 7.363281 -11.363281 7.21875 -11.4375 7.03125 -11.5 C 6.832031 -11.5625 6.640625 -11.59375 6.453125 -11.59375 C 5.628906 -11.46875 4.835938 -11.054688 4.078125 -10.359375 C 3.359375 -9.679688 2.796875 -8.859375 2.390625 -7.890625 C 1.960938 -6.898438 1.796875 -5.941406 1.890625 -5.015625 C 1.984375 -3.984375 2.390625 -3.132812 3.109375 -2.46875 C 3.941406 -1.6875 4.910156 -1.3125 6.015625 -1.34375 C 7.035156 -1.363281 8 -1.695312 8.90625 -2.34375 L 9.5 -1.78125 L 9.671875 -1.625 C 9.785156 -1.488281 9.875 -1.398438 9.9375 -1.359375 C 10.0625 -1.296875 10.175781 -1.304688 10.28125 -1.390625 L 10.4375 -1.609375 C 10.488281 -1.691406 10.535156 -1.753906 10.578125 -1.796875 C 10.628906 -1.859375 10.675781 -1.90625 10.71875 -1.9375 L 10.875 -2.046875 L 11.109375 -2.21875 C 11.097656 -2.21875 11.109375 -2.242188 11.140625 -2.296875 C 11.179688 -2.347656 11.210938 -2.375 11.234375 -2.375 C 11.234375 -2.425781 11.238281 -2.457031 11.25 -2.46875 C 11.257812 -2.476562 11.28125 -2.476562 11.3125 -2.46875 L 11.390625 -2.46875 L 11.453125 -2.546875 C 11.453125 -2.554688 11.457031 -2.5625 11.46875 -2.5625 C 11.476562 -2.5625 11.503906 -2.554688 11.546875 -2.546875 L 11.53125 -2.703125 C 11.550781 -2.691406 11.570312 -2.691406 11.59375 -2.703125 C 11.613281 -2.722656 11.632812 -2.757812 11.65625 -2.8125 Z M 6.84375 -4.390625 C 6.59375 -4.296875 6.347656 -4.25 6.109375 -4.25 C 5.835938 -4.25 5.566406 -4.3125 5.296875 -4.4375 C 5.054688 -4.550781 4.863281 -4.738281 4.71875 -5 C 4.582031 -5.269531 4.53125 -5.585938 4.5625 -5.953125 C 4.582031 -6.367188 4.71875 -6.796875 4.96875 -7.234375 C 5.257812 -7.742188 5.679688 -8.25 6.234375 -8.75 C 6.421875 -8.832031 6.617188 -8.894531 6.828125 -8.9375 C 7.078125 -9 7.34375 -9.039062 7.625 -9.0625 C 8.0625 -9.070312 8.398438 -8.9375 8.640625 -8.65625 C 8.953125 -8.3125 9.023438 -7.789062 8.859375 -7.09375 C 8.816406 -6.9375 8.757812 -6.765625 8.6875 -6.578125 C 8.601562 -6.390625 8.519531 -6.203125 8.4375 -6.015625 L 7.90625 -6.5625 C 7.695312 -6.425781 7.390625 -6.160156 6.984375 -5.765625 C 6.703125 -5.484375 6.457031 -5.222656 6.25 -4.984375 Z M 6.84375 -4.390625 "/></g></g></g><g fill="#b7b7b7" fill-opacity="1"><g transform="translate(50.821929, 20.923634)"><g><path d="M 5.953125 -1.53125 C 6.078125 -1.53125 6.09375 -1.523438 6 -1.515625 C 5.914062 -1.503906 5.789062 -1.503906 5.625 -1.515625 C 5.40625 -1.523438 5.191406 -1.554688 4.984375 -1.609375 C 4.703125 -1.671875 4.441406 -1.757812 4.203125 -1.875 C 3.691406 -2.113281 3.320312 -2.359375 3.09375 -2.609375 C 2.914062 -2.765625 2.757812 -2.984375 2.625 -3.265625 C 2.789062 -2.878906 3.203125 -2.5 3.859375 -2.125 C 4.566406 -1.726562 5.265625 -1.53125 5.953125 -1.53125 Z M 4 -11.65625 L 3.921875 -11.5625 L 3.921875 -11.625 C 3.910156 -11.65625 3.90625 -11.675781 3.90625 -11.6875 C 3.894531 -11.695312 3.890625 -11.691406 3.890625 -11.671875 L 3.8125 -11.5625 L 3.78125 -11.5625 C 3.820312 -11.539062 3.8125 -11.550781 3.75 -11.59375 C 3.738281 -11.59375 3.726562 -11.59375 3.71875 -11.59375 L 3.671875 -11.578125 L 3.640625 -11.53125 L 3.578125 -11.59375 C 3.566406 -11.625 3.554688 -11.644531 3.546875 -11.65625 C 3.535156 -11.664062 3.523438 -11.664062 3.515625 -11.65625 L 3.5 -11.640625 C 3.488281 -11.597656 3.484375 -11.566406 3.484375 -11.546875 C 3.460938 -11.515625 3.441406 -11.5 3.421875 -11.5 C 3.398438 -11.5 3.382812 -11.507812 3.375 -11.53125 C 3.363281 -11.539062 3.347656 -11.5625 3.328125 -11.59375 C 3.304688 -11.625 3.285156 -11.644531 3.265625 -11.65625 C 3.253906 -11.675781 3.242188 -11.679688 3.234375 -11.671875 C 2.890625 -11.609375 2.625 -11.507812 2.4375 -11.375 C 2.09375 -11.132812 1.894531 -10.765625 1.84375 -10.265625 C 1.800781 -9.984375 1.78125 -9.425781 1.78125 -8.59375 C 1.78125 -8.101562 1.78125 -7.304688 1.78125 -6.203125 L 1.796875 -4.8125 C 1.796875 -3.757812 2.148438 -2.90625 2.859375 -2.25 C 3.492188 -1.664062 4.3125 -1.3125 5.3125 -1.1875 C 6.269531 -1.0625 7.15625 -1.160156 7.96875 -1.484375 C 8.832031 -1.828125 9.394531 -2.332031 9.65625 -3 C 9.75 -3.238281 9.804688 -3.457031 9.828125 -3.65625 C 9.828125 -3.78125 9.828125 -3.953125 9.828125 -4.171875 C 9.816406 -4.273438 9.8125 -4.359375 9.8125 -4.421875 C 9.8125 -4.523438 9.816406 -4.613281 9.828125 -4.6875 C 9.828125 -4.8125 9.832031 -4.9375 9.84375 -5.0625 C 9.851562 -5.132812 9.867188 -5.226562 9.890625 -5.34375 C 9.921875 -5.5 9.9375 -5.609375 9.9375 -5.671875 C 9.9375 -5.765625 9.910156 -5.832031 9.859375 -5.875 C 9.835938 -5.882812 9.796875 -5.851562 9.734375 -5.78125 C 9.691406 -5.726562 9.613281 -5.625 9.5 -5.46875 C 9.40625 -5.320312 9.328125 -5.21875 9.265625 -5.15625 C 9.171875 -5.03125 9.085938 -4.921875 9.015625 -4.828125 C 8.472656 -4.203125 7.84375 -3.84375 7.125 -3.75 C 6.375 -3.65625 5.765625 -3.867188 5.296875 -4.390625 C 5.078125 -4.628906 4.9375 -5.03125 4.875 -5.59375 C 4.820312 -6.09375 4.816406 -6.34375 4.859375 -6.34375 L 4.859375 -10.546875 C 4.847656 -10.578125 4.847656 -10.625 4.859375 -10.6875 C 4.867188 -10.726562 4.890625 -10.789062 4.921875 -10.875 C 4.953125 -11 4.972656 -11.085938 4.984375 -11.140625 C 5.003906 -11.234375 5.007812 -11.300781 5 -11.34375 C 4.988281 -11.363281 4.976562 -11.375 4.96875 -11.375 C 4.957031 -11.375 4.941406 -11.367188 4.921875 -11.359375 L 4.859375 -11.34375 C 4.847656 -11.34375 4.832031 -11.347656 4.8125 -11.359375 C 4.789062 -11.367188 4.773438 -11.378906 4.765625 -11.390625 C 4.742188 -11.398438 4.734375 -11.410156 4.734375 -11.421875 C 4.734375 -11.429688 4.734375 -11.445312 4.734375 -11.46875 L 4.71875 -11.53125 L 4.6875 -11.53125 C 4.675781 -11.507812 4.664062 -11.5 4.65625 -11.5 C 4.644531 -11.488281 4.632812 -11.484375 4.625 -11.484375 L 4.625 -11.546875 C 4.632812 -11.554688 4.640625 -11.5625 4.640625 -11.5625 C 4.640625 -11.570312 4.632812 -11.578125 4.625 -11.578125 C 4.613281 -11.597656 4.601562 -11.601562 4.59375 -11.59375 C 4.59375 -11.59375 4.585938 -11.582031 4.578125 -11.5625 C 4.566406 -11.539062 4.554688 -11.523438 4.546875 -11.515625 C 4.535156 -11.503906 4.53125 -11.5 4.53125 -11.5 L 4.5 -11.609375 C 4.5 -11.617188 4.5 -11.625 4.5 -11.625 C 4.5 -11.625 4.5 -11.613281 4.5 -11.59375 L 4.46875 -11.578125 C 4.445312 -11.546875 4.425781 -11.523438 4.40625 -11.515625 C 4.394531 -11.492188 4.382812 -11.488281 4.375 -11.5 L 4.359375 -11.640625 L 4.296875 -11.5 L 4.28125 -11.59375 C 4.269531 -11.59375 4.25 -11.582031 4.21875 -11.5625 C 4.175781 -11.539062 4.15625 -11.519531 4.15625 -11.5 L 4.15625 -11.640625 L 4.125 -11.578125 C 4.113281 -11.554688 4.109375 -11.539062 4.109375 -11.53125 C 4.097656 -11.53125 4.09375 -11.53125 4.09375 -11.53125 C 4.050781 -11.550781 4.023438 -11.570312 4.015625 -11.59375 C 4.003906 -11.601562 4 -11.625 4 -11.65625 Z M 4 -11.65625 "/></g></g></g><g fill="#b7b7b7" fill-opacity="1"><g transform="translate(62.135007, 20.923634)"><g><path d="M 0 0 Z M 0 0 "/></g></g></g><g fill="#b7b7b7" fill-opacity="1"><g transform="translate(69.991309, 20.923634)"><g><path d="M 8.6875 -10.078125 L 8.578125 -10.09375 L 8.640625 -10.125 L 8.59375 -10.171875 L 8.6875 -10.203125 L 8.59375 -10.234375 L 8.6875 -10.25 L 8.609375 -10.265625 C 8.597656 -10.285156 8.601562 -10.300781 8.625 -10.3125 C 8.625 -10.3125 8.632812 -10.3125 8.65625 -10.3125 L 8.578125 -10.328125 L 8.609375 -10.375 C 8.628906 -10.382812 8.640625 -10.394531 8.640625 -10.40625 C 8.648438 -10.40625 8.65625 -10.40625 8.65625 -10.40625 L 8.59375 -10.5 L 8.640625 -10.609375 L 8.5625 -10.625 C 8.5625 -10.632812 8.5625 -10.644531 8.5625 -10.65625 C 8.570312 -10.65625 8.582031 -10.660156 8.59375 -10.671875 L 8.625 -10.671875 L 8.515625 -10.734375 C 8.515625 -10.753906 8.519531 -10.78125 8.53125 -10.8125 C 8.539062 -10.820312 8.550781 -10.828125 8.5625 -10.828125 L 8.484375 -10.84375 L 8.578125 -10.875 L 8.484375 -10.890625 C 8.484375 -10.890625 8.488281 -10.898438 8.5 -10.921875 C 8.507812 -10.941406 8.515625 -10.957031 8.515625 -10.96875 C 8.492188 -11 8.476562 -11.035156 8.46875 -11.078125 C 8.46875 -11.109375 8.460938 -11.148438 8.453125 -11.203125 C 8.441406 -11.316406 8.425781 -11.394531 8.40625 -11.4375 C 8.375 -11.519531 8.320312 -11.570312 8.25 -11.59375 C 7.550781 -11.78125 6.832031 -11.851562 6.09375 -11.8125 C 5.34375 -11.769531 4.660156 -11.613281 4.046875 -11.34375 C 3.378906 -11.070312 2.859375 -10.691406 2.484375 -10.203125 C 2.066406 -9.679688 1.847656 -9.0625 1.828125 -8.34375 C 1.773438 -7.25 2.316406 -6.425781 3.453125 -5.875 C 4.160156 -5.53125 5 -5.316406 5.96875 -5.234375 C 6.238281 -5.210938 6.425781 -5.164062 6.53125 -5.09375 C 6.625 -5.03125 6.675781 -4.929688 6.6875 -4.796875 C 6.707031 -4.546875 6.546875 -4.304688 6.203125 -4.078125 C 5.828125 -3.816406 5.289062 -3.640625 4.59375 -3.546875 C 4.21875 -3.492188 3.707031 -3.550781 3.0625 -3.71875 C 2.65625 -3.8125 2.210938 -3.945312 1.734375 -4.125 C 1.609375 -4.175781 1.550781 -4.15625 1.5625 -4.0625 C 1.570312 -3.988281 1.632812 -3.875 1.75 -3.71875 C 1.851562 -3.59375 1.9375 -3.429688 2 -3.234375 C 2.039062 -3.117188 2.09375 -2.953125 2.15625 -2.734375 L 2.1875 -2.640625 C 2.28125 -2.296875 2.53125 -2 2.9375 -1.75 C 3.34375 -1.5 3.84375 -1.335938 4.4375 -1.265625 C 5.050781 -1.179688 5.675781 -1.210938 6.3125 -1.359375 C 7.007812 -1.515625 7.65625 -1.785156 8.25 -2.171875 C 8.582031 -2.410156 8.878906 -2.726562 9.140625 -3.125 C 9.429688 -3.539062 9.617188 -3.976562 9.703125 -4.4375 C 9.785156 -4.945312 9.734375 -5.410156 9.546875 -5.828125 C 9.316406 -6.316406 8.925781 -6.710938 8.375 -7.015625 C 8.21875 -7.109375 7.992188 -7.179688 7.703125 -7.234375 C 7.503906 -7.273438 7.207031 -7.320312 6.8125 -7.375 C 5.988281 -7.5 5.441406 -7.625 5.171875 -7.75 C 4.722656 -7.945312 4.613281 -8.242188 4.84375 -8.640625 C 5.039062 -9.015625 5.457031 -9.257812 6.09375 -9.375 C 6.476562 -9.445312 7.085938 -9.488281 7.921875 -9.5 L 8.609375 -9.5 L 8.609375 -9.53125 C 8.609375 -9.550781 8.609375 -9.566406 8.609375 -9.578125 C 8.609375 -9.597656 8.613281 -9.609375 8.625 -9.609375 L 8.59375 -9.703125 L 8.59375 -9.734375 C 8.582031 -9.742188 8.578125 -9.75 8.578125 -9.75 C 8.566406 -9.757812 8.566406 -9.765625 8.578125 -9.765625 L 8.609375 -9.8125 L 8.5625 -9.8125 L 8.609375 -9.859375 L 8.546875 -9.859375 C 8.546875 -9.878906 8.550781 -9.890625 8.5625 -9.890625 C 8.570312 -9.890625 8.582031 -9.890625 8.59375 -9.890625 L 8.625 -9.90625 L 8.5625 -9.953125 L 8.640625 -9.984375 L 8.578125 -10.015625 Z M 6.046875 -7.109375 C 5.753906 -7.109375 5.445312 -7.160156 5.125 -7.265625 C 4.550781 -7.460938 4.25 -7.78125 4.21875 -8.21875 C 4.1875 -8.4375 4.234375 -8.640625 4.359375 -8.828125 C 4.492188 -9.046875 4.722656 -9.238281 5.046875 -9.40625 C 4.710938 -9.207031 4.484375 -8.972656 4.359375 -8.703125 C 4.234375 -8.460938 4.222656 -8.222656 4.328125 -7.984375 C 4.421875 -7.742188 4.609375 -7.546875 4.890625 -7.390625 C 5.203125 -7.234375 5.585938 -7.140625 6.046875 -7.109375 Z M 9.34375 -4.59375 C 9.351562 -4.289062 9.28125 -3.972656 9.125 -3.640625 C 9 -3.378906 8.851562 -3.148438 8.6875 -2.953125 C 8.40625 -2.671875 8.109375 -2.4375 7.796875 -2.25 C 7.617188 -2.15625 7.421875 -2.066406 7.203125 -1.984375 L 7.125 -1.953125 L 7.296875 -2.046875 C 7.765625 -2.285156 8.144531 -2.535156 8.4375 -2.796875 C 8.9375 -3.273438 9.238281 -3.875 9.34375 -4.59375 Z M 9.34375 -4.59375 "/></g></g></g><g fill="#b7b7b7" fill-opacity="1"><g transform="translate(81.461515, 20.923634)"><g><path d="M 6.46875 -1.46875 C 5.851562 -1.382812 5.21875 -1.460938 4.5625 -1.703125 C 3.914062 -1.910156 3.476562 -2.191406 3.25 -2.546875 C 3.414062 -2.359375 3.675781 -2.175781 4.03125 -2 C 4.394531 -1.820312 4.71875 -1.703125 5 -1.640625 C 5.320312 -1.578125 5.613281 -1.53125 5.875 -1.5 C 6.113281 -1.46875 6.3125 -1.457031 6.46875 -1.46875 Z M 9.15625 -3.78125 C 9.03125 -3.613281 8.816406 -3.457031 8.515625 -3.3125 C 8.179688 -3.164062 7.832031 -3.078125 7.46875 -3.046875 C 7.050781 -3.003906 6.660156 -3.046875 6.296875 -3.171875 C 5.890625 -3.304688 5.554688 -3.550781 5.296875 -3.90625 C 5.554688 -3.601562 5.875 -3.382812 6.25 -3.25 C 6.582031 -3.125 6.921875 -3.066406 7.265625 -3.078125 C 7.742188 -3.117188 8.195312 -3.238281 8.625 -3.4375 C 8.914062 -3.582031 9.09375 -3.695312 9.15625 -3.78125 Z M 2.09375 -9.25 C 2.0625 -8.976562 2.046875 -8.539062 2.046875 -7.9375 C 2.046875 -7.59375 2.050781 -7 2.0625 -6.15625 L 2.078125 -4.671875 C 2.078125 -3.179688 2.71875 -2.140625 4 -1.546875 C 4.9375 -1.109375 6.003906 -0.960938 7.203125 -1.109375 C 7.679688 -1.171875 8.175781 -1.320312 8.6875 -1.5625 C 9.363281 -1.875 9.78125 -2.253906 9.9375 -2.703125 C 10.007812 -2.941406 10.054688 -3.15625 10.078125 -3.34375 C 10.085938 -3.457031 10.085938 -3.601562 10.078125 -3.78125 L 10.09375 -4.09375 L 10.140625 -4.59375 C 10.179688 -4.851562 10.207031 -5.039062 10.21875 -5.15625 C 10.226562 -5.332031 10.21875 -5.4375 10.1875 -5.46875 C 10.164062 -5.488281 10.128906 -5.460938 10.078125 -5.390625 C 10.046875 -5.335938 9.984375 -5.25 9.890625 -5.125 C 9.804688 -4.96875 9.738281 -4.847656 9.6875 -4.765625 C 9.59375 -4.640625 9.507812 -4.523438 9.4375 -4.421875 C 8.9375 -3.796875 8.269531 -3.445312 7.4375 -3.375 C 6.59375 -3.3125 5.957031 -3.539062 5.53125 -4.0625 C 5.414062 -4.195312 5.316406 -4.394531 5.234375 -4.65625 C 5.171875 -4.90625 5.125 -5.195312 5.09375 -5.53125 L 8.890625 -5.53125 C 9.203125 -5.53125 9.414062 -5.550781 9.53125 -5.59375 C 9.71875 -5.65625 9.804688 -5.769531 9.796875 -5.9375 L 9.765625 -6.296875 L 9.75 -6.390625 C 9.75 -6.515625 9.75 -6.617188 9.75 -6.703125 C 9.75 -6.867188 9.757812 -7.003906 9.78125 -7.109375 C 9.78125 -7.140625 9.773438 -7.175781 9.765625 -7.21875 C 9.753906 -7.238281 9.742188 -7.273438 9.734375 -7.328125 L 9.71875 -7.40625 C 9.707031 -7.40625 9.71875 -7.398438 9.75 -7.390625 C 9.769531 -7.390625 9.773438 -7.394531 9.765625 -7.40625 L 9.71875 -7.484375 L 9.78125 -7.546875 L 9.71875 -7.640625 C 9.6875 -7.640625 9.691406 -7.632812 9.734375 -7.625 C 9.753906 -7.625 9.78125 -7.632812 9.8125 -7.65625 L 9.71875 -7.6875 L 9.71875 -7.71875 C 9.738281 -7.738281 9.75 -7.753906 9.75 -7.765625 C 9.75 -7.773438 9.738281 -7.796875 9.71875 -7.828125 L 5.046875 -7.828125 C 5.046875 -8.117188 5.054688 -8.410156 5.078125 -8.703125 C 5.085938 -8.941406 5.097656 -9.0625 5.109375 -9.0625 L 5.109375 -9.125 C 6.148438 -9.101562 7.097656 -9.113281 7.953125 -9.15625 C 8.867188 -9.195312 9.445312 -9.265625 9.6875 -9.359375 C 9.695312 -9.367188 9.703125 -9.378906 9.703125 -9.390625 C 9.691406 -9.398438 9.679688 -9.414062 9.671875 -9.4375 L 9.65625 -9.5 L 9.625 -9.609375 L 9.640625 -9.640625 C 9.660156 -9.648438 9.671875 -9.660156 9.671875 -9.671875 C 9.691406 -9.679688 9.703125 -9.691406 9.703125 -9.703125 L 9.625 -9.8125 L 9.65625 -9.890625 L 9.703125 -9.953125 L 9.734375 -10.828125 C 9.734375 -10.941406 9.742188 -11.050781 9.765625 -11.15625 C 9.773438 -11.21875 9.789062 -11.300781 9.8125 -11.40625 C 9.84375 -11.53125 9.847656 -11.609375 9.828125 -11.640625 C 9.796875 -11.671875 9.691406 -11.675781 9.515625 -11.65625 C 9.222656 -11.625 8.738281 -11.601562 8.0625 -11.59375 C 7.519531 -11.582031 6.863281 -11.578125 6.09375 -11.578125 L 3.609375 -11.578125 L 3.15625 -11.609375 C 2.800781 -11.628906 2.5625 -11.632812 2.4375 -11.625 C 2.207031 -11.601562 2.078125 -11.535156 2.046875 -11.421875 C 2.046875 -11.390625 2.035156 -11.351562 2.015625 -11.3125 C 2.003906 -11.289062 1.988281 -11.257812 1.96875 -11.21875 L 1.921875 -11.109375 C 1.921875 -11.097656 1.921875 -11.085938 1.921875 -11.078125 C 1.929688 -11.066406 1.941406 -11.054688 1.953125 -11.046875 C 1.960938 -11.023438 1.96875 -11.007812 1.96875 -11 C 1.988281 -10.988281 2 -10.96875 2 -10.9375 L 2 -10.1875 C 2 -10.164062 1.988281 -10.144531 1.96875 -10.125 C 1.96875 -10.113281 1.957031 -10.097656 1.9375 -10.078125 C 1.914062 -10.066406 1.90625 -10.054688 1.90625 -10.046875 C 1.90625 -10.035156 1.910156 -10.023438 1.921875 -10.015625 L 1.953125 -10 C 1.960938 -10 1.96875 -9.992188 1.96875 -9.984375 C 1.988281 -9.972656 2 -9.960938 2 -9.953125 C 1.976562 -9.953125 1.960938 -9.953125 1.953125 -9.953125 C 1.910156 -9.941406 1.90625 -9.925781 1.9375 -9.90625 C 1.945312 -9.90625 1.96875 -9.898438 2 -9.890625 C 2.050781 -9.867188 2.078125 -9.851562 2.078125 -9.84375 L 2.03125 -9.828125 C 1.96875 -9.804688 1.921875 -9.789062 1.890625 -9.78125 C 1.828125 -9.75 1.796875 -9.722656 1.796875 -9.703125 C 1.796875 -9.691406 1.816406 -9.691406 1.859375 -9.703125 C 1.878906 -9.710938 1.914062 -9.726562 1.96875 -9.75 L 2.046875 -9.765625 C 2.035156 -9.742188 2.015625 -9.71875 1.984375 -9.6875 C 1.960938 -9.664062 1.945312 -9.65625 1.9375 -9.65625 L 1.953125 -9.65625 L 2.015625 -9.609375 L 1.953125 -9.515625 L 2.03125 -9.5625 C 2.03125 -9.5625 2.019531 -9.546875 2 -9.515625 C 1.976562 -9.484375 1.960938 -9.457031 1.953125 -9.4375 L 2 -9.4375 L 1.984375 -9.40625 L 1.96875 -9.3125 C 1.96875 -9.28125 1.984375 -9.265625 2.015625 -9.265625 C 2.023438 -9.253906 2.050781 -9.25 2.09375 -9.25 Z M 2.09375 -9.25 "/></g></g></g><g fill="#b7b7b7" fill-opacity="1"><g transform="translate(93.403094, 20.923634)"><g><path d="M 8.703125 -3.65625 C 8.609375 -3.65625 8.453125 -3.6875 8.234375 -3.75 C 7.898438 -3.84375 7.597656 -3.96875 7.328125 -4.125 C 7.179688 -4.207031 7.023438 -4.316406 6.859375 -4.453125 C 6.660156 -4.617188 6.53125 -4.769531 6.46875 -4.90625 C 6.707031 -4.59375 7.085938 -4.304688 7.609375 -4.046875 C 8.023438 -3.847656 8.390625 -3.71875 8.703125 -3.65625 Z M 9.75 -8.90625 L 9.71875 -9 C 9.632812 -9.53125 9.488281 -9.960938 9.28125 -10.296875 C 8.875 -10.910156 8.28125 -11.238281 7.5 -11.28125 C 7.832031 -11.3125 8.160156 -11.253906 8.484375 -11.109375 C 8.734375 -10.984375 8.9375 -10.828125 9.09375 -10.640625 C 9.375 -10.316406 9.566406 -9.957031 9.671875 -9.5625 C 9.722656 -9.34375 9.75 -9.128906 9.75 -8.921875 Z M 4.859375 -3.1875 C 5.472656 -2.5625 6.257812 -2.097656 7.21875 -1.796875 C 8.1875 -1.492188 8.894531 -1.503906 9.34375 -1.828125 C 9.539062 -1.960938 9.679688 -2.226562 9.765625 -2.625 C 9.804688 -2.84375 9.84375 -3.1875 9.875 -3.65625 C 9.882812 -3.863281 9.894531 -4.007812 9.90625 -4.09375 C 9.914062 -4.226562 9.9375 -4.320312 9.96875 -4.375 C 10 -4.457031 10 -4.492188 9.96875 -4.484375 C 9.957031 -4.484375 9.910156 -4.453125 9.828125 -4.390625 C 9.609375 -4.253906 9.425781 -4.15625 9.28125 -4.09375 C 9.019531 -3.976562 8.785156 -3.957031 8.578125 -4.03125 C 8.203125 -4.15625 7.851562 -4.304688 7.53125 -4.484375 C 7.125 -4.703125 6.835938 -4.921875 6.671875 -5.140625 C 7.234375 -5.242188 7.816406 -5.503906 8.421875 -5.921875 C 9.253906 -6.515625 9.765625 -7.226562 9.953125 -8.0625 C 10.222656 -9.175781 10.019531 -10.082031 9.34375 -10.78125 C 8.675781 -11.488281 7.757812 -11.789062 6.59375 -11.6875 C 6.175781 -11.664062 5.832031 -11.628906 5.5625 -11.578125 C 5.351562 -11.523438 5.15625 -11.457031 4.96875 -11.375 L 4.96875 -11.4375 C 4.957031 -11.457031 4.945312 -11.46875 4.9375 -11.46875 C 4.925781 -11.46875 4.910156 -11.460938 4.890625 -11.453125 L 4.859375 -11.4375 C 4.835938 -11.4375 4.816406 -11.441406 4.796875 -11.453125 C 4.773438 -11.460938 4.757812 -11.472656 4.75 -11.484375 C 4.726562 -11.492188 4.71875 -11.503906 4.71875 -11.515625 C 4.71875 -11.523438 4.71875 -11.539062 4.71875 -11.5625 L 4.703125 -11.640625 L 4.6875 -11.640625 C 4.664062 -11.617188 4.648438 -11.601562 4.640625 -11.59375 C 4.628906 -11.582031 4.617188 -11.578125 4.609375 -11.578125 L 4.609375 -11.65625 C 4.617188 -11.65625 4.625 -11.660156 4.625 -11.671875 C 4.625 -11.671875 4.617188 -11.671875 4.609375 -11.671875 C 4.597656 -11.691406 4.59375 -11.695312 4.59375 -11.6875 C 4.59375 -11.675781 4.582031 -11.660156 4.5625 -11.640625 L 4.53125 -11.59375 L 4.515625 -11.6875 C 4.515625 -11.695312 4.515625 -11.703125 4.515625 -11.703125 C 4.515625 -11.703125 4.515625 -11.695312 4.515625 -11.6875 L 4.453125 -11.65625 C 4.429688 -11.625 4.414062 -11.609375 4.40625 -11.609375 C 4.382812 -11.597656 4.375 -11.59375 4.375 -11.59375 L 4.359375 -11.71875 L 4.296875 -11.59375 L 4.28125 -11.6875 C 4.269531 -11.6875 4.253906 -11.679688 4.234375 -11.671875 C 4.203125 -11.640625 4.1875 -11.613281 4.1875 -11.59375 L 4.171875 -11.640625 C 4.160156 -11.753906 4.15625 -11.773438 4.15625 -11.703125 C 4.15625 -11.722656 4.15625 -11.726562 4.15625 -11.71875 L 4.140625 -11.671875 C 4.128906 -11.648438 4.125 -11.640625 4.125 -11.640625 C 4.125 -11.628906 4.125 -11.628906 4.125 -11.640625 C 4.082031 -11.648438 4.054688 -11.671875 4.046875 -11.703125 C 4.023438 -11.722656 4.019531 -11.734375 4.03125 -11.734375 L 3.96875 -11.65625 L 3.953125 -11.703125 C 3.929688 -11.734375 3.921875 -11.753906 3.921875 -11.765625 C 3.921875 -11.773438 3.914062 -11.769531 3.90625 -11.75 L 3.84375 -11.65625 L 3.75 -11.6875 L 3.71875 -11.671875 C 3.707031 -11.660156 3.703125 -11.65625 3.703125 -11.65625 C 3.691406 -11.644531 3.679688 -11.640625 3.671875 -11.640625 L 3.625 -11.6875 C 3.601562 -11.71875 3.59375 -11.734375 3.59375 -11.734375 C 3.582031 -11.742188 3.578125 -11.742188 3.578125 -11.734375 L 3.546875 -11.6875 C 3.535156 -11.65625 3.523438 -11.632812 3.515625 -11.625 C 3.503906 -11.601562 3.492188 -11.59375 3.484375 -11.59375 L 3.328125 -11.671875 C 3.285156 -11.703125 3.257812 -11.722656 3.25 -11.734375 C 3.207031 -11.753906 3.179688 -11.757812 3.171875 -11.75 C 2.867188 -11.707031 2.628906 -11.613281 2.453125 -11.46875 C 2.148438 -11.238281 1.976562 -10.890625 1.9375 -10.421875 L 1.9375 -1.71875 C 1.9375 -1.59375 1.992188 -1.507812 2.109375 -1.46875 C 2.203125 -1.445312 2.359375 -1.441406 2.578125 -1.453125 C 2.472656 -1.453125 2.539062 -1.460938 2.78125 -1.484375 C 2.945312 -1.484375 3.078125 -1.472656 3.171875 -1.453125 C 3.523438 -1.347656 3.867188 -1.332031 4.203125 -1.40625 C 4.640625 -1.5 4.859375 -1.75 4.859375 -2.15625 Z M 4.859375 -9.234375 L 4.921875 -9.265625 C 5.140625 -9.359375 5.34375 -9.429688 5.53125 -9.484375 C 5.851562 -9.566406 6.195312 -9.609375 6.5625 -9.609375 C 6.832031 -9.609375 7.054688 -9.515625 7.234375 -9.328125 C 7.460938 -9.085938 7.535156 -8.769531 7.453125 -8.375 C 7.359375 -7.96875 6.992188 -7.546875 6.359375 -7.109375 C 5.816406 -6.710938 5.316406 -6.453125 4.859375 -6.328125 Z M 4.859375 -9.234375 "/></g></g></g><g fill="#b7b7b7" fill-opacity="1"><g transform="translate(105.030419, 20.923634)"><g><path d="M 11.296875 -10.5 C 11.359375 -10.675781 11.269531 -10.828125 11.03125 -10.953125 C 10.875 -11.035156 10.609375 -11.117188 10.234375 -11.203125 L 10 -11.265625 C 9.914062 -11.296875 9.828125 -11.332031 9.734375 -11.375 C 9.679688 -11.394531 9.597656 -11.429688 9.484375 -11.484375 C 9.222656 -11.609375 9.039062 -11.675781 8.9375 -11.6875 C 8.757812 -11.695312 8.628906 -11.617188 8.546875 -11.453125 C 8.421875 -11.234375 8 -10.070312 7.28125 -7.96875 C 6.5625 -5.894531 6.210938 -4.859375 6.234375 -4.859375 C 6.242188 -4.859375 5.882812 -5.898438 5.15625 -7.984375 C 4.394531 -10.097656 3.941406 -11.265625 3.796875 -11.484375 C 3.703125 -11.628906 3.503906 -11.664062 3.203125 -11.59375 C 2.984375 -11.539062 2.8125 -11.472656 2.6875 -11.390625 L 2.609375 -11.4375 C 2.597656 -11.457031 2.585938 -11.46875 2.578125 -11.46875 C 2.566406 -11.476562 2.554688 -11.476562 2.546875 -11.46875 L 2.546875 -11.421875 C 2.566406 -11.367188 2.578125 -11.335938 2.578125 -11.328125 C 2.578125 -11.285156 2.566406 -11.269531 2.546875 -11.28125 C 2.515625 -11.28125 2.488281 -11.300781 2.46875 -11.34375 C 2.445312 -11.382812 2.441406 -11.40625 2.453125 -11.40625 C 2.421875 -11.40625 2.394531 -11.382812 2.375 -11.34375 C 2.363281 -11.300781 2.359375 -11.269531 2.359375 -11.25 C 2.367188 -11.226562 2.363281 -11.222656 2.34375 -11.234375 C 2.320312 -11.234375 2.296875 -11.242188 2.265625 -11.265625 L 2.203125 -11.28125 L 2.1875 -11.203125 C 2.195312 -11.160156 2.195312 -11.132812 2.1875 -11.125 C 2.1875 -11.113281 2.175781 -11.113281 2.15625 -11.125 C 2.132812 -11.125 2.117188 -11.128906 2.109375 -11.140625 C 2.097656 -11.148438 2.085938 -11.164062 2.078125 -11.1875 L 2.078125 -11.203125 C 2.054688 -11.203125 2.046875 -11.191406 2.046875 -11.171875 C 2.035156 -11.140625 2.039062 -11.097656 2.0625 -11.046875 C 2.0625 -11.035156 2.050781 -11.03125 2.03125 -11.03125 C 2.019531 -11.039062 2 -11.054688 1.96875 -11.078125 L 1.890625 -11.125 L 1.828125 -11.03125 L 1.734375 -11.046875 C 1.703125 -11.078125 1.679688 -11.078125 1.671875 -11.046875 C 1.660156 -11.023438 1.65625 -10.988281 1.65625 -10.9375 C 1.632812 -10.9375 1.613281 -10.9375 1.59375 -10.9375 C 1.570312 -10.945312 1.550781 -10.957031 1.53125 -10.96875 L 1.5 -10.984375 L 1.484375 -10.84375 L 1.375 -10.890625 C 1.351562 -10.890625 1.335938 -10.882812 1.328125 -10.875 C 1.328125 -10.875 1.332031 -10.863281 1.34375 -10.84375 C 1.351562 -10.832031 1.359375 -10.820312 1.359375 -10.8125 C 1.359375 -10.789062 1.347656 -10.769531 1.328125 -10.75 L 1.265625 -10.8125 C 1.265625 -10.8125 1.257812 -10.796875 1.25 -10.765625 C 1.238281 -10.734375 1.226562 -10.71875 1.21875 -10.71875 C 1.195312 -10.71875 1.164062 -10.71875 1.125 -10.71875 C 1.070312 -10.695312 1.039062 -10.675781 1.03125 -10.65625 C 1.03125 -10.476562 1.429688 -9.257812 2.234375 -7 C 3.078125 -4.59375 3.671875 -3.132812 4.015625 -2.625 C 4.316406 -2.1875 4.65625 -1.847656 5.03125 -1.609375 C 5.382812 -1.378906 5.769531 -1.265625 6.1875 -1.265625 C 6.757812 -1.265625 7.21875 -1.394531 7.5625 -1.65625 C 7.882812 -1.875 8.203125 -2.253906 8.515625 -2.796875 C 8.703125 -3.171875 9.144531 -4.34375 9.84375 -6.3125 C 10.21875 -7.34375 10.660156 -8.632812 11.171875 -10.1875 Z M 11.296875 -10.5 "/></g></g></g><g fill="#b7b7b7" fill-opacity="1"><g transform="translate(117.600508, 20.923634)"><g><path d="M 6.46875 -1.46875 C 5.851562 -1.382812 5.21875 -1.460938 4.5625 -1.703125 C 3.914062 -1.910156 3.476562 -2.191406 3.25 -2.546875 C 3.414062 -2.359375 3.675781 -2.175781 4.03125 -2 C 4.394531 -1.820312 4.71875 -1.703125 5 -1.640625 C 5.320312 -1.578125 5.613281 -1.53125 5.875 -1.5 C 6.113281 -1.46875 6.3125 -1.457031 6.46875 -1.46875 Z M 9.15625 -3.78125 C 9.03125 -3.613281 8.816406 -3.457031 8.515625 -3.3125 C 8.179688 -3.164062 7.832031 -3.078125 7.46875 -3.046875 C 7.050781 -3.003906 6.660156 -3.046875 6.296875 -3.171875 C 5.890625 -3.304688 5.554688 -3.550781 5.296875 -3.90625 C 5.554688 -3.601562 5.875 -3.382812 6.25 -3.25 C 6.582031 -3.125 6.921875 -3.066406 7.265625 -3.078125 C 7.742188 -3.117188 8.195312 -3.238281 8.625 -3.4375 C 8.914062 -3.582031 9.09375 -3.695312 9.15625 -3.78125 Z M 2.09375 -9.25 C 2.0625 -8.976562 2.046875 -8.539062 2.046875 -7.9375 C 2.046875 -7.59375 2.050781 -7 2.0625 -6.15625 L 2.078125 -4.671875 C 2.078125 -3.179688 2.71875 -2.140625 4 -1.546875 C 4.9375 -1.109375 6.003906 -0.960938 7.203125 -1.109375 C 7.679688 -1.171875 8.175781 -1.320312 8.6875 -1.5625 C 9.363281 -1.875 9.78125 -2.253906 9.9375 -2.703125 C 10.007812 -2.941406 10.054688 -3.15625 10.078125 -3.34375 C 10.085938 -3.457031 10.085938 -3.601562 10.078125 -3.78125 L 10.09375 -4.09375 L 10.140625 -4.59375 C 10.179688 -4.851562 10.207031 -5.039062 10.21875 -5.15625 C 10.226562 -5.332031 10.21875 -5.4375 10.1875 -5.46875 C 10.164062 -5.488281 10.128906 -5.460938 10.078125 -5.390625 C 10.046875 -5.335938 9.984375 -5.25 9.890625 -5.125 C 9.804688 -4.96875 9.738281 -4.847656 9.6875 -4.765625 C 9.59375 -4.640625 9.507812 -4.523438 9.4375 -4.421875 C 8.9375 -3.796875 8.269531 -3.445312 7.4375 -3.375 C 6.59375 -3.3125 5.957031 -3.539062 5.53125 -4.0625 C 5.414062 -4.195312 5.316406 -4.394531 5.234375 -4.65625 C 5.171875 -4.90625 5.125 -5.195312 5.09375 -5.53125 L 8.890625 -5.53125 C 9.203125 -5.53125 9.414062 -5.550781 9.53125 -5.59375 C 9.71875 -5.65625 9.804688 -5.769531 9.796875 -5.9375 L 9.765625 -6.296875 L 9.75 -6.390625 C 9.75 -6.515625 9.75 -6.617188 9.75 -6.703125 C 9.75 -6.867188 9.757812 -7.003906 9.78125 -7.109375 C 9.78125 -7.140625 9.773438 -7.175781 9.765625 -7.21875 C 9.753906 -7.238281 9.742188 -7.273438 9.734375 -7.328125 L 9.71875 -7.40625 C 9.707031 -7.40625 9.71875 -7.398438 9.75 -7.390625 C 9.769531 -7.390625 9.773438 -7.394531 9.765625 -7.40625 L 9.71875 -7.484375 L 9.78125 -7.546875 L 9.71875 -7.640625 C 9.6875 -7.640625 9.691406 -7.632812 9.734375 -7.625 C 9.753906 -7.625 9.78125 -7.632812 9.8125 -7.65625 L 9.71875 -7.6875 L 9.71875 -7.71875 C 9.738281 -7.738281 9.75 -7.753906 9.75 -7.765625 C 9.75 -7.773438 9.738281 -7.796875 9.71875 -7.828125 L 5.046875 -7.828125 C 5.046875 -8.117188 5.054688 -8.410156 5.078125 -8.703125 C 5.085938 -8.941406 5.097656 -9.0625 5.109375 -9.0625 L 5.109375 -9.125 C 6.148438 -9.101562 7.097656 -9.113281 7.953125 -9.15625 C 8.867188 -9.195312 9.445312 -9.265625 9.6875 -9.359375 C 9.695312 -9.367188 9.703125 -9.378906 9.703125 -9.390625 C 9.691406 -9.398438 9.679688 -9.414062 9.671875 -9.4375 L 9.65625 -9.5 L 9.625 -9.609375 L 9.640625 -9.640625 C 9.660156 -9.648438 9.671875 -9.660156 9.671875 -9.671875 C 9.691406 -9.679688 9.703125 -9.691406 9.703125 -9.703125 L 9.625 -9.8125 L 9.65625 -9.890625 L 9.703125 -9.953125 L 9.734375 -10.828125 C 9.734375 -10.941406 9.742188 -11.050781 9.765625 -11.15625 C 9.773438 -11.21875 9.789062 -11.300781 9.8125 -11.40625 C 9.84375 -11.53125 9.847656 -11.609375 9.828125 -11.640625 C 9.796875 -11.671875 9.691406 -11.675781 9.515625 -11.65625 C 9.222656 -11.625 8.738281 -11.601562 8.0625 -11.59375 C 7.519531 -11.582031 6.863281 -11.578125 6.09375 -11.578125 L 3.609375 -11.578125 L 3.15625 -11.609375 C 2.800781 -11.628906 2.5625 -11.632812 2.4375 -11.625 C 2.207031 -11.601562 2.078125 -11.535156 2.046875 -11.421875 C 2.046875 -11.390625 2.035156 -11.351562 2.015625 -11.3125 C 2.003906 -11.289062 1.988281 -11.257812 1.96875 -11.21875 L 1.921875 -11.109375 C 1.921875 -11.097656 1.921875 -11.085938 1.921875 -11.078125 C 1.929688 -11.066406 1.941406 -11.054688 1.953125 -11.046875 C 1.960938 -11.023438 1.96875 -11.007812 1.96875 -11 C 1.988281 -10.988281 2 -10.96875 2 -10.9375 L 2 -10.1875 C 2 -10.164062 1.988281 -10.144531 1.96875 -10.125 C 1.96875 -10.113281 1.957031 -10.097656 1.9375 -10.078125 C 1.914062 -10.066406 1.90625 -10.054688 1.90625 -10.046875 C 1.90625 -10.035156 1.910156 -10.023438 1.921875 -10.015625 L 1.953125 -10 C 1.960938 -10 1.96875 -9.992188 1.96875 -9.984375 C 1.988281 -9.972656 2 -9.960938 2 -9.953125 C 1.976562 -9.953125 1.960938 -9.953125 1.953125 -9.953125 C 1.910156 -9.941406 1.90625 -9.925781 1.9375 -9.90625 C 1.945312 -9.90625 1.96875 -9.898438 2 -9.890625 C 2.050781 -9.867188 2.078125 -9.851562 2.078125 -9.84375 L 2.03125 -9.828125 C 1.96875 -9.804688 1.921875 -9.789062 1.890625 -9.78125 C 1.828125 -9.75 1.796875 -9.722656 1.796875 -9.703125 C 1.796875 -9.691406 1.816406 -9.691406 1.859375 -9.703125 C 1.878906 -9.710938 1.914062 -9.726562 1.96875 -9.75 L 2.046875 -9.765625 C 2.035156 -9.742188 2.015625 -9.71875 1.984375 -9.6875 C 1.960938 -9.664062 1.945312 -9.65625 1.9375 -9.65625 L 1.953125 -9.65625 L 2.015625 -9.609375 L 1.953125 -9.515625 L 2.03125 -9.5625 C 2.03125 -9.5625 2.019531 -9.546875 2 -9.515625 C 1.976562 -9.484375 1.960938 -9.457031 1.953125 -9.4375 L 2 -9.4375 L 1.984375 -9.40625 L 1.96875 -9.3125 C 1.96875 -9.28125 1.984375 -9.265625 2.015625 -9.265625 C 2.023438 -9.253906 2.050781 -9.25 2.09375 -9.25 Z M 2.09375 -9.25 "/></g></g></g><g fill="#b7b7b7" fill-opacity="1"><g transform="translate(129.542087, 20.923634)"><g><path d="M 8.703125 -3.65625 C 8.609375 -3.65625 8.453125 -3.6875 8.234375 -3.75 C 7.898438 -3.84375 7.597656 -3.96875 7.328125 -4.125 C 7.179688 -4.207031 7.023438 -4.316406 6.859375 -4.453125 C 6.660156 -4.617188 6.53125 -4.769531 6.46875 -4.90625 C 6.707031 -4.59375 7.085938 -4.304688 7.609375 -4.046875 C 8.023438 -3.847656 8.390625 -3.71875 8.703125 -3.65625 Z M 9.75 -8.90625 L 9.71875 -9 C 9.632812 -9.53125 9.488281 -9.960938 9.28125 -10.296875 C 8.875 -10.910156 8.28125 -11.238281 7.5 -11.28125 C 7.832031 -11.3125 8.160156 -11.253906 8.484375 -11.109375 C 8.734375 -10.984375 8.9375 -10.828125 9.09375 -10.640625 C 9.375 -10.316406 9.566406 -9.957031 9.671875 -9.5625 C 9.722656 -9.34375 9.75 -9.128906 9.75 -8.921875 Z M 4.859375 -3.1875 C 5.472656 -2.5625 6.257812 -2.097656 7.21875 -1.796875 C 8.1875 -1.492188 8.894531 -1.503906 9.34375 -1.828125 C 9.539062 -1.960938 9.679688 -2.226562 9.765625 -2.625 C 9.804688 -2.84375 9.84375 -3.1875 9.875 -3.65625 C 9.882812 -3.863281 9.894531 -4.007812 9.90625 -4.09375 C 9.914062 -4.226562 9.9375 -4.320312 9.96875 -4.375 C 10 -4.457031 10 -4.492188 9.96875 -4.484375 C 9.957031 -4.484375 9.910156 -4.453125 9.828125 -4.390625 C 9.609375 -4.253906 9.425781 -4.15625 9.28125 -4.09375 C 9.019531 -3.976562 8.785156 -3.957031 8.578125 -4.03125 C 8.203125 -4.15625 7.851562 -4.304688 7.53125 -4.484375 C 7.125 -4.703125 6.835938 -4.921875 6.671875 -5.140625 C 7.234375 -5.242188 7.816406 -5.503906 8.421875 -5.921875 C 9.253906 -6.515625 9.765625 -7.226562 9.953125 -8.0625 C 10.222656 -9.175781 10.019531 -10.082031 9.34375 -10.78125 C 8.675781 -11.488281 7.757812 -11.789062 6.59375 -11.6875 C 6.175781 -11.664062 5.832031 -11.628906 5.5625 -11.578125 C 5.351562 -11.523438 5.15625 -11.457031 4.96875 -11.375 L 4.96875 -11.4375 C 4.957031 -11.457031 4.945312 -11.46875 4.9375 -11.46875 C 4.925781 -11.46875 4.910156 -11.460938 4.890625 -11.453125 L 4.859375 -11.4375 C 4.835938 -11.4375 4.816406 -11.441406 4.796875 -11.453125 C 4.773438 -11.460938 4.757812 -11.472656 4.75 -11.484375 C 4.726562 -11.492188 4.71875 -11.503906 4.71875 -11.515625 C 4.71875 -11.523438 4.71875 -11.539062 4.71875 -11.5625 L 4.703125 -11.640625 L 4.6875 -11.640625 C 4.664062 -11.617188 4.648438 -11.601562 4.640625 -11.59375 C 4.628906 -11.582031 4.617188 -11.578125 4.609375 -11.578125 L 4.609375 -11.65625 C 4.617188 -11.65625 4.625 -11.660156 4.625 -11.671875 C 4.625 -11.671875 4.617188 -11.671875 4.609375 -11.671875 C 4.597656 -11.691406 4.59375 -11.695312 4.59375 -11.6875 C 4.59375 -11.675781 4.582031 -11.660156 4.5625 -11.640625 L 4.53125 -11.59375 L 4.515625 -11.6875 C 4.515625 -11.695312 4.515625 -11.703125 4.515625 -11.703125 C 4.515625 -11.703125 4.515625 -11.695312 4.515625 -11.6875 L 4.453125 -11.65625 C 4.429688 -11.625 4.414062 -11.609375 4.40625 -11.609375 C 4.382812 -11.597656 4.375 -11.59375 4.375 -11.59375 L 4.359375 -11.71875 L 4.296875 -11.59375 L 4.28125 -11.6875 C 4.269531 -11.6875 4.253906 -11.679688 4.234375 -11.671875 C 4.203125 -11.640625 4.1875 -11.613281 4.1875 -11.59375 L 4.171875 -11.640625 C 4.160156 -11.753906 4.15625 -11.773438 4.15625 -11.703125 C 4.15625 -11.722656 4.15625 -11.726562 4.15625 -11.71875 L 4.140625 -11.671875 C 4.128906 -11.648438 4.125 -11.640625 4.125 -11.640625 C 4.125 -11.628906 4.125 -11.628906 4.125 -11.640625 C 4.082031 -11.648438 4.054688 -11.671875 4.046875 -11.703125 C 4.023438 -11.722656 4.019531 -11.734375 4.03125 -11.734375 L 3.96875 -11.65625 L 3.953125 -11.703125 C 3.929688 -11.734375 3.921875 -11.753906 3.921875 -11.765625 C 3.921875 -11.773438 3.914062 -11.769531 3.90625 -11.75 L 3.84375 -11.65625 L 3.75 -11.6875 L 3.71875 -11.671875 C 3.707031 -11.660156 3.703125 -11.65625 3.703125 -11.65625 C 3.691406 -11.644531 3.679688 -11.640625 3.671875 -11.640625 L 3.625 -11.6875 C 3.601562 -11.71875 3.59375 -11.734375 3.59375 -11.734375 C 3.582031 -11.742188 3.578125 -11.742188 3.578125 -11.734375 L 3.546875 -11.6875 C 3.535156 -11.65625 3.523438 -11.632812 3.515625 -11.625 C 3.503906 -11.601562 3.492188 -11.59375 3.484375 -11.59375 L 3.328125 -11.671875 C 3.285156 -11.703125 3.257812 -11.722656 3.25 -11.734375 C 3.207031 -11.753906 3.179688 -11.757812 3.171875 -11.75 C 2.867188 -11.707031 2.628906 -11.613281 2.453125 -11.46875 C 2.148438 -11.238281 1.976562 -10.890625 1.9375 -10.421875 L 1.9375 -1.71875 C 1.9375 -1.59375 1.992188 -1.507812 2.109375 -1.46875 C 2.203125 -1.445312 2.359375 -1.441406 2.578125 -1.453125 C 2.472656 -1.453125 2.539062 -1.460938 2.78125 -1.484375 C 2.945312 -1.484375 3.078125 -1.472656 3.171875 -1.453125 C 3.523438 -1.347656 3.867188 -1.332031 4.203125 -1.40625 C 4.640625 -1.5 4.859375 -1.75 4.859375 -2.15625 Z M 4.859375 -9.234375 L 4.921875 -9.265625 C 5.140625 -9.359375 5.34375 -9.429688 5.53125 -9.484375 C 5.851562 -9.566406 6.195312 -9.609375 6.5625 -9.609375 C 6.832031 -9.609375 7.054688 -9.515625 7.234375 -9.328125 C 7.460938 -9.085938 7.535156 -8.769531 7.453125 -8.375 C 7.359375 -7.96875 6.992188 -7.546875 6.359375 -7.109375 C 5.816406 -6.710938 5.316406 -6.453125 4.859375 -6.328125 Z M 4.859375 -9.234375 "/></g></g></g><g clip-path="url(#23edfa9e6d)"><path fill="#b7b7b7" d="M 8.324219 8.667969 L 8.324219 22.03125 C 8.324219 22.503906 8.632812 23.003906 9.308594 23.394531 C 10.378906 24.015625 12.527344 24.460938 15.007812 24.460938 C 17.492188 24.460938 19.640625 24.015625 20.710938 23.394531 C 21.386719 23.003906 21.691406 22.503906 21.691406 22.03125 C 21.691406 22.03125 21.691406 8.65625 21.691406 8.65625 C 21.6875 8.1875 21.378906 7.691406 20.710938 7.304688 C 19.640625 6.683594 17.492188 6.238281 15.007812 6.238281 C 12.527344 6.238281 10.378906 6.683594 9.308594 7.304688 C 8.632812 7.695312 8.324219 8.195312 8.324219 8.667969 Z M 20.476562 18.964844 C 19.347656 19.515625 17.320312 19.90625 15.007812 19.90625 C 12.695312 19.90625 10.671875 19.515625 9.539062 18.964844 L 9.539062 22.03125 C 9.539062 22.082031 9.597656 22.109375 9.648438 22.15625 C 9.808594 22.300781 10.042969 22.425781 10.335938 22.546875 C 11.390625 22.976562 13.09375 23.246094 15.007812 23.246094 C 16.925781 23.246094 18.628906 22.976562 19.679688 22.546875 C 19.972656 22.425781 20.207031 22.300781 20.367188 22.15625 C 20.417969 22.109375 20.476562 22.082031 20.476562 22.03125 Z M 20.476562 14.710938 C 19.347656 15.265625 17.320312 15.652344 15.007812 15.652344 C 12.695312 15.652344 10.671875 15.265625 9.539062 14.710938 L 9.539062 17.476562 C 9.542969 17.527344 9.601562 17.554688 9.652344 17.601562 C 9.8125 17.746094 10.050781 17.871094 10.34375 17.992188 C 11.394531 18.421875 13.09375 18.691406 15.007812 18.691406 C 16.925781 18.691406 18.628906 18.421875 19.679688 17.988281 C 19.972656 17.871094 20.207031 17.742188 20.367188 17.601562 C 20.417969 17.554688 20.476562 17.527344 20.476562 17.476562 Z M 20.476562 10.152344 C 19.347656 10.707031 17.320312 11.097656 15.007812 11.097656 C 12.695312 11.097656 10.671875 10.707031 9.539062 10.152344 L 9.539062 13.222656 C 9.542969 13.273438 9.601562 13.304688 9.652344 13.351562 C 9.8125 13.492188 10.050781 13.621094 10.34375 13.738281 C 11.394531 14.167969 13.09375 14.4375 15.007812 14.4375 C 16.925781 14.4375 18.628906 14.167969 19.679688 13.738281 C 19.972656 13.617188 20.207031 13.492188 20.367188 13.347656 C 20.417969 13.300781 20.476562 13.273438 20.476562 13.222656 Z M 15.007812 7.453125 C 16.925781 7.453125 18.628906 7.722656 19.679688 8.152344 C 19.972656 8.273438 20.207031 8.398438 20.367188 8.542969 C 20.417969 8.589844 20.476562 8.617188 20.476562 8.667969 C 20.476562 8.71875 20.417969 8.746094 20.367188 8.792969 C 20.207031 8.933594 19.972656 9.0625 19.679688 9.179688 C 18.628906 9.613281 16.925781 9.882812 15.007812 9.882812 C 13.09375 9.882812 11.390625 9.613281 10.335938 9.179688 C 10.042969 9.0625 9.808594 8.933594 9.648438 8.792969 C 9.597656 8.746094 9.539062 8.71875 9.539062 8.667969 C 9.539062 8.617188 9.597656 8.589844 9.648438 8.542969 C 9.808594 8.398438 10.042969 8.273438 10.335938 8.152344 C 11.390625 7.722656 13.09375 7.453125 15.007812 7.453125 Z M 15.007812 7.453125 " fill-opacity="1" fill-rule="evenodd"/></g></svg>