<svg xmlns="http://www.w3.org/2000/svg" xmlns:xlink="http://www.w3.org/1999/xlink" width="198" zoomAndPan="magnify" viewBox="0 0 148.5 31.5" height="42" preserveAspectRatio="xMidYMid meet" version="1.0"><defs><g/><clipPath id="57b9e79f24"><path d="M 6.046875 7.015625 L 23 7.015625 L 23 23.992188 L 6.046875 23.992188 Z M 6.046875 7.015625 " clip-rule="nonzero"/></clipPath></defs><g fill="#b7b7b7" fill-opacity="1"><g transform="translate(26.385471, 20.923634)"><g><path d="M 6.9375 -2.953125 C 6.78125 -2.453125 6.472656 -2.023438 6.015625 -1.671875 C 5.566406 -1.304688 5.113281 -1.125 4.65625 -1.125 C 4.769531 -1.125 4.914062 -1.15625 5.09375 -1.21875 C 5.3125 -1.300781 5.539062 -1.414062 5.78125 -1.5625 C 6.039062 -1.738281 6.28125 -1.957031 6.5 -2.21875 C 6.664062 -2.445312 6.8125 -2.691406 6.9375 -2.953125 Z M 8.515625 -10.9375 C 8.453125 -10.925781 8.242188 -10.914062 7.890625 -10.90625 C 7.617188 -10.894531 7.394531 -10.890625 7.21875 -10.890625 L 6.46875 -10.90625 C 6.707031 -10.945312 7.101562 -10.96875 7.65625 -10.96875 C 8.175781 -10.96875 8.460938 -10.957031 8.515625 -10.9375 Z M 4.59375 -9.125 C 4.632812 -8.34375 4.632812 -7.46875 4.59375 -6.5 C 4.539062 -4.9375 4.363281 -3.96875 4.0625 -3.59375 C 3.625 -3.101562 3.195312 -2.878906 2.78125 -2.921875 C 2.382812 -2.960938 2.039062 -3.210938 1.75 -3.671875 C 1.65625 -3.828125 1.5625 -3.929688 1.46875 -3.984375 C 1.382812 -4.023438 1.320312 -4.019531 1.28125 -3.96875 C 1.238281 -3.9375 1.21875 -3.882812 1.21875 -3.8125 C 1.21875 -3.769531 1.234375 -3.675781 1.265625 -3.53125 L 1.296875 -3.34375 L 1.421875 -2.625 C 1.515625 -2.125 1.75 -1.710938 2.125 -1.390625 C 2.445312 -1.117188 2.847656 -0.929688 3.328125 -0.828125 C 4.222656 -0.671875 5.03125 -0.769531 5.75 -1.125 C 6.925781 -1.707031 7.515625 -2.914062 7.515625 -4.75 L 7.5 -9.125 L 9.28125 -9.125 C 9.332031 -9.125 9.367188 -9.132812 9.390625 -9.15625 C 9.398438 -9.15625 9.40625 -9.179688 9.40625 -9.234375 L 9.421875 -9.25 C 9.398438 -9.289062 9.382812 -9.328125 9.375 -9.359375 C 9.363281 -9.398438 9.367188 -9.441406 9.390625 -9.484375 L 9.390625 -9.609375 L 9.40625 -9.796875 C 9.40625 -9.816406 9.398438 -9.828125 9.390625 -9.828125 C 9.390625 -9.835938 9.378906 -9.84375 9.359375 -9.84375 L 9.34375 -9.859375 L 9.359375 -9.890625 L 9.40625 -9.9375 L 9.375 -9.953125 C 9.363281 -9.960938 9.359375 -9.96875 9.359375 -9.96875 C 9.347656 -9.976562 9.347656 -9.984375 9.359375 -9.984375 L 9.421875 -10.3125 C 9.421875 -10.320312 9.410156 -10.335938 9.390625 -10.359375 C 9.367188 -10.378906 9.359375 -10.390625 9.359375 -10.390625 C 9.359375 -10.390625 9.367188 -10.394531 9.390625 -10.40625 C 9.410156 -10.414062 9.421875 -10.421875 9.421875 -10.421875 C 9.421875 -10.441406 9.410156 -10.453125 9.390625 -10.453125 C 9.335938 -10.441406 9.328125 -10.4375 9.359375 -10.4375 L 9.40625 -10.5 L 9.4375 -10.5 C 9.4375 -10.519531 9.4375 -10.53125 9.4375 -10.53125 C 9.425781 -10.539062 9.414062 -10.546875 9.40625 -10.546875 L 9.390625 -10.5625 L 9.4375 -10.671875 L 9.359375 -10.6875 L 9.390625 -10.765625 C 9.410156 -10.773438 9.421875 -10.785156 9.421875 -10.796875 C 9.421875 -10.804688 9.421875 -10.8125 9.421875 -10.8125 L 9.359375 -10.890625 L 9.390625 -11.0625 L 9.421875 -11.109375 L 9.390625 -11.140625 L 9.359375 -11.1875 L 9.40625 -11.265625 L 9.359375 -11.390625 C 9.359375 -11.390625 9.363281 -11.398438 9.375 -11.421875 C 9.382812 -11.453125 9.390625 -11.472656 9.390625 -11.484375 C 9.390625 -11.515625 9.382812 -11.535156 9.375 -11.546875 C 9.363281 -11.554688 9.347656 -11.5625 9.328125 -11.5625 L 2.65625 -11.5625 L 2.625 -11.546875 C 2.601562 -11.515625 2.582031 -11.492188 2.5625 -11.484375 C 2.539062 -11.441406 2.53125 -11.398438 2.53125 -11.359375 L 2.53125 -11.125 L 2.4375 -11.125 C 2.414062 -11.125 2.40625 -11.125 2.40625 -11.125 C 2.414062 -11.125 2.425781 -11.117188 2.4375 -11.109375 C 2.46875 -11.109375 2.488281 -11.101562 2.5 -11.09375 C 2.53125 -11.09375 2.546875 -11.082031 2.546875 -11.0625 L 2.40625 -11.015625 C 2.40625 -11.003906 2.410156 -10.992188 2.421875 -10.984375 C 2.421875 -10.984375 2.4375 -10.976562 2.46875 -10.96875 L 2.515625 -10.9375 L 2.53125 -10.84375 L 2.546875 -10.8125 C 2.546875 -10.8125 2.539062 -10.804688 2.53125 -10.796875 C 2.519531 -10.796875 2.507812 -10.789062 2.5 -10.78125 L 2.453125 -10.75 C 2.429688 -10.75 2.425781 -10.742188 2.4375 -10.734375 C 2.445312 -10.722656 2.460938 -10.71875 2.484375 -10.71875 L 2.515625 -10.6875 C 2.515625 -10.675781 2.5 -10.664062 2.46875 -10.65625 C 2.457031 -10.65625 2.429688 -10.648438 2.390625 -10.640625 L 2.359375 -10.609375 C 2.398438 -10.609375 2.4375 -10.601562 2.46875 -10.59375 C 2.5 -10.582031 2.515625 -10.5625 2.515625 -10.53125 L 2.453125 -10.40625 L 2.515625 -10.40625 L 2.484375 -10.34375 L 2.453125 -10.265625 L 2.46875 -10.25 L 2.53125 -10.203125 C 2.53125 -10.191406 2.523438 -10.1875 2.515625 -10.1875 C 2.515625 -10.1875 2.507812 -10.179688 2.5 -10.171875 C 2.488281 -10.171875 2.476562 -10.171875 2.46875 -10.171875 C 2.46875 -10.160156 2.46875 -10.144531 2.46875 -10.125 L 2.546875 -10.03125 L 2.46875 -9.984375 L 2.546875 -9.90625 L 2.484375 -9.8125 L 2.5 -9.8125 L 2.53125 -9.765625 C 2.53125 -9.765625 2.519531 -9.757812 2.5 -9.75 C 2.488281 -9.75 2.472656 -9.742188 2.453125 -9.734375 L 2.40625 -9.703125 L 2.546875 -9.609375 L 2.453125 -9.578125 L 2.484375 -9.5625 L 2.53125 -9.53125 C 2.53125 -9.519531 2.519531 -9.507812 2.5 -9.5 C 2.488281 -9.476562 2.484375 -9.46875 2.484375 -9.46875 C 2.492188 -9.351562 2.546875 -9.265625 2.640625 -9.203125 C 2.734375 -9.148438 2.851562 -9.125 3 -9.125 Z M 8.953125 -11.1875 C 8.890625 -11.164062 8.722656 -11.15625 8.453125 -11.15625 C 8.296875 -11.15625 8.070312 -11.15625 7.78125 -11.15625 L 6.1875 -11.15625 C 6.4375 -11.195312 6.945312 -11.21875 7.71875 -11.21875 C 8.46875 -11.226562 8.878906 -11.21875 8.953125 -11.1875 Z M 8.953125 -11.1875 "/></g></g></g><g fill="#b7b7b7" fill-opacity="1"><g transform="translate(37.698549, 20.923634)"><g><path d="M 2.609375 -8.5625 C 2.398438 -8.113281 2.25 -7.40625 2.15625 -6.4375 C 2.082031 -5.632812 2.070312 -5.046875 2.125 -4.671875 C 2.09375 -4.703125 2.066406 -4.945312 2.046875 -5.40625 C 2.023438 -5.90625 2.039062 -6.304688 2.09375 -6.609375 C 2.113281 -6.910156 2.160156 -7.203125 2.234375 -7.484375 C 2.328125 -7.960938 2.453125 -8.320312 2.609375 -8.5625 Z M 8.0625 -5.234375 C 7.96875 -4.628906 7.800781 -4.015625 7.5625 -3.390625 C 7.394531 -2.972656 7.257812 -2.6875 7.15625 -2.53125 L 7.140625 -2.515625 C 7.109375 -2.460938 7.082031 -2.421875 7.0625 -2.390625 C 7.03125 -2.347656 7 -2.304688 6.96875 -2.265625 C 6.78125 -2.085938 6.679688 -1.976562 6.671875 -1.9375 C 6.660156 -1.90625 6.707031 -1.894531 6.8125 -1.90625 L 6.921875 -1.90625 C 7.054688 -1.90625 7.222656 -1.863281 7.421875 -1.78125 C 7.640625 -1.675781 7.832031 -1.546875 8 -1.390625 C 8.101562 -1.273438 8.226562 -1.179688 8.375 -1.109375 C 8.550781 -1.015625 8.75 -0.976562 8.96875 -1 C 9.082031 -1.019531 9.226562 -1.117188 9.40625 -1.296875 C 9.550781 -1.460938 9.703125 -1.671875 9.859375 -1.921875 C 10.265625 -2.535156 10.566406 -3.332031 10.765625 -4.3125 C 10.984375 -5.34375 11.035156 -6.347656 10.921875 -7.328125 C 10.785156 -8.429688 10.453125 -9.363281 9.921875 -10.125 C 9.304688 -10.976562 8.460938 -11.539062 7.390625 -11.8125 C 6.679688 -12 5.960938 -12.035156 5.234375 -11.921875 C 4.421875 -11.796875 3.828125 -11.519531 3.453125 -11.09375 C 3.015625 -10.570312 2.65625 -9.945312 2.375 -9.21875 C 1.90625 -8.019531 1.703125 -6.6875 1.765625 -5.21875 C 1.816406 -3.9375 1.953125 -2.953125 2.171875 -2.265625 C 2.335938 -1.734375 2.488281 -1.484375 2.625 -1.515625 C 2.601562 -1.515625 2.613281 -1.515625 2.65625 -1.515625 C 2.6875 -1.515625 2.71875 -1.515625 2.75 -1.515625 L 2.859375 -1.46875 L 2.859375 -1.53125 L 2.875 -1.578125 C 2.882812 -1.578125 2.898438 -1.570312 2.921875 -1.5625 C 2.929688 -1.539062 2.945312 -1.519531 2.96875 -1.5 L 3.015625 -1.453125 C 3.023438 -1.453125 3.03125 -1.460938 3.03125 -1.484375 C 3.03125 -1.492188 3.023438 -1.515625 3.015625 -1.546875 C 3.003906 -1.578125 3 -1.597656 3 -1.609375 C 3 -1.628906 3.007812 -1.640625 3.03125 -1.640625 C 3.019531 -1.640625 3.035156 -1.617188 3.078125 -1.578125 C 3.117188 -1.535156 3.148438 -1.515625 3.171875 -1.515625 C 3.203125 -1.523438 3.21875 -1.550781 3.21875 -1.59375 C 3.226562 -1.632812 3.234375 -1.65625 3.234375 -1.65625 C 3.242188 -1.65625 3.25 -1.65625 3.25 -1.65625 C 3.257812 -1.65625 3.265625 -1.648438 3.265625 -1.640625 C 3.265625 -1.617188 3.269531 -1.601562 3.28125 -1.59375 C 3.289062 -1.582031 3.316406 -1.570312 3.359375 -1.5625 C 3.367188 -1.5625 3.378906 -1.566406 3.390625 -1.578125 C 3.398438 -1.585938 3.410156 -1.601562 3.421875 -1.625 C 3.429688 -1.65625 3.4375 -1.675781 3.4375 -1.6875 C 3.445312 -1.695312 3.460938 -1.695312 3.484375 -1.6875 L 3.53125 -1.640625 C 3.539062 -1.628906 3.550781 -1.617188 3.5625 -1.609375 C 3.570312 -1.597656 3.585938 -1.585938 3.609375 -1.578125 C 3.617188 -1.578125 3.628906 -1.582031 3.640625 -1.59375 C 3.640625 -1.601562 3.644531 -1.625 3.65625 -1.65625 C 3.65625 -1.664062 3.65625 -1.675781 3.65625 -1.6875 C 3.664062 -1.695312 3.679688 -1.703125 3.703125 -1.703125 C 3.710938 -1.703125 3.726562 -1.695312 3.75 -1.6875 C 3.757812 -1.675781 3.78125 -1.660156 3.8125 -1.640625 L 3.875 -1.59375 C 3.882812 -1.59375 3.894531 -1.601562 3.90625 -1.625 C 3.90625 -1.625 3.90625 -1.632812 3.90625 -1.65625 C 3.90625 -1.664062 3.90625 -1.675781 3.90625 -1.6875 C 3.90625 -1.695312 3.910156 -1.703125 3.921875 -1.703125 C 3.941406 -1.710938 3.957031 -1.703125 3.96875 -1.671875 C 3.976562 -1.648438 3.992188 -1.613281 4.015625 -1.5625 C 4.023438 -1.507812 4.03125 -1.476562 4.03125 -1.46875 C 4.050781 -1.445312 4.066406 -1.4375 4.078125 -1.4375 C 4.078125 -1.445312 4.078125 -1.460938 4.078125 -1.484375 C 4.078125 -1.503906 4.070312 -1.535156 4.0625 -1.578125 C 4.050781 -1.628906 4.046875 -1.664062 4.046875 -1.6875 C 4.035156 -1.71875 4.039062 -1.738281 4.0625 -1.75 L 4.0625 -1.734375 C 4.070312 -1.710938 4.082031 -1.695312 4.09375 -1.6875 C 4.113281 -1.664062 4.140625 -1.65625 4.171875 -1.65625 L 4.1875 -1.71875 C 4.1875 -1.738281 4.191406 -1.75 4.203125 -1.75 C 4.203125 -1.757812 4.210938 -1.765625 4.234375 -1.765625 L 4.296875 -1.703125 C 4.316406 -1.679688 4.328125 -1.664062 4.328125 -1.65625 C 4.347656 -1.632812 4.363281 -1.625 4.375 -1.625 C 4.382812 -1.625 4.390625 -1.632812 4.390625 -1.65625 C 4.398438 -1.675781 4.40625 -1.695312 4.40625 -1.71875 L 4.421875 -1.75 C 4.429688 -1.757812 4.460938 -1.757812 4.515625 -1.75 C 4.535156 -1.738281 4.570312 -1.722656 4.625 -1.703125 C 4.695312 -1.671875 4.75 -1.65625 4.78125 -1.65625 C 4.820312 -1.644531 4.84375 -1.644531 4.84375 -1.65625 L 4.828125 -1.6875 C 4.742188 -2.132812 4.679688 -2.554688 4.640625 -2.953125 C 4.566406 -3.679688 4.546875 -4.441406 4.578125 -5.234375 Z M 4.8125 -7.734375 C 4.914062 -8.253906 5.0625 -8.703125 5.25 -9.078125 C 5.394531 -9.359375 5.484375 -9.5 5.515625 -9.5 C 6.097656 -9.601562 6.570312 -9.5625 6.9375 -9.375 C 7.269531 -9.1875 7.535156 -8.859375 7.734375 -8.390625 L 7.96875 -7.734375 Z M 8.578125 -6.0625 L 8.578125 -6.265625 C 8.585938 -6.546875 8.582031 -6.765625 8.5625 -6.921875 C 8.539062 -7.171875 8.488281 -7.472656 8.40625 -7.828125 C 8.601562 -7.460938 8.679688 -6.816406 8.640625 -5.890625 C 8.597656 -5.023438 8.484375 -4.414062 8.296875 -4.0625 C 8.347656 -4.238281 8.398438 -4.488281 8.453125 -4.8125 C 8.523438 -5.257812 8.566406 -5.675781 8.578125 -6.0625 Z M 8.578125 -6.0625 "/></g></g></g><g fill="#b7b7b7" fill-opacity="1"><g transform="translate(50.268638, 20.923634)"><g><path d="M 11.296875 -10.5 C 11.359375 -10.675781 11.269531 -10.828125 11.03125 -10.953125 C 10.875 -11.035156 10.609375 -11.117188 10.234375 -11.203125 L 10 -11.265625 C 9.914062 -11.296875 9.828125 -11.332031 9.734375 -11.375 C 9.679688 -11.394531 9.597656 -11.429688 9.484375 -11.484375 C 9.222656 -11.609375 9.039062 -11.675781 8.9375 -11.6875 C 8.757812 -11.695312 8.628906 -11.617188 8.546875 -11.453125 C 8.421875 -11.234375 8 -10.070312 7.28125 -7.96875 C 6.5625 -5.894531 6.210938 -4.859375 6.234375 -4.859375 C 6.242188 -4.859375 5.882812 -5.898438 5.15625 -7.984375 C 4.394531 -10.097656 3.941406 -11.265625 3.796875 -11.484375 C 3.703125 -11.628906 3.503906 -11.664062 3.203125 -11.59375 C 2.984375 -11.539062 2.8125 -11.472656 2.6875 -11.390625 L 2.609375 -11.4375 C 2.597656 -11.457031 2.585938 -11.46875 2.578125 -11.46875 C 2.566406 -11.476562 2.554688 -11.476562 2.546875 -11.46875 L 2.546875 -11.421875 C 2.566406 -11.367188 2.578125 -11.335938 2.578125 -11.328125 C 2.578125 -11.285156 2.566406 -11.269531 2.546875 -11.28125 C 2.515625 -11.28125 2.488281 -11.300781 2.46875 -11.34375 C 2.445312 -11.382812 2.441406 -11.40625 2.453125 -11.40625 C 2.421875 -11.40625 2.394531 -11.382812 2.375 -11.34375 C 2.363281 -11.300781 2.359375 -11.269531 2.359375 -11.25 C 2.367188 -11.226562 2.363281 -11.222656 2.34375 -11.234375 C 2.320312 -11.234375 2.296875 -11.242188 2.265625 -11.265625 L 2.203125 -11.28125 L 2.1875 -11.203125 C 2.195312 -11.160156 2.195312 -11.132812 2.1875 -11.125 C 2.1875 -11.113281 2.175781 -11.113281 2.15625 -11.125 C 2.132812 -11.125 2.117188 -11.128906 2.109375 -11.140625 C 2.097656 -11.148438 2.085938 -11.164062 2.078125 -11.1875 L 2.078125 -11.203125 C 2.054688 -11.203125 2.046875 -11.191406 2.046875 -11.171875 C 2.035156 -11.140625 2.039062 -11.097656 2.0625 -11.046875 C 2.0625 -11.035156 2.050781 -11.03125 2.03125 -11.03125 C 2.019531 -11.039062 2 -11.054688 1.96875 -11.078125 L 1.890625 -11.125 L 1.828125 -11.03125 L 1.734375 -11.046875 C 1.703125 -11.078125 1.679688 -11.078125 1.671875 -11.046875 C 1.660156 -11.023438 1.65625 -10.988281 1.65625 -10.9375 C 1.632812 -10.9375 1.613281 -10.9375 1.59375 -10.9375 C 1.570312 -10.945312 1.550781 -10.957031 1.53125 -10.96875 L 1.5 -10.984375 L 1.484375 -10.84375 L 1.375 -10.890625 C 1.351562 -10.890625 1.335938 -10.882812 1.328125 -10.875 C 1.328125 -10.875 1.332031 -10.863281 1.34375 -10.84375 C 1.351562 -10.832031 1.359375 -10.820312 1.359375 -10.8125 C 1.359375 -10.789062 1.347656 -10.769531 1.328125 -10.75 L 1.265625 -10.8125 C 1.265625 -10.8125 1.257812 -10.796875 1.25 -10.765625 C 1.238281 -10.734375 1.226562 -10.71875 1.21875 -10.71875 C 1.195312 -10.71875 1.164062 -10.71875 1.125 -10.71875 C 1.070312 -10.695312 1.039062 -10.675781 1.03125 -10.65625 C 1.03125 -10.476562 1.429688 -9.257812 2.234375 -7 C 3.078125 -4.59375 3.671875 -3.132812 4.015625 -2.625 C 4.316406 -2.1875 4.65625 -1.847656 5.03125 -1.609375 C 5.382812 -1.378906 5.769531 -1.265625 6.1875 -1.265625 C 6.757812 -1.265625 7.21875 -1.394531 7.5625 -1.65625 C 7.882812 -1.875 8.203125 -2.253906 8.515625 -2.796875 C 8.703125 -3.171875 9.144531 -4.34375 9.84375 -6.3125 C 10.21875 -7.34375 10.660156 -8.632812 11.171875 -10.1875 Z M 11.296875 -10.5 "/></g></g></g><g fill="#b7b7b7" fill-opacity="1"><g transform="translate(62.838726, 20.923634)"><g><path d="M 2.609375 -8.5625 C 2.398438 -8.113281 2.25 -7.40625 2.15625 -6.4375 C 2.082031 -5.632812 2.070312 -5.046875 2.125 -4.671875 C 2.09375 -4.703125 2.066406 -4.945312 2.046875 -5.40625 C 2.023438 -5.90625 2.039062 -6.304688 2.09375 -6.609375 C 2.113281 -6.910156 2.160156 -7.203125 2.234375 -7.484375 C 2.328125 -7.960938 2.453125 -8.320312 2.609375 -8.5625 Z M 8.0625 -5.234375 C 7.96875 -4.628906 7.800781 -4.015625 7.5625 -3.390625 C 7.394531 -2.972656 7.257812 -2.6875 7.15625 -2.53125 L 7.140625 -2.515625 C 7.109375 -2.460938 7.082031 -2.421875 7.0625 -2.390625 C 7.03125 -2.347656 7 -2.304688 6.96875 -2.265625 C 6.78125 -2.085938 6.679688 -1.976562 6.671875 -1.9375 C 6.660156 -1.90625 6.707031 -1.894531 6.8125 -1.90625 L 6.921875 -1.90625 C 7.054688 -1.90625 7.222656 -1.863281 7.421875 -1.78125 C 7.640625 -1.675781 7.832031 -1.546875 8 -1.390625 C 8.101562 -1.273438 8.226562 -1.179688 8.375 -1.109375 C 8.550781 -1.015625 8.75 -0.976562 8.96875 -1 C 9.082031 -1.019531 9.226562 -1.117188 9.40625 -1.296875 C 9.550781 -1.460938 9.703125 -1.671875 9.859375 -1.921875 C 10.265625 -2.535156 10.566406 -3.332031 10.765625 -4.3125 C 10.984375 -5.34375 11.035156 -6.347656 10.921875 -7.328125 C 10.785156 -8.429688 10.453125 -9.363281 9.921875 -10.125 C 9.304688 -10.976562 8.460938 -11.539062 7.390625 -11.8125 C 6.679688 -12 5.960938 -12.035156 5.234375 -11.921875 C 4.421875 -11.796875 3.828125 -11.519531 3.453125 -11.09375 C 3.015625 -10.570312 2.65625 -9.945312 2.375 -9.21875 C 1.90625 -8.019531 1.703125 -6.6875 1.765625 -5.21875 C 1.816406 -3.9375 1.953125 -2.953125 2.171875 -2.265625 C 2.335938 -1.734375 2.488281 -1.484375 2.625 -1.515625 C 2.601562 -1.515625 2.613281 -1.515625 2.65625 -1.515625 C 2.6875 -1.515625 2.71875 -1.515625 2.75 -1.515625 L 2.859375 -1.46875 L 2.859375 -1.53125 L 2.875 -1.578125 C 2.882812 -1.578125 2.898438 -1.570312 2.921875 -1.5625 C 2.929688 -1.539062 2.945312 -1.519531 2.96875 -1.5 L 3.015625 -1.453125 C 3.023438 -1.453125 3.03125 -1.460938 3.03125 -1.484375 C 3.03125 -1.492188 3.023438 -1.515625 3.015625 -1.546875 C 3.003906 -1.578125 3 -1.597656 3 -1.609375 C 3 -1.628906 3.007812 -1.640625 3.03125 -1.640625 C 3.019531 -1.640625 3.035156 -1.617188 3.078125 -1.578125 C 3.117188 -1.535156 3.148438 -1.515625 3.171875 -1.515625 C 3.203125 -1.523438 3.21875 -1.550781 3.21875 -1.59375 C 3.226562 -1.632812 3.234375 -1.65625 3.234375 -1.65625 C 3.242188 -1.65625 3.25 -1.65625 3.25 -1.65625 C 3.257812 -1.65625 3.265625 -1.648438 3.265625 -1.640625 C 3.265625 -1.617188 3.269531 -1.601562 3.28125 -1.59375 C 3.289062 -1.582031 3.316406 -1.570312 3.359375 -1.5625 C 3.367188 -1.5625 3.378906 -1.566406 3.390625 -1.578125 C 3.398438 -1.585938 3.410156 -1.601562 3.421875 -1.625 C 3.429688 -1.65625 3.4375 -1.675781 3.4375 -1.6875 C 3.445312 -1.695312 3.460938 -1.695312 3.484375 -1.6875 L 3.53125 -1.640625 C 3.539062 -1.628906 3.550781 -1.617188 3.5625 -1.609375 C 3.570312 -1.597656 3.585938 -1.585938 3.609375 -1.578125 C 3.617188 -1.578125 3.628906 -1.582031 3.640625 -1.59375 C 3.640625 -1.601562 3.644531 -1.625 3.65625 -1.65625 C 3.65625 -1.664062 3.65625 -1.675781 3.65625 -1.6875 C 3.664062 -1.695312 3.679688 -1.703125 3.703125 -1.703125 C 3.710938 -1.703125 3.726562 -1.695312 3.75 -1.6875 C 3.757812 -1.675781 3.78125 -1.660156 3.8125 -1.640625 L 3.875 -1.59375 C 3.882812 -1.59375 3.894531 -1.601562 3.90625 -1.625 C 3.90625 -1.625 3.90625 -1.632812 3.90625 -1.65625 C 3.90625 -1.664062 3.90625 -1.675781 3.90625 -1.6875 C 3.90625 -1.695312 3.910156 -1.703125 3.921875 -1.703125 C 3.941406 -1.710938 3.957031 -1.703125 3.96875 -1.671875 C 3.976562 -1.648438 3.992188 -1.613281 4.015625 -1.5625 C 4.023438 -1.507812 4.03125 -1.476562 4.03125 -1.46875 C 4.050781 -1.445312 4.066406 -1.4375 4.078125 -1.4375 C 4.078125 -1.445312 4.078125 -1.460938 4.078125 -1.484375 C 4.078125 -1.503906 4.070312 -1.535156 4.0625 -1.578125 C 4.050781 -1.628906 4.046875 -1.664062 4.046875 -1.6875 C 4.035156 -1.71875 4.039062 -1.738281 4.0625 -1.75 L 4.0625 -1.734375 C 4.070312 -1.710938 4.082031 -1.695312 4.09375 -1.6875 C 4.113281 -1.664062 4.140625 -1.65625 4.171875 -1.65625 L 4.1875 -1.71875 C 4.1875 -1.738281 4.191406 -1.75 4.203125 -1.75 C 4.203125 -1.757812 4.210938 -1.765625 4.234375 -1.765625 L 4.296875 -1.703125 C 4.316406 -1.679688 4.328125 -1.664062 4.328125 -1.65625 C 4.347656 -1.632812 4.363281 -1.625 4.375 -1.625 C 4.382812 -1.625 4.390625 -1.632812 4.390625 -1.65625 C 4.398438 -1.675781 4.40625 -1.695312 4.40625 -1.71875 L 4.421875 -1.75 C 4.429688 -1.757812 4.460938 -1.757812 4.515625 -1.75 C 4.535156 -1.738281 4.570312 -1.722656 4.625 -1.703125 C 4.695312 -1.671875 4.75 -1.65625 4.78125 -1.65625 C 4.820312 -1.644531 4.84375 -1.644531 4.84375 -1.65625 L 4.828125 -1.6875 C 4.742188 -2.132812 4.679688 -2.554688 4.640625 -2.953125 C 4.566406 -3.679688 4.546875 -4.441406 4.578125 -5.234375 Z M 4.8125 -7.734375 C 4.914062 -8.253906 5.0625 -8.703125 5.25 -9.078125 C 5.394531 -9.359375 5.484375 -9.5 5.515625 -9.5 C 6.097656 -9.601562 6.570312 -9.5625 6.9375 -9.375 C 7.269531 -9.1875 7.535156 -8.859375 7.734375 -8.390625 L 7.96875 -7.734375 Z M 8.578125 -6.0625 L 8.578125 -6.265625 C 8.585938 -6.546875 8.582031 -6.765625 8.5625 -6.921875 C 8.539062 -7.171875 8.488281 -7.472656 8.40625 -7.828125 C 8.601562 -7.460938 8.679688 -6.816406 8.640625 -5.890625 C 8.597656 -5.023438 8.484375 -4.414062 8.296875 -4.0625 C 8.347656 -4.238281 8.398438 -4.488281 8.453125 -4.8125 C 8.523438 -5.257812 8.566406 -5.675781 8.578125 -6.0625 Z M 8.578125 -6.0625 "/></g></g></g><g fill="#b7b7b7" fill-opacity="1"><g transform="translate(75.408815, 20.923634)"><g><path d="M 8.6875 -10.078125 L 8.578125 -10.09375 L 8.640625 -10.125 L 8.59375 -10.171875 L 8.6875 -10.203125 L 8.59375 -10.234375 L 8.6875 -10.25 L 8.609375 -10.265625 C 8.597656 -10.285156 8.601562 -10.300781 8.625 -10.3125 C 8.625 -10.3125 8.632812 -10.3125 8.65625 -10.3125 L 8.578125 -10.328125 L 8.609375 -10.375 C 8.628906 -10.382812 8.640625 -10.394531 8.640625 -10.40625 C 8.648438 -10.40625 8.65625 -10.40625 8.65625 -10.40625 L 8.59375 -10.5 L 8.640625 -10.609375 L 8.5625 -10.625 C 8.5625 -10.632812 8.5625 -10.644531 8.5625 -10.65625 C 8.570312 -10.65625 8.582031 -10.660156 8.59375 -10.671875 L 8.625 -10.671875 L 8.515625 -10.734375 C 8.515625 -10.753906 8.519531 -10.78125 8.53125 -10.8125 C 8.539062 -10.820312 8.550781 -10.828125 8.5625 -10.828125 L 8.484375 -10.84375 L 8.578125 -10.875 L 8.484375 -10.890625 C 8.484375 -10.890625 8.488281 -10.898438 8.5 -10.921875 C 8.507812 -10.941406 8.515625 -10.957031 8.515625 -10.96875 C 8.492188 -11 8.476562 -11.035156 8.46875 -11.078125 C 8.46875 -11.109375 8.460938 -11.148438 8.453125 -11.203125 C 8.441406 -11.316406 8.425781 -11.394531 8.40625 -11.4375 C 8.375 -11.519531 8.320312 -11.570312 8.25 -11.59375 C 7.550781 -11.78125 6.832031 -11.851562 6.09375 -11.8125 C 5.34375 -11.769531 4.660156 -11.613281 4.046875 -11.34375 C 3.378906 -11.070312 2.859375 -10.691406 2.484375 -10.203125 C 2.066406 -9.679688 1.847656 -9.0625 1.828125 -8.34375 C 1.773438 -7.25 2.316406 -6.425781 3.453125 -5.875 C 4.160156 -5.53125 5 -5.316406 5.96875 -5.234375 C 6.238281 -5.210938 6.425781 -5.164062 6.53125 -5.09375 C 6.625 -5.03125 6.675781 -4.929688 6.6875 -4.796875 C 6.707031 -4.546875 6.546875 -4.304688 6.203125 -4.078125 C 5.828125 -3.816406 5.289062 -3.640625 4.59375 -3.546875 C 4.21875 -3.492188 3.707031 -3.550781 3.0625 -3.71875 C 2.65625 -3.8125 2.210938 -3.945312 1.734375 -4.125 C 1.609375 -4.175781 1.550781 -4.15625 1.5625 -4.0625 C 1.570312 -3.988281 1.632812 -3.875 1.75 -3.71875 C 1.851562 -3.59375 1.9375 -3.429688 2 -3.234375 C 2.039062 -3.117188 2.09375 -2.953125 2.15625 -2.734375 L 2.1875 -2.640625 C 2.28125 -2.296875 2.53125 -2 2.9375 -1.75 C 3.34375 -1.5 3.84375 -1.335938 4.4375 -1.265625 C 5.050781 -1.179688 5.675781 -1.210938 6.3125 -1.359375 C 7.007812 -1.515625 7.65625 -1.785156 8.25 -2.171875 C 8.582031 -2.410156 8.878906 -2.726562 9.140625 -3.125 C 9.429688 -3.539062 9.617188 -3.976562 9.703125 -4.4375 C 9.785156 -4.945312 9.734375 -5.410156 9.546875 -5.828125 C 9.316406 -6.316406 8.925781 -6.710938 8.375 -7.015625 C 8.21875 -7.109375 7.992188 -7.179688 7.703125 -7.234375 C 7.503906 -7.273438 7.207031 -7.320312 6.8125 -7.375 C 5.988281 -7.5 5.441406 -7.625 5.171875 -7.75 C 4.722656 -7.945312 4.613281 -8.242188 4.84375 -8.640625 C 5.039062 -9.015625 5.457031 -9.257812 6.09375 -9.375 C 6.476562 -9.445312 7.085938 -9.488281 7.921875 -9.5 L 8.609375 -9.5 L 8.609375 -9.53125 C 8.609375 -9.550781 8.609375 -9.566406 8.609375 -9.578125 C 8.609375 -9.597656 8.613281 -9.609375 8.625 -9.609375 L 8.59375 -9.703125 L 8.59375 -9.734375 C 8.582031 -9.742188 8.578125 -9.75 8.578125 -9.75 C 8.566406 -9.757812 8.566406 -9.765625 8.578125 -9.765625 L 8.609375 -9.8125 L 8.5625 -9.8125 L 8.609375 -9.859375 L 8.546875 -9.859375 C 8.546875 -9.878906 8.550781 -9.890625 8.5625 -9.890625 C 8.570312 -9.890625 8.582031 -9.890625 8.59375 -9.890625 L 8.625 -9.90625 L 8.5625 -9.953125 L 8.640625 -9.984375 L 8.578125 -10.015625 Z M 6.046875 -7.109375 C 5.753906 -7.109375 5.445312 -7.160156 5.125 -7.265625 C 4.550781 -7.460938 4.25 -7.78125 4.21875 -8.21875 C 4.1875 -8.4375 4.234375 -8.640625 4.359375 -8.828125 C 4.492188 -9.046875 4.722656 -9.238281 5.046875 -9.40625 C 4.710938 -9.207031 4.484375 -8.972656 4.359375 -8.703125 C 4.234375 -8.460938 4.222656 -8.222656 4.328125 -7.984375 C 4.421875 -7.742188 4.609375 -7.546875 4.890625 -7.390625 C 5.203125 -7.234375 5.585938 -7.140625 6.046875 -7.109375 Z M 9.34375 -4.59375 C 9.351562 -4.289062 9.28125 -3.972656 9.125 -3.640625 C 9 -3.378906 8.851562 -3.148438 8.6875 -2.953125 C 8.40625 -2.671875 8.109375 -2.4375 7.796875 -2.25 C 7.617188 -2.15625 7.421875 -2.066406 7.203125 -1.984375 L 7.125 -1.953125 L 7.296875 -2.046875 C 7.765625 -2.285156 8.144531 -2.535156 8.4375 -2.796875 C 8.9375 -3.273438 9.238281 -3.875 9.34375 -4.59375 Z M 9.34375 -4.59375 "/></g></g></g><g fill="#b7b7b7" fill-opacity="1"><g transform="translate(86.879021, 20.923634)"><g><path d="M 5.4375 -7.828125 C 5.050781 -7.472656 4.769531 -7.078125 4.59375 -6.640625 C 4.445312 -6.253906 4.378906 -5.863281 4.390625 -5.46875 C 4.398438 -5.125 4.472656 -4.804688 4.609375 -4.515625 C 4.734375 -4.234375 4.882812 -4.023438 5.0625 -3.890625 L 5.015625 -3.921875 C 4.835938 -4.066406 4.695312 -4.238281 4.59375 -4.4375 C 4.394531 -4.789062 4.304688 -5.21875 4.328125 -5.71875 C 4.328125 -6.0625 4.425781 -6.441406 4.625 -6.859375 C 4.851562 -7.316406 5.125 -7.640625 5.4375 -7.828125 Z M 8.375 -1.953125 C 8.28125 -1.847656 8.0625 -1.738281 7.71875 -1.625 C 7.269531 -1.46875 6.753906 -1.382812 6.171875 -1.375 C 5.816406 -1.375 5.472656 -1.421875 5.140625 -1.515625 C 4.742188 -1.628906 4.390625 -1.789062 4.078125 -2 C 4.609375 -1.625 5.351562 -1.445312 6.3125 -1.46875 C 7.226562 -1.476562 7.914062 -1.640625 8.375 -1.953125 Z M 8.515625 -11.5 L 8.40625 -11.640625 C 8.363281 -11.703125 8.328125 -11.742188 8.296875 -11.765625 C 8.242188 -11.773438 8.171875 -11.773438 8.078125 -11.765625 C 7.160156 -11.617188 6.265625 -11.316406 5.390625 -10.859375 C 4.515625 -10.390625 3.769531 -9.804688 3.15625 -9.109375 C 2.5 -8.367188 2.0625 -7.578125 1.84375 -6.734375 C 1.582031 -5.796875 1.609375 -4.847656 1.921875 -3.890625 C 2.179688 -3.046875 2.632812 -2.378906 3.28125 -1.890625 C 3.832031 -1.472656 4.488281 -1.203125 5.25 -1.078125 C 5.882812 -0.984375 6.535156 -0.988281 7.203125 -1.09375 C 7.765625 -1.195312 8.195312 -1.335938 8.5 -1.515625 C 8.800781 -1.722656 9.035156 -1.9375 9.203125 -2.15625 C 9.296875 -2.289062 9.394531 -2.484375 9.5 -2.734375 L 9.640625 -3.015625 C 9.648438 -3.054688 9.660156 -3.109375 9.671875 -3.171875 C 9.679688 -3.203125 9.6875 -3.25 9.6875 -3.3125 L 9.71875 -3.5 L 9.828125 -3.671875 C 9.847656 -3.710938 9.863281 -3.742188 9.875 -3.765625 C 9.90625 -3.796875 9.925781 -3.828125 9.9375 -3.859375 L 9.9375 -4.015625 L 9.96875 -4.1875 L 10.03125 -4.40625 L 10.125 -4.59375 L 10.40625 -5.09375 C 10.5 -5.257812 10.410156 -5.257812 10.140625 -5.09375 C 9.878906 -4.925781 9.488281 -4.632812 8.96875 -4.21875 C 8.644531 -3.957031 8.238281 -3.765625 7.75 -3.640625 C 7.238281 -3.503906 6.757812 -3.488281 6.3125 -3.59375 C 5.820312 -3.707031 5.460938 -3.957031 5.234375 -4.34375 C 4.941406 -4.769531 4.851562 -5.347656 4.96875 -6.078125 C 5.070312 -6.878906 5.625 -7.628906 6.625 -8.328125 C 7.332031 -8.816406 8.222656 -9.253906 9.296875 -9.640625 L 9.28125 -9.6875 C 9.269531 -9.707031 9.257812 -9.722656 9.25 -9.734375 C 9.25 -9.742188 9.253906 -9.753906 9.265625 -9.765625 L 9.21875 -9.9375 C 9.21875 -9.945312 9.207031 -9.953125 9.1875 -9.953125 C 9.164062 -9.953125 9.15625 -9.953125 9.15625 -9.953125 L 9.1875 -10.0625 L 9.125 -10.0625 L 9.15625 -10.15625 L 9.140625 -10.15625 C 9.128906 -10.15625 9.125 -10.15625 9.125 -10.15625 C 9.113281 -10.15625 9.109375 -10.15625 9.109375 -10.15625 C 9.097656 -10.164062 9.09375 -10.175781 9.09375 -10.1875 C 9.09375 -10.1875 9.097656 -10.191406 9.109375 -10.203125 L 9.140625 -10.234375 L 9.0625 -10.25 L 9.140625 -10.3125 L 9.0625 -10.328125 L 9.140625 -10.4375 L 9.03125 -10.421875 L 9.109375 -10.5 C 9.085938 -10.5 9.070312 -10.503906 9.0625 -10.515625 C 9.039062 -10.515625 9.03125 -10.519531 9.03125 -10.53125 L 9.109375 -10.609375 L 9 -10.578125 L 9.078125 -10.671875 L 9 -10.65625 C 8.988281 -10.664062 8.992188 -10.679688 9.015625 -10.703125 C 9.035156 -10.722656 9.050781 -10.734375 9.0625 -10.734375 C 9.070312 -10.734375 9.050781 -10.734375 9 -10.734375 C 8.96875 -10.734375 8.953125 -10.734375 8.953125 -10.734375 C 8.941406 -10.742188 8.9375 -10.753906 8.9375 -10.765625 C 8.945312 -10.773438 8.957031 -10.785156 8.96875 -10.796875 C 8.976562 -10.816406 8.988281 -10.832031 9 -10.84375 C 9 -10.851562 9 -10.859375 9 -10.859375 L 8.828125 -11.03125 L 8.828125 -11.046875 C 8.847656 -11.054688 8.859375 -11.0625 8.859375 -11.0625 C 8.867188 -11.070312 8.875 -11.082031 8.875 -11.09375 L 8.78125 -11.09375 L 8.796875 -11.125 C 8.796875 -11.132812 8.800781 -11.140625 8.8125 -11.140625 C 8.8125 -11.148438 8.8125 -11.160156 8.8125 -11.171875 L 8.671875 -11.234375 C 8.660156 -11.253906 8.660156 -11.285156 8.671875 -11.328125 C 8.679688 -11.347656 8.691406 -11.359375 8.703125 -11.359375 L 8.578125 -11.328125 L 8.65625 -11.40625 L 8.515625 -11.390625 C 8.515625 -11.390625 8.519531 -11.40625 8.53125 -11.4375 C 8.550781 -11.46875 8.546875 -11.488281 8.515625 -11.5 Z M 8.515625 -11.5 "/></g></g></g><g fill="#b7b7b7" fill-opacity="1"><g transform="translate(98.8206, 20.923634)"><g><path d="M 3.984375 -8.875 L 3.96875 -1.671875 C 3.96875 -1.503906 4.046875 -1.40625 4.203125 -1.375 C 4.296875 -1.363281 4.414062 -1.367188 4.5625 -1.390625 L 4.578125 -1.40625 C 4.585938 -1.40625 4.59375 -1.40625 4.59375 -1.40625 C 4.613281 -1.394531 4.632812 -1.378906 4.65625 -1.359375 L 4.75 -1.421875 C 4.789062 -1.453125 4.820312 -1.476562 4.84375 -1.5 C 4.882812 -1.519531 4.921875 -1.519531 4.953125 -1.5 C 4.960938 -1.488281 4.984375 -1.484375 5.015625 -1.484375 C 5.035156 -1.472656 5.066406 -1.46875 5.109375 -1.46875 L 5.328125 -1.5 L 5.375 -1.484375 C 5.414062 -1.460938 5.445312 -1.453125 5.46875 -1.453125 C 5.5 -1.429688 5.535156 -1.421875 5.578125 -1.421875 L 5.625 -1.453125 L 5.734375 -1.46875 L 5.890625 -1.4375 L 6.140625 -1.5 C 6.171875 -1.507812 6.210938 -1.503906 6.265625 -1.484375 C 6.296875 -1.472656 6.347656 -1.445312 6.421875 -1.40625 C 6.484375 -1.382812 6.53125 -1.367188 6.5625 -1.359375 C 6.59375 -1.347656 6.617188 -1.34375 6.640625 -1.34375 L 6.78125 -1.390625 C 6.851562 -1.421875 6.925781 -1.550781 7 -1.78125 C 7.0625 -2 7.09375 -2.210938 7.09375 -2.421875 L 7.109375 -8.84375 C 7.816406 -8.851562 8.394531 -8.875 8.84375 -8.90625 C 9.375 -8.9375 9.710938 -8.972656 9.859375 -9.015625 L 9.875 -9.046875 C 9.925781 -9.078125 9.960938 -9.109375 9.984375 -9.140625 C 10.023438 -9.179688 10.046875 -9.21875 10.046875 -9.25 C 10.046875 -9.300781 10.039062 -9.328125 10.03125 -9.328125 C 10.03125 -9.328125 10.035156 -9.328125 10.046875 -9.328125 L 10.078125 -9.453125 L 10.015625 -9.484375 L 10.078125 -9.5 L 10.015625 -9.546875 L 10.09375 -9.5625 L 10.015625 -9.609375 L 10.0625 -9.71875 L 10.015625 -9.78125 L 10.015625 -9.796875 L 10.078125 -9.859375 L 9.984375 -9.859375 L 10.0625 -9.921875 L 10.046875 -10.328125 L 10.0625 -10.578125 C 10.0625 -10.597656 10.054688 -10.617188 10.046875 -10.640625 C 10.035156 -10.640625 10.023438 -10.648438 10.015625 -10.671875 L 9.984375 -10.71875 C 9.984375 -10.75 9.988281 -10.765625 10 -10.765625 C 10 -10.773438 10.007812 -10.78125 10.03125 -10.78125 L 10.0625 -10.796875 C 10.0625 -10.816406 10.046875 -10.828125 10.015625 -10.828125 C 10.003906 -10.828125 9.992188 -10.828125 9.984375 -10.828125 C 9.984375 -10.828125 9.992188 -10.835938 10.015625 -10.859375 C 10.035156 -10.878906 10.046875 -10.90625 10.046875 -10.9375 C 10.046875 -11.207031 10.007812 -11.378906 9.9375 -11.453125 C 9.863281 -11.535156 9.703125 -11.570312 9.453125 -11.5625 C 8.910156 -11.53125 7.640625 -11.523438 5.640625 -11.546875 C 2.628906 -11.554688 1.679688 -11.5625 2.796875 -11.5625 L 2.4375 -11.578125 C 2.144531 -11.585938 1.945312 -11.582031 1.84375 -11.5625 C 1.65625 -11.53125 1.523438 -11.445312 1.453125 -11.3125 C 1.410156 -11.257812 1.382812 -11.207031 1.375 -11.15625 C 1.363281 -11.132812 1.359375 -11.085938 1.359375 -11.015625 L 1.375 -10.9375 L 1.375 -10.703125 L 1.34375 -10.625 C 1.332031 -10.59375 1.328125 -10.570312 1.328125 -10.5625 C 1.328125 -10.539062 1.335938 -10.519531 1.359375 -10.5 L 1.40625 -10.40625 L 1.375 -10.40625 C 1.351562 -10.394531 1.335938 -10.382812 1.328125 -10.375 C 1.304688 -10.363281 1.3125 -10.34375 1.34375 -10.3125 C 1.363281 -10.3125 1.378906 -10.3125 1.390625 -10.3125 C 1.410156 -10.3125 1.414062 -10.300781 1.40625 -10.28125 L 1.34375 -10.234375 C 1.34375 -10.222656 1.347656 -10.21875 1.359375 -10.21875 C 1.359375 -10.21875 1.367188 -10.21875 1.390625 -10.21875 C 1.398438 -10.21875 1.40625 -10.21875 1.40625 -10.21875 C 1.414062 -10.207031 1.421875 -10.195312 1.421875 -10.1875 C 1.410156 -10.164062 1.394531 -10.148438 1.375 -10.140625 C 1.363281 -10.117188 1.351562 -10.109375 1.34375 -10.109375 C 1.3125 -10.109375 1.304688 -10.109375 1.328125 -10.109375 C 1.335938 -10.097656 1.351562 -10.085938 1.375 -10.078125 L 1.40625 -10.046875 L 1.359375 -10.015625 L 1.40625 -9.953125 L 1.375 -9.90625 L 1.390625 -9.828125 L 1.40625 -9.765625 C 1.394531 -9.753906 1.382812 -9.65625 1.375 -9.46875 C 1.375 -9.257812 1.378906 -9.15625 1.390625 -9.15625 C 1.378906 -9.125 1.382812 -9.085938 1.40625 -9.046875 C 1.425781 -9.003906 1.453125 -8.984375 1.484375 -8.984375 C 1.765625 -8.960938 2.132812 -8.945312 2.59375 -8.9375 C 2.925781 -8.914062 3.390625 -8.894531 3.984375 -8.875 Z M 3.984375 -8.875 "/></g></g></g><g fill="#b7b7b7" fill-opacity="1"><g transform="translate(110.447925, 20.923634)"><g><path d="M 3.109375 -2.015625 C 3.085938 -2.097656 3.078125 -2.320312 3.078125 -2.6875 C 3.066406 -2.894531 3.066406 -3.128906 3.078125 -3.390625 L 3.078125 -5.09375 C 3.117188 -4.851562 3.140625 -4.289062 3.140625 -3.40625 C 3.148438 -2.550781 3.140625 -2.085938 3.109375 -2.015625 Z M 3.40625 -2.375 L 3.390625 -4.015625 L 3.390625 -4.6875 C 3.421875 -4.457031 3.4375 -4.015625 3.4375 -3.359375 C 3.4375 -2.753906 3.425781 -2.425781 3.40625 -2.375 Z M 4.296875 -11.578125 L 4.234375 -11.515625 L 4.21875 -11.5625 C 4.207031 -11.59375 4.203125 -11.613281 4.203125 -11.625 C 4.191406 -11.632812 4.1875 -11.628906 4.1875 -11.609375 L 4.171875 -11.59375 L 4.125 -11.515625 C 4.113281 -11.515625 4.101562 -11.515625 4.09375 -11.515625 C 4.09375 -11.515625 4.085938 -11.519531 4.078125 -11.53125 C 4.078125 -11.539062 4.070312 -11.550781 4.0625 -11.5625 C 4.050781 -11.5625 4.039062 -11.5625 4.03125 -11.5625 L 4 -11.546875 C 3.988281 -11.523438 3.984375 -11.515625 3.984375 -11.515625 C 3.972656 -11.492188 3.960938 -11.484375 3.953125 -11.484375 C 3.929688 -11.484375 3.914062 -11.492188 3.90625 -11.515625 C 3.894531 -11.523438 3.882812 -11.546875 3.875 -11.578125 C 3.863281 -11.585938 3.859375 -11.59375 3.859375 -11.59375 C 3.859375 -11.601562 3.859375 -11.597656 3.859375 -11.578125 L 3.8125 -11.515625 C 3.800781 -11.492188 3.789062 -11.484375 3.78125 -11.484375 C 3.78125 -11.460938 3.773438 -11.453125 3.765625 -11.453125 L 3.5625 -11.53125 C 3.46875 -11.5625 3.40625 -11.582031 3.375 -11.59375 C 3.300781 -11.613281 3.257812 -11.617188 3.25 -11.609375 C 2.957031 -11.578125 2.71875 -11.484375 2.53125 -11.328125 C 2.21875 -11.109375 2.035156 -10.757812 1.984375 -10.28125 L 1.984375 -1.65625 C 1.984375 -1.53125 2.046875 -1.453125 2.171875 -1.421875 C 2.242188 -1.398438 2.394531 -1.390625 2.625 -1.390625 C 2.5625 -1.390625 2.660156 -1.40625 2.921875 -1.4375 C 3.140625 -1.445312 3.289062 -1.441406 3.375 -1.421875 C 3.738281 -1.328125 4.097656 -1.316406 4.453125 -1.390625 C 4.910156 -1.484375 5.140625 -1.726562 5.140625 -2.125 L 5.140625 -10.546875 L 5.171875 -10.828125 C 5.203125 -10.953125 5.222656 -11.039062 5.234375 -11.09375 C 5.234375 -11.1875 5.234375 -11.25 5.234375 -11.28125 C 5.222656 -11.3125 5.210938 -11.328125 5.203125 -11.328125 C 5.203125 -11.328125 5.191406 -11.320312 5.171875 -11.3125 L 5.140625 -11.28125 L 5.03125 -11.34375 C 5.007812 -11.351562 5 -11.367188 5 -11.390625 C 4.988281 -11.398438 4.984375 -11.414062 4.984375 -11.4375 L 4.984375 -11.484375 L 4.953125 -11.484375 C 4.941406 -11.460938 4.929688 -11.453125 4.921875 -11.453125 C 4.898438 -11.441406 4.890625 -11.4375 4.890625 -11.4375 L 4.890625 -11.53125 C 4.878906 -11.550781 4.867188 -11.554688 4.859375 -11.546875 C 4.859375 -11.535156 4.847656 -11.519531 4.828125 -11.5 C 4.816406 -11.476562 4.8125 -11.46875 4.8125 -11.46875 C 4.800781 -11.457031 4.796875 -11.453125 4.796875 -11.453125 L 4.765625 -11.546875 C 4.765625 -11.554688 4.765625 -11.5625 4.765625 -11.5625 C 4.765625 -11.570312 4.765625 -11.570312 4.765625 -11.5625 C 4.742188 -11.53125 4.722656 -11.503906 4.703125 -11.484375 C 4.671875 -11.453125 4.648438 -11.441406 4.640625 -11.453125 L 4.625 -11.5625 L 4.578125 -11.453125 L 4.5625 -11.5625 L 4.453125 -11.453125 L 4.4375 -11.53125 L 4.4375 -11.5625 L 4.421875 -11.515625 C 4.410156 -11.503906 4.40625 -11.492188 4.40625 -11.484375 C 4.363281 -11.492188 4.332031 -11.515625 4.3125 -11.546875 C 4.289062 -11.566406 4.285156 -11.578125 4.296875 -11.578125 Z M 4.296875 -11.578125 "/></g></g></g><g fill="#b7b7b7" fill-opacity="1"><g transform="translate(117.361471, 20.923634)"><g><path d="M 5.046875 -11.421875 L 5.03125 -11.484375 C 5.007812 -11.503906 4.992188 -11.515625 4.984375 -11.515625 C 4.972656 -11.515625 4.957031 -11.507812 4.9375 -11.5 L 4.90625 -11.484375 C 4.894531 -11.484375 4.878906 -11.488281 4.859375 -11.5 C 4.847656 -11.5 4.832031 -11.503906 4.8125 -11.515625 L 4.796875 -11.53125 L 4.765625 -11.625 L 4.765625 -11.671875 L 4.75 -11.671875 C 4.726562 -11.648438 4.710938 -11.640625 4.703125 -11.640625 C 4.679688 -11.628906 4.671875 -11.628906 4.671875 -11.640625 L 4.671875 -11.734375 C 4.660156 -11.742188 4.648438 -11.742188 4.640625 -11.734375 C 4.640625 -11.734375 4.632812 -11.722656 4.625 -11.703125 C 4.601562 -11.679688 4.59375 -11.664062 4.59375 -11.65625 C 4.59375 -11.644531 4.59375 -11.644531 4.59375 -11.65625 L 4.578125 -11.71875 C 4.566406 -11.738281 4.5625 -11.75 4.5625 -11.75 C 4.5625 -11.757812 4.5625 -11.757812 4.5625 -11.75 C 4.519531 -11.707031 4.492188 -11.679688 4.484375 -11.671875 C 4.453125 -11.648438 4.429688 -11.644531 4.421875 -11.65625 L 4.421875 -11.75 L 4.34375 -11.65625 L 4.328125 -11.75 L 4.234375 -11.65625 L 4.21875 -11.71875 L 4.21875 -11.75 L 4.1875 -11.703125 L 4.171875 -11.671875 C 4.128906 -11.679688 4.101562 -11.703125 4.09375 -11.734375 C 4.070312 -11.753906 4.066406 -11.765625 4.078125 -11.765625 L 4.015625 -11.71875 L 4 -11.765625 C 3.988281 -11.773438 3.984375 -11.789062 3.984375 -11.8125 C 3.972656 -11.820312 3.96875 -11.820312 3.96875 -11.8125 C 3.96875 -11.789062 3.960938 -11.78125 3.953125 -11.78125 C 3.929688 -11.769531 3.914062 -11.757812 3.90625 -11.75 L 3.890625 -11.71875 C 3.878906 -11.71875 3.875 -11.71875 3.875 -11.71875 C 3.875 -11.71875 3.867188 -11.71875 3.859375 -11.71875 C 3.847656 -11.726562 3.84375 -11.738281 3.84375 -11.75 C 3.820312 -11.75 3.804688 -11.75 3.796875 -11.75 L 3.78125 -11.734375 C 3.769531 -11.722656 3.757812 -11.710938 3.75 -11.703125 C 3.738281 -11.679688 3.726562 -11.671875 3.71875 -11.671875 L 3.671875 -11.734375 C 3.660156 -11.753906 3.648438 -11.769531 3.640625 -11.78125 C 3.628906 -11.78125 3.625 -11.773438 3.625 -11.765625 L 3.609375 -11.75 C 3.597656 -11.71875 3.585938 -11.695312 3.578125 -11.6875 C 3.566406 -11.664062 3.550781 -11.65625 3.53125 -11.65625 L 3.375 -11.734375 C 3.332031 -11.765625 3.300781 -11.78125 3.28125 -11.78125 C 3.25 -11.8125 3.226562 -11.820312 3.21875 -11.8125 C 2.925781 -11.769531 2.691406 -11.671875 2.515625 -11.515625 C 2.210938 -11.265625 2.035156 -10.90625 1.984375 -10.4375 L 1.984375 -1.6875 C 1.984375 -1.5625 2.046875 -1.476562 2.171875 -1.4375 C 2.265625 -1.414062 2.414062 -1.410156 2.625 -1.421875 C 2.53125 -1.421875 2.597656 -1.429688 2.828125 -1.453125 C 2.992188 -1.453125 3.125 -1.441406 3.21875 -1.421875 C 3.570312 -1.328125 3.914062 -1.316406 4.25 -1.390625 C 4.6875 -1.484375 4.90625 -1.726562 4.90625 -2.125 L 4.90625 -3.90625 C 6.007812 -4.164062 6.921875 -4.488281 7.640625 -4.875 C 8.929688 -5.550781 9.765625 -6.460938 10.140625 -7.609375 C 10.523438 -8.773438 10.375 -9.769531 9.6875 -10.59375 C 9 -11.382812 8.054688 -11.75 6.859375 -11.6875 C 6.484375 -11.675781 6.128906 -11.644531 5.796875 -11.59375 C 5.546875 -11.550781 5.296875 -11.492188 5.046875 -11.421875 Z M 4.90625 -6.234375 L 4.90625 -9.15625 C 5.175781 -9.238281 5.414062 -9.296875 5.625 -9.328125 C 5.976562 -9.390625 6.316406 -9.421875 6.640625 -9.421875 C 6.929688 -9.421875 7.171875 -9.320312 7.359375 -9.125 C 7.609375 -8.875 7.679688 -8.554688 7.578125 -8.171875 C 7.460938 -7.753906 7.097656 -7.347656 6.484375 -6.953125 C 5.972656 -6.617188 5.445312 -6.378906 4.90625 -6.234375 Z M 4.90625 -6.234375 "/></g></g></g><g fill="#b7b7b7" fill-opacity="1"><g transform="translate(128.988796, 20.923634)"><g><path d="M 3.984375 -8.875 L 3.96875 -1.671875 C 3.96875 -1.503906 4.046875 -1.40625 4.203125 -1.375 C 4.296875 -1.363281 4.414062 -1.367188 4.5625 -1.390625 L 4.578125 -1.40625 C 4.585938 -1.40625 4.59375 -1.40625 4.59375 -1.40625 C 4.613281 -1.394531 4.632812 -1.378906 4.65625 -1.359375 L 4.75 -1.421875 C 4.789062 -1.453125 4.820312 -1.476562 4.84375 -1.5 C 4.882812 -1.519531 4.921875 -1.519531 4.953125 -1.5 C 4.960938 -1.488281 4.984375 -1.484375 5.015625 -1.484375 C 5.035156 -1.472656 5.066406 -1.46875 5.109375 -1.46875 L 5.328125 -1.5 L 5.375 -1.484375 C 5.414062 -1.460938 5.445312 -1.453125 5.46875 -1.453125 C 5.5 -1.429688 5.535156 -1.421875 5.578125 -1.421875 L 5.625 -1.453125 L 5.734375 -1.46875 L 5.890625 -1.4375 L 6.140625 -1.5 C 6.171875 -1.507812 6.210938 -1.503906 6.265625 -1.484375 C 6.296875 -1.472656 6.347656 -1.445312 6.421875 -1.40625 C 6.484375 -1.382812 6.53125 -1.367188 6.5625 -1.359375 C 6.59375 -1.347656 6.617188 -1.34375 6.640625 -1.34375 L 6.78125 -1.390625 C 6.851562 -1.421875 6.925781 -1.550781 7 -1.78125 C 7.0625 -2 7.09375 -2.210938 7.09375 -2.421875 L 7.109375 -8.84375 C 7.816406 -8.851562 8.394531 -8.875 8.84375 -8.90625 C 9.375 -8.9375 9.710938 -8.972656 9.859375 -9.015625 L 9.875 -9.046875 C 9.925781 -9.078125 9.960938 -9.109375 9.984375 -9.140625 C 10.023438 -9.179688 10.046875 -9.21875 10.046875 -9.25 C 10.046875 -9.300781 10.039062 -9.328125 10.03125 -9.328125 C 10.03125 -9.328125 10.035156 -9.328125 10.046875 -9.328125 L 10.078125 -9.453125 L 10.015625 -9.484375 L 10.078125 -9.5 L 10.015625 -9.546875 L 10.09375 -9.5625 L 10.015625 -9.609375 L 10.0625 -9.71875 L 10.015625 -9.78125 L 10.015625 -9.796875 L 10.078125 -9.859375 L 9.984375 -9.859375 L 10.0625 -9.921875 L 10.046875 -10.328125 L 10.0625 -10.578125 C 10.0625 -10.597656 10.054688 -10.617188 10.046875 -10.640625 C 10.035156 -10.640625 10.023438 -10.648438 10.015625 -10.671875 L 9.984375 -10.71875 C 9.984375 -10.75 9.988281 -10.765625 10 -10.765625 C 10 -10.773438 10.007812 -10.78125 10.03125 -10.78125 L 10.0625 -10.796875 C 10.0625 -10.816406 10.046875 -10.828125 10.015625 -10.828125 C 10.003906 -10.828125 9.992188 -10.828125 9.984375 -10.828125 C 9.984375 -10.828125 9.992188 -10.835938 10.015625 -10.859375 C 10.035156 -10.878906 10.046875 -10.90625 10.046875 -10.9375 C 10.046875 -11.207031 10.007812 -11.378906 9.9375 -11.453125 C 9.863281 -11.535156 9.703125 -11.570312 9.453125 -11.5625 C 8.910156 -11.53125 7.640625 -11.523438 5.640625 -11.546875 C 2.628906 -11.554688 1.679688 -11.5625 2.796875 -11.5625 L 2.4375 -11.578125 C 2.144531 -11.585938 1.945312 -11.582031 1.84375 -11.5625 C 1.65625 -11.53125 1.523438 -11.445312 1.453125 -11.3125 C 1.410156 -11.257812 1.382812 -11.207031 1.375 -11.15625 C 1.363281 -11.132812 1.359375 -11.085938 1.359375 -11.015625 L 1.375 -10.9375 L 1.375 -10.703125 L 1.34375 -10.625 C 1.332031 -10.59375 1.328125 -10.570312 1.328125 -10.5625 C 1.328125 -10.539062 1.335938 -10.519531 1.359375 -10.5 L 1.40625 -10.40625 L 1.375 -10.40625 C 1.351562 -10.394531 1.335938 -10.382812 1.328125 -10.375 C 1.304688 -10.363281 1.3125 -10.34375 1.34375 -10.3125 C 1.363281 -10.3125 1.378906 -10.3125 1.390625 -10.3125 C 1.410156 -10.3125 1.414062 -10.300781 1.40625 -10.28125 L 1.34375 -10.234375 C 1.34375 -10.222656 1.347656 -10.21875 1.359375 -10.21875 C 1.359375 -10.21875 1.367188 -10.21875 1.390625 -10.21875 C 1.398438 -10.21875 1.40625 -10.21875 1.40625 -10.21875 C 1.414062 -10.207031 1.421875 -10.195312 1.421875 -10.1875 C 1.410156 -10.164062 1.394531 -10.148438 1.375 -10.140625 C 1.363281 -10.117188 1.351562 -10.109375 1.34375 -10.109375 C 1.3125 -10.109375 1.304688 -10.109375 1.328125 -10.109375 C 1.335938 -10.097656 1.351562 -10.085938 1.375 -10.078125 L 1.40625 -10.046875 L 1.359375 -10.015625 L 1.40625 -9.953125 L 1.375 -9.90625 L 1.390625 -9.828125 L 1.40625 -9.765625 C 1.394531 -9.753906 1.382812 -9.65625 1.375 -9.46875 C 1.375 -9.257812 1.378906 -9.15625 1.390625 -9.15625 C 1.378906 -9.125 1.382812 -9.085938 1.40625 -9.046875 C 1.425781 -9.003906 1.453125 -8.984375 1.484375 -8.984375 C 1.765625 -8.960938 2.132812 -8.945312 2.59375 -8.9375 C 2.925781 -8.914062 3.390625 -8.894531 3.984375 -8.875 Z M 3.984375 -8.875 "/></g></g></g><g clip-path="url(#57b9e79f24)"><path fill="#b7b7b7" d="M 6.242188 7.3125 C 6.386719 7.148438 6.597656 7.050781 6.816406 7.050781 L 22.183594 7.050781 C 22.402344 7.050781 22.613281 7.148438 22.761719 7.3125 C 22.90625 7.476562 22.972656 7.695312 22.945312 7.914062 L 21.410156 20.210938 C 21.378906 20.464844 21.21875 20.6875 20.992188 20.800781 L 14.84375 23.875 C 14.628906 23.984375 14.371094 23.984375 14.15625 23.875 L 8.011719 20.800781 C 7.78125 20.6875 7.621094 20.464844 7.589844 20.210938 L 6.054688 7.914062 C 6.027344 7.695312 6.09375 7.476562 6.242188 7.3125 Z M 7.6875 8.589844 L 9.066406 19.609375 L 14.5 22.328125 L 19.9375 19.609375 L 21.3125 8.589844 Z M 7.6875 8.589844 " fill-opacity="1" fill-rule="evenodd"/></g><path fill="#b7b7b7" d="M 12.578125 18.789062 L 12.578125 10.125 L 14.117188 10.125 L 14.117188 20.113281 C 14.117188 20.386719 13.96875 20.640625 13.734375 20.777344 C 13.496094 20.914062 13.203125 20.917969 12.964844 20.78125 L 10.277344 19.246094 L 11.039062 17.910156 Z M 12.578125 18.789062 " fill-opacity="1" fill-rule="evenodd"/><path fill="#b7b7b7" d="M 14.882812 10.125 C 14.882812 9.699219 15.226562 9.355469 15.652344 9.355469 L 19.496094 9.355469 L 19.496094 10.894531 L 16.421875 10.894531 L 16.421875 14.160156 L 18.945312 13.601562 C 19.183594 13.546875 19.433594 13.613281 19.617188 13.773438 C 19.800781 13.9375 19.898438 14.175781 19.875 14.421875 L 19.492188 18.648438 C 19.46875 18.910156 19.308594 19.144531 19.070312 19.265625 L 15.996094 20.800781 L 15.308594 19.425781 L 18 18.082031 L 18.25 15.328125 L 15.820312 15.871094 C 15.59375 15.921875 15.355469 15.863281 15.171875 15.71875 C 14.992188 15.574219 14.882812 15.351562 14.882812 15.121094 Z M 14.882812 10.125 " fill-opacity="1" fill-rule="evenodd"/></svg>