<svg xmlns="http://www.w3.org/2000/svg" xmlns:xlink="http://www.w3.org/1999/xlink" width="198" zoomAndPan="magnify" viewBox="0 0 148.5 31.5" height="42" preserveAspectRatio="xMidYMid meet" version="1.0"><defs><g/><clipPath id="be10c07e2e"><path d="M 9.105469 4.316406 L 29.777344 4.316406 L 29.777344 27.941406 L 9.105469 27.941406 Z M 9.105469 4.316406 " clip-rule="nonzero"/></clipPath></defs><g fill="#b7b7b7" fill-opacity="1"><g transform="translate(35.300507, 28.424973)"><g><path d="M 20.515625 -5.734375 L 20.421875 -9.21875 L 20.484375 -10.765625 C 20.554688 -10.234375 20.59375 -9.28125 20.59375 -7.90625 C 20.59375 -6.570312 20.566406 -5.847656 20.515625 -5.734375 Z M 21.140625 -4.5 C 21.066406 -4.664062 21.019531 -5.148438 21 -5.953125 C 20.976562 -6.378906 20.976562 -6.894531 21 -7.5 L 21.03125 -11.234375 C 21.101562 -10.710938 21.148438 -9.476562 21.171875 -7.53125 C 21.171875 -5.675781 21.160156 -4.664062 21.140625 -4.5 Z M 10.03125 -17.25 L 10.03125 -23.40625 C 10.144531 -24.03125 10.144531 -24.476562 10.03125 -24.75 C 9.875 -25.019531 9.601562 -25.171875 9.21875 -25.203125 C 9.125 -25.222656 8.925781 -25.222656 8.625 -25.203125 C 8.488281 -25.171875 8.285156 -25.144531 8.015625 -25.125 L 7.90625 -25.09375 L 7.875 -25.234375 C 7.875 -25.328125 7.875 -25.375 7.875 -25.375 C 7.875 -25.394531 7.863281 -25.378906 7.84375 -25.328125 L 7.5625 -25.15625 L 7.625 -25.40625 L 7.421875 -25.296875 L 7.25 -25.203125 L 7.28125 -25.296875 C 7.3125 -25.347656 7.335938 -25.375 7.359375 -25.375 C 7.359375 -25.394531 7.359375 -25.40625 7.359375 -25.40625 C 7.304688 -25.40625 7.25 -25.367188 7.1875 -25.296875 C 7.113281 -25.203125 7.085938 -25.15625 7.109375 -25.15625 L 7.15625 -25.375 L 7.015625 -25.296875 L 6.8125 -25.15625 C 6.78125 -25.15625 6.753906 -25.179688 6.734375 -25.234375 C 6.734375 -25.234375 6.734375 -25.253906 6.734375 -25.296875 L 6.734375 -25.375 L 6.46875 -25.15625 L 6.421875 -25.328125 L 6.21875 -25.15625 L 6.21875 -25.328125 L 5.984375 -25.203125 C 5.960938 -25.203125 5.953125 -25.222656 5.953125 -25.265625 C 5.953125 -25.265625 5.960938 -25.285156 5.984375 -25.328125 L 6.015625 -25.375 L 5.8125 -25.15625 C 5.789062 -25.15625 5.78125 -25.171875 5.78125 -25.203125 C 5.78125 -25.203125 5.789062 -25.210938 5.8125 -25.234375 C 5.8125 -25.253906 5.8125 -25.273438 5.8125 -25.296875 L 5.53125 -25.15625 L 5.53125 -25.265625 C 5.582031 -25.304688 5.609375 -25.328125 5.609375 -25.328125 C 5.609375 -25.359375 5.609375 -25.375 5.609375 -25.375 L 5.390625 -25.265625 L 5.328125 -25.15625 L 5.359375 -25.296875 L 5.15625 -25.203125 C 5.113281 -25.222656 5.101562 -25.242188 5.125 -25.265625 C 5.125 -25.285156 5.132812 -25.296875 5.15625 -25.296875 C 4.695312 -25.273438 4.351562 -25.035156 4.125 -24.578125 C 3.914062 -24.210938 3.8125 -23.789062 3.8125 -23.3125 L 3.8125 -4.015625 C 3.8125 -3.585938 3.960938 -3.328125 4.265625 -3.234375 C 4.441406 -3.160156 4.96875 -3.125 5.84375 -3.125 L 7.328125 -3.125 C 8.210938 -3.082031 8.828125 -3.082031 9.171875 -3.125 C 9.742188 -3.21875 10.03125 -3.457031 10.03125 -3.84375 L 10.03125 -11.28125 L 15.875 -11.28125 L 15.875 -3.8125 C 15.875 -3.425781 16.070312 -3.1875 16.46875 -3.09375 C 16.71875 -3.050781 17.195312 -3.050781 17.90625 -3.09375 L 19.140625 -3.15625 L 20.34375 -3.125 C 20.988281 -3.082031 21.40625 -3.070312 21.59375 -3.09375 C 21.957031 -3.164062 22.160156 -3.316406 22.203125 -3.546875 L 22.203125 -23.515625 L 22.3125 -23.921875 C 22.40625 -24.203125 22.460938 -24.398438 22.484375 -24.515625 C 22.523438 -24.742188 22.5 -24.890625 22.40625 -24.953125 C 22.34375 -25.003906 22.242188 -25.03125 22.109375 -25.03125 C 22.035156 -25.03125 21.929688 -25.003906 21.796875 -24.953125 L 21.625 -24.921875 C 21.488281 -24.921875 21.347656 -24.941406 21.203125 -24.984375 C 20.953125 -25.054688 20.851562 -25.171875 20.90625 -25.328125 L 20.765625 -25.265625 L 20.59375 -25.03125 L 20.5625 -25.15625 C 20.582031 -25.226562 20.59375 -25.285156 20.59375 -25.328125 C 20.59375 -25.398438 20.582031 -25.445312 20.5625 -25.46875 C 20.582031 -25.46875 20.566406 -25.410156 20.515625 -25.296875 C 20.472656 -25.179688 20.382812 -25.113281 20.25 -25.09375 L 20.171875 -25.375 L 20.046875 -25.234375 L 19.9375 -25.09375 C 19.894531 -25.09375 19.882812 -25.113281 19.90625 -25.15625 C 19.90625 -25.15625 19.90625 -25.179688 19.90625 -25.234375 L 19.9375 -25.328125 C 19.914062 -25.328125 19.894531 -25.316406 19.875 -25.296875 C 19.84375 -25.273438 19.816406 -25.242188 19.796875 -25.203125 C 19.773438 -25.148438 19.753906 -25.125 19.734375 -25.125 C 19.734375 -25.082031 19.722656 -25.0625 19.703125 -25.0625 L 19.625 -25.296875 L 19.421875 -25.0625 C 19.378906 -25.0625 19.359375 -25.082031 19.359375 -25.125 C 19.359375 -25.125 19.367188 -25.148438 19.390625 -25.203125 C 19.390625 -25.242188 19.390625 -25.265625 19.390625 -25.265625 C 19.390625 -25.285156 19.378906 -25.296875 19.359375 -25.296875 L 19.046875 -25.09375 L 19.015625 -25.15625 C 19.015625 -25.207031 19.015625 -25.242188 19.015625 -25.265625 C 19.015625 -25.285156 19.015625 -25.296875 19.015625 -25.296875 L 18.796875 -25.203125 L 18.625 -25.0625 L 18.625 -25.203125 C 18.625 -25.242188 18.625 -25.265625 18.625 -25.265625 C 18.65625 -25.285156 18.65625 -25.296875 18.625 -25.296875 L 18.5 -25.234375 C 18.40625 -25.160156 18.347656 -25.113281 18.328125 -25.09375 C 18.253906 -25.050781 18.226562 -25.039062 18.25 -25.0625 L 18.359375 -25.40625 L 18.421875 -25.46875 L 18.359375 -25.4375 C 18.285156 -25.363281 18.21875 -25.304688 18.15625 -25.265625 C 18.0625 -25.191406 17.96875 -25.132812 17.875 -25.09375 C 17.832031 -25.070312 17.832031 -25.117188 17.875 -25.234375 C 17.914062 -25.328125 17.953125 -25.375 17.984375 -25.375 L 17.84375 -25.296875 L 17.734375 -25.203125 L 17.734375 -25.296875 L 17.765625 -25.40625 L 17.5 -25.125 C 17.445312 -25.125 17.421875 -25.148438 17.421875 -25.203125 C 17.421875 -25.203125 17.4375 -25.222656 17.46875 -25.265625 C 17.488281 -25.285156 17.507812 -25.304688 17.53125 -25.328125 C 17.53125 -25.328125 17.519531 -25.328125 17.5 -25.328125 L 17.25 -25.203125 L 17.21875 -25.125 L 17.015625 -25.125 C 16.628906 -25.0625 16.332031 -24.800781 16.125 -24.34375 C 15.957031 -23.945312 15.875 -23.472656 15.875 -22.921875 L 15.875 -17.25 Z M 10.03125 -17.25 "/></g></g></g><g fill="#b7b7b7" fill-opacity="1"><g transform="translate(61.424148, 28.424973)"><g><path d="M 8.703125 -19.421875 L 8.65625 -3.640625 C 8.65625 -3.273438 8.828125 -3.054688 9.171875 -2.984375 C 9.378906 -2.960938 9.644531 -2.976562 9.96875 -3.03125 L 10 -3.0625 C 10.019531 -3.0625 10.03125 -3.0625 10.03125 -3.0625 C 10.082031 -3.039062 10.128906 -3.003906 10.171875 -2.953125 L 10.375 -3.09375 C 10.46875 -3.164062 10.539062 -3.222656 10.59375 -3.265625 C 10.675781 -3.304688 10.753906 -3.304688 10.828125 -3.265625 C 10.847656 -3.242188 10.894531 -3.234375 10.96875 -3.234375 C 11.007812 -3.210938 11.078125 -3.203125 11.171875 -3.203125 L 11.40625 -3.234375 L 11.65625 -3.265625 L 11.75 -3.234375 C 11.84375 -3.179688 11.914062 -3.15625 11.96875 -3.15625 C 12.03125 -3.113281 12.109375 -3.09375 12.203125 -3.09375 L 12.3125 -3.15625 L 12.546875 -3.203125 L 12.890625 -3.125 L 13.4375 -3.265625 C 13.507812 -3.285156 13.601562 -3.273438 13.71875 -3.234375 C 13.78125 -3.210938 13.894531 -3.15625 14.0625 -3.0625 C 14.195312 -3.007812 14.285156 -2.972656 14.328125 -2.953125 C 14.398438 -2.929688 14.457031 -2.921875 14.5 -2.921875 L 14.8125 -3.03125 C 14.976562 -3.09375 15.140625 -3.378906 15.296875 -3.890625 C 15.429688 -4.367188 15.5 -4.835938 15.5 -5.296875 L 15.53125 -19.359375 C 17.09375 -19.378906 18.367188 -19.421875 19.359375 -19.484375 C 20.503906 -19.554688 21.234375 -19.640625 21.546875 -19.734375 L 21.59375 -19.796875 C 21.707031 -19.867188 21.785156 -19.9375 21.828125 -20 C 21.921875 -20.070312 21.96875 -20.144531 21.96875 -20.21875 C 21.96875 -20.332031 21.957031 -20.390625 21.9375 -20.390625 C 21.9375 -20.390625 21.945312 -20.390625 21.96875 -20.390625 L 22.03125 -20.65625 L 21.890625 -20.734375 L 22.03125 -20.765625 L 21.890625 -20.859375 L 22.0625 -20.90625 L 21.890625 -21 L 22 -21.25 L 21.890625 -21.375 L 21.890625 -21.421875 L 22.03125 -21.546875 L 21.828125 -21.546875 L 22 -21.6875 L 21.96875 -22.578125 L 22 -23.140625 C 22 -23.179688 21.988281 -23.222656 21.96875 -23.265625 C 21.945312 -23.265625 21.921875 -23.289062 21.890625 -23.34375 L 21.828125 -23.4375 C 21.828125 -23.507812 21.835938 -23.546875 21.859375 -23.546875 C 21.859375 -23.566406 21.882812 -23.578125 21.9375 -23.578125 L 22 -23.609375 C 22 -23.660156 21.960938 -23.6875 21.890625 -23.6875 C 21.867188 -23.6875 21.847656 -23.6875 21.828125 -23.6875 C 21.828125 -23.6875 21.847656 -23.707031 21.890625 -23.75 C 21.941406 -23.800781 21.96875 -23.859375 21.96875 -23.921875 C 21.96875 -24.515625 21.882812 -24.894531 21.71875 -25.0625 C 21.5625 -25.238281 21.207031 -25.316406 20.65625 -25.296875 C 19.488281 -25.234375 16.71875 -25.222656 12.34375 -25.265625 C 5.757812 -25.285156 3.6875 -25.296875 6.125 -25.296875 L 5.328125 -25.328125 C 4.679688 -25.359375 4.242188 -25.347656 4.015625 -25.296875 C 3.609375 -25.234375 3.320312 -25.050781 3.15625 -24.75 C 3.070312 -24.632812 3.015625 -24.519531 2.984375 -24.40625 C 2.960938 -24.363281 2.953125 -24.257812 2.953125 -24.09375 L 2.984375 -23.921875 L 2.984375 -23.40625 L 2.921875 -23.234375 C 2.898438 -23.171875 2.890625 -23.125 2.890625 -23.09375 C 2.890625 -23.050781 2.910156 -23.007812 2.953125 -22.96875 L 3.0625 -22.75 L 2.984375 -22.75 C 2.941406 -22.726562 2.910156 -22.707031 2.890625 -22.6875 C 2.867188 -22.664062 2.878906 -22.617188 2.921875 -22.546875 C 2.960938 -22.546875 3 -22.546875 3.03125 -22.546875 C 3.070312 -22.546875 3.082031 -22.523438 3.0625 -22.484375 L 2.921875 -22.375 C 2.921875 -22.351562 2.929688 -22.34375 2.953125 -22.34375 C 2.953125 -22.34375 2.976562 -22.34375 3.03125 -22.34375 C 3.050781 -22.34375 3.0625 -22.34375 3.0625 -22.34375 C 3.082031 -22.320312 3.09375 -22.300781 3.09375 -22.28125 C 3.070312 -22.226562 3.035156 -22.191406 2.984375 -22.171875 C 2.960938 -22.128906 2.941406 -22.109375 2.921875 -22.109375 C 2.878906 -22.109375 2.867188 -22.109375 2.890625 -22.109375 C 2.910156 -22.078125 2.941406 -22.050781 2.984375 -22.03125 L 3.0625 -21.96875 L 2.953125 -21.890625 L 3.0625 -21.765625 L 2.984375 -21.65625 L 3.03125 -21.484375 L 3.0625 -21.34375 C 3.039062 -21.320312 3.015625 -21.101562 2.984375 -20.6875 C 2.984375 -20.257812 3 -20.046875 3.03125 -20.046875 C 3 -19.972656 3.007812 -19.890625 3.0625 -19.796875 C 3.101562 -19.703125 3.160156 -19.65625 3.234375 -19.65625 C 3.847656 -19.613281 4.660156 -19.582031 5.671875 -19.5625 C 6.398438 -19.507812 7.410156 -19.460938 8.703125 -19.421875 Z M 8.703125 -19.421875 "/></g></g></g><g fill="#b7b7b7" fill-opacity="1"><g transform="translate(86.860328, 28.424973)"><g><path d="M 23.515625 -4.953125 L 23.515625 -9.65625 C 23.578125 -9.082031 23.609375 -8.191406 23.609375 -6.984375 C 23.609375 -5.765625 23.578125 -5.085938 23.515625 -4.953125 Z M 22.890625 -4.234375 C 22.847656 -4.367188 22.816406 -4.753906 22.796875 -5.390625 C 22.796875 -5.734375 22.796875 -6.25 22.796875 -6.9375 L 22.828125 -7.21875 L 22.828125 -10.9375 C 22.890625 -10.40625 22.921875 -9.175781 22.921875 -7.25 C 22.921875 -5.375 22.910156 -4.367188 22.890625 -4.234375 Z M 10.03125 -12.65625 C 10.90625 -11.320312 11.722656 -10.265625 12.484375 -9.484375 C 13.328125 -8.585938 14.070312 -8.097656 14.71875 -8.015625 C 15.3125 -7.941406 15.960938 -8.203125 16.671875 -8.796875 C 17.242188 -9.273438 17.863281 -9.941406 18.53125 -10.796875 C 18.96875 -11.410156 19.414062 -12.097656 19.875 -12.859375 C 20.21875 -13.472656 20.390625 -13.78125 20.390625 -13.78125 L 20.390625 -5.46875 C 20.390625 -4.78125 20.410156 -4.273438 20.453125 -3.953125 C 20.492188 -3.421875 20.617188 -3.113281 20.828125 -3.03125 C 20.847656 -3.03125 20.882812 -3.03125 20.9375 -3.03125 C 20.957031 -3.03125 21.003906 -3.039062 21.078125 -3.0625 L 21.3125 -3.09375 L 21.453125 -2.953125 L 21.625 -3.03125 L 21.859375 -2.953125 C 21.929688 -2.953125 21.988281 -2.960938 22.03125 -2.984375 C 22.050781 -3.015625 22.078125 -3.039062 22.109375 -3.0625 L 22.171875 -3.09375 C 22.191406 -3.09375 22.210938 -3.082031 22.234375 -3.0625 C 22.234375 -3.0625 22.25 -3.035156 22.28125 -2.984375 C 22.300781 -2.960938 22.3125 -2.953125 22.3125 -2.953125 C 22.332031 -2.953125 22.351562 -2.953125 22.375 -2.953125 L 22.546875 -3.09375 L 22.625 -3.0625 L 22.65625 -2.984375 L 22.828125 -3.09375 L 22.859375 -2.984375 L 22.859375 -2.921875 C 22.859375 -2.960938 22.878906 -3 22.921875 -3.03125 C 22.972656 -3.070312 23.019531 -3.070312 23.0625 -3.03125 L 23.171875 -2.953125 C 23.171875 -2.953125 23.179688 -2.953125 23.203125 -2.953125 C 23.203125 -2.929688 23.210938 -2.929688 23.234375 -2.953125 L 23.375 -3.03125 C 23.351562 -3.03125 23.363281 -3.003906 23.40625 -2.953125 C 23.457031 -2.890625 23.503906 -2.859375 23.546875 -2.859375 L 23.71875 -3.03125 L 23.859375 -2.859375 L 23.890625 -2.953125 L 24 -3.03125 C 24.019531 -3.050781 24.039062 -3.050781 24.0625 -3.03125 C 24.082031 -3.03125 24.117188 -3.003906 24.171875 -2.953125 C 24.191406 -2.929688 24.210938 -2.910156 24.234375 -2.890625 C 24.253906 -2.867188 24.273438 -2.859375 24.296875 -2.859375 L 24.34375 -2.921875 L 24.4375 -2.984375 L 24.6875 -2.953125 C 24.707031 -2.953125 24.726562 -2.960938 24.75 -2.984375 C 24.769531 -3.015625 24.789062 -3.039062 24.8125 -3.0625 L 24.890625 -3.09375 C 24.910156 -3.09375 24.929688 -3.082031 24.953125 -3.0625 C 24.953125 -3.0625 24.960938 -3.035156 24.984375 -2.984375 C 24.984375 -2.941406 24.984375 -2.910156 24.984375 -2.890625 C 25.015625 -2.867188 25.050781 -2.859375 25.09375 -2.859375 L 25.296875 -2.859375 C 25.367188 -2.804688 25.4375 -2.757812 25.5 -2.71875 C 25.550781 -2.695312 25.597656 -2.695312 25.640625 -2.71875 C 25.773438 -2.757812 25.898438 -2.863281 26.015625 -3.03125 C 26.160156 -3.257812 26.242188 -3.53125 26.265625 -3.84375 C 26.378906 -6.070312 26.445312 -8.148438 26.46875 -10.078125 C 26.507812 -12.503906 26.507812 -14.96875 26.46875 -17.46875 C 26.425781 -19.550781 26.242188 -21.164062 25.921875 -22.3125 C 25.390625 -24.050781 24.472656 -25.015625 23.171875 -25.203125 C 22.140625 -25.359375 21.234375 -25.128906 20.453125 -24.515625 C 19.898438 -24.078125 19.164062 -23.179688 18.25 -21.828125 L 14.921875 -16.953125 L 10.28125 -24.203125 C 10.28125 -24.265625 10.28125 -24.320312 10.28125 -24.375 C 10.28125 -24.4375 10.28125 -24.484375 10.28125 -24.515625 C 10.257812 -24.554688 10.234375 -24.578125 10.203125 -24.578125 C 10.203125 -24.578125 10.179688 -24.566406 10.140625 -24.546875 L 10.03125 -24.515625 C 10.03125 -24.515625 10.007812 -24.523438 9.96875 -24.546875 C 9.945312 -24.546875 9.910156 -24.554688 9.859375 -24.578125 L 9.828125 -24.609375 L 9.765625 -24.78125 L 9.765625 -24.921875 L 9.6875 -24.921875 C 9.664062 -24.878906 9.644531 -24.859375 9.625 -24.859375 C 9.582031 -24.828125 9.5625 -24.8125 9.5625 -24.8125 C 9.53125 -24.863281 9.515625 -24.898438 9.515625 -24.921875 C 9.515625 -24.921875 9.53125 -24.941406 9.5625 -24.984375 L 9.5625 -25.03125 C 9.53125 -25.070312 9.503906 -25.082031 9.484375 -25.0625 C 9.460938 -25.039062 9.441406 -25.003906 9.421875 -24.953125 C 9.398438 -24.910156 9.375 -24.890625 9.34375 -24.890625 C 9.320312 -24.867188 9.3125 -24.859375 9.3125 -24.859375 L 9.25 -25.0625 C 9.25 -25.082031 9.25 -25.09375 9.25 -25.09375 C 9.25 -25.09375 9.25 -25.082031 9.25 -25.0625 C 9.226562 -25.007812 9.179688 -24.960938 9.109375 -24.921875 C 9.066406 -24.847656 9.019531 -24.828125 8.96875 -24.859375 L 8.9375 -25.09375 L 8.796875 -24.859375 L 8.765625 -25.0625 L 8.59375 -24.859375 L 8.5625 -25.03125 L 8.5625 -25.09375 L 8.484375 -24.953125 C 8.460938 -24.929688 8.453125 -24.921875 8.453125 -24.921875 C 8.359375 -24.941406 8.300781 -24.988281 8.28125 -25.0625 C 8.238281 -25.101562 8.226562 -25.125 8.25 -25.125 L 8.078125 -24.984375 C 8.078125 -25.078125 8.066406 -25.132812 8.046875 -25.15625 C 8.046875 -25.226562 8.035156 -25.242188 8.015625 -25.203125 L 7.9375 -25.09375 L 7.875 -24.984375 C 7.820312 -24.984375 7.796875 -24.984375 7.796875 -24.984375 C 7.773438 -24.984375 7.753906 -25 7.734375 -25.03125 L 7.671875 -25.0625 L 7.5625 -24.984375 L 7.5 -24.921875 C 7.445312 -24.921875 7.410156 -24.941406 7.390625 -24.984375 C 7.367188 -25.015625 7.347656 -25.050781 7.328125 -25.09375 C 7.296875 -25.113281 7.28125 -25.132812 7.28125 -25.15625 C 7.257812 -25.15625 7.25 -25.144531 7.25 -25.125 L 7.1875 -25.03125 C 7.164062 -24.976562 7.15625 -24.941406 7.15625 -24.921875 C 7.125 -24.878906 7.097656 -24.859375 7.078125 -24.859375 L 6.765625 -25.03125 C 6.648438 -25.09375 6.570312 -25.132812 6.53125 -25.15625 C 6.4375 -25.207031 6.367188 -25.222656 6.328125 -25.203125 C 5.753906 -25.109375 5.285156 -24.898438 4.921875 -24.578125 C 4.390625 -24.097656 4.066406 -23.332031 3.953125 -22.28125 L 3.953125 -3.75 C 3.953125 -3.46875 4.078125 -3.285156 4.328125 -3.203125 C 4.535156 -3.148438 4.878906 -3.132812 5.359375 -3.15625 C 5.148438 -3.15625 5.273438 -3.179688 5.734375 -3.234375 C 6.054688 -3.234375 6.320312 -3.207031 6.53125 -3.15625 C 7.3125 -2.957031 8.035156 -2.925781 8.703125 -3.0625 C 9.585938 -3.269531 10.03125 -3.816406 10.03125 -4.703125 Z M 10.03125 -12.65625 "/></g></g></g><g fill="#b7b7b7" fill-opacity="1"><g transform="translate(117.108758, 28.424973)"><g><path d="M 13.03125 -3.328125 C 13.300781 -3.328125 13.332031 -3.316406 13.125 -3.296875 C 12.945312 -3.273438 12.675781 -3.273438 12.3125 -3.296875 C 11.820312 -3.316406 11.347656 -3.382812 10.890625 -3.5 C 10.273438 -3.644531 9.703125 -3.84375 9.171875 -4.09375 C 8.078125 -4.613281 7.273438 -5.148438 6.765625 -5.703125 C 6.378906 -6.046875 6.035156 -6.53125 5.734375 -7.15625 C 6.109375 -6.300781 7.015625 -5.460938 8.453125 -4.640625 C 9.992188 -3.765625 11.519531 -3.328125 13.03125 -3.328125 Z M 8.734375 -25.5 L 8.59375 -25.296875 L 8.59375 -25.4375 C 8.570312 -25.507812 8.5625 -25.554688 8.5625 -25.578125 C 8.539062 -25.597656 8.53125 -25.585938 8.53125 -25.546875 L 8.359375 -25.296875 L 8.28125 -25.296875 C 8.375 -25.253906 8.351562 -25.28125 8.21875 -25.375 C 8.195312 -25.375 8.171875 -25.375 8.140625 -25.375 L 8.046875 -25.328125 L 7.96875 -25.234375 L 7.84375 -25.375 C 7.8125 -25.4375 7.785156 -25.476562 7.765625 -25.5 C 7.742188 -25.53125 7.722656 -25.53125 7.703125 -25.5 L 7.671875 -25.46875 C 7.640625 -25.375 7.625 -25.304688 7.625 -25.265625 C 7.582031 -25.191406 7.539062 -25.15625 7.5 -25.15625 C 7.445312 -25.15625 7.410156 -25.179688 7.390625 -25.234375 C 7.367188 -25.253906 7.332031 -25.300781 7.28125 -25.375 C 7.238281 -25.4375 7.195312 -25.476562 7.15625 -25.5 C 7.125 -25.550781 7.097656 -25.566406 7.078125 -25.546875 C 6.328125 -25.398438 5.742188 -25.179688 5.328125 -24.890625 C 4.566406 -24.359375 4.128906 -23.546875 4.015625 -22.453125 C 3.929688 -21.828125 3.890625 -20.609375 3.890625 -18.796875 C 3.890625 -17.722656 3.890625 -15.984375 3.890625 -13.578125 L 3.921875 -10.515625 C 3.921875 -8.222656 4.695312 -6.359375 6.25 -4.921875 C 7.65625 -3.628906 9.445312 -2.859375 11.625 -2.609375 C 13.707031 -2.335938 15.640625 -2.546875 17.421875 -3.234375 C 19.304688 -3.984375 20.535156 -5.09375 21.109375 -6.5625 C 21.316406 -7.09375 21.441406 -7.578125 21.484375 -8.015625 C 21.484375 -8.285156 21.484375 -8.648438 21.484375 -9.109375 C 21.460938 -9.335938 21.453125 -9.519531 21.453125 -9.65625 C 21.453125 -9.882812 21.460938 -10.082031 21.484375 -10.25 C 21.484375 -10.519531 21.492188 -10.789062 21.515625 -11.0625 C 21.535156 -11.226562 21.570312 -11.4375 21.625 -11.6875 C 21.6875 -12.03125 21.71875 -12.269531 21.71875 -12.40625 C 21.71875 -12.613281 21.660156 -12.765625 21.546875 -12.859375 C 21.503906 -12.878906 21.414062 -12.8125 21.28125 -12.65625 C 21.1875 -12.539062 21.015625 -12.3125 20.765625 -11.96875 C 20.554688 -11.644531 20.382812 -11.414062 20.25 -11.28125 C 20.0625 -11 19.890625 -10.753906 19.734375 -10.546875 C 18.535156 -9.203125 17.148438 -8.425781 15.578125 -8.21875 C 13.941406 -8.007812 12.609375 -8.46875 11.578125 -9.59375 C 11.097656 -10.113281 10.789062 -10.992188 10.65625 -12.234375 C 10.539062 -13.335938 10.53125 -13.890625 10.625 -13.890625 L 10.625 -23.0625 C 10.601562 -23.132812 10.601562 -23.238281 10.625 -23.375 C 10.644531 -23.46875 10.691406 -23.601562 10.765625 -23.78125 C 10.828125 -24.0625 10.867188 -24.257812 10.890625 -24.375 C 10.941406 -24.582031 10.957031 -24.726562 10.9375 -24.8125 C 10.90625 -24.863281 10.878906 -24.890625 10.859375 -24.890625 C 10.835938 -24.890625 10.804688 -24.878906 10.765625 -24.859375 L 10.625 -24.8125 C 10.601562 -24.8125 10.566406 -24.828125 10.515625 -24.859375 C 10.472656 -24.878906 10.441406 -24.898438 10.421875 -24.921875 C 10.367188 -24.941406 10.34375 -24.960938 10.34375 -24.984375 C 10.34375 -25.015625 10.34375 -25.050781 10.34375 -25.09375 L 10.3125 -25.234375 L 10.25 -25.234375 C 10.21875 -25.179688 10.191406 -25.15625 10.171875 -25.15625 C 10.148438 -25.132812 10.128906 -25.125 10.109375 -25.125 L 10.109375 -25.265625 C 10.128906 -25.285156 10.140625 -25.296875 10.140625 -25.296875 C 10.140625 -25.316406 10.128906 -25.328125 10.109375 -25.328125 C 10.085938 -25.378906 10.0625 -25.394531 10.03125 -25.375 C 10.03125 -25.375 10.019531 -25.347656 10 -25.296875 C 9.976562 -25.253906 9.957031 -25.222656 9.9375 -25.203125 C 9.914062 -25.171875 9.90625 -25.15625 9.90625 -25.15625 L 9.828125 -25.40625 C 9.828125 -25.425781 9.828125 -25.4375 9.828125 -25.4375 C 9.828125 -25.4375 9.828125 -25.414062 9.828125 -25.375 L 9.765625 -25.328125 C 9.710938 -25.265625 9.664062 -25.222656 9.625 -25.203125 C 9.601562 -25.148438 9.582031 -25.132812 9.5625 -25.15625 L 9.515625 -25.46875 L 9.390625 -25.15625 L 9.34375 -25.375 C 9.320312 -25.375 9.28125 -25.347656 9.21875 -25.296875 C 9.125 -25.253906 9.078125 -25.207031 9.078125 -25.15625 L 9.078125 -25.46875 L 9 -25.328125 C 8.976562 -25.285156 8.96875 -25.253906 8.96875 -25.234375 C 8.945312 -25.234375 8.9375 -25.234375 8.9375 -25.234375 C 8.84375 -25.273438 8.785156 -25.320312 8.765625 -25.375 C 8.742188 -25.394531 8.734375 -25.4375 8.734375 -25.5 Z M 8.734375 -25.5 "/></g></g></g><g clip-path="url(#be10c07e2e)"><path fill="#b7b7b7" d="M 30.007812 4.511719 C 29.910156 4.40625 29.777344 4.34375 29.632812 4.34375 L 9.652344 4.34375 C 9.507812 4.34375 9.371094 4.40625 9.273438 4.511719 C 9.175781 4.617188 9.128906 4.757812 9.140625 4.902344 L 10.941406 25.0625 C 10.960938 25.273438 11.105469 25.453125 11.3125 25.511719 L 19.5 27.847656 C 19.542969 27.863281 19.589844 27.867188 19.640625 27.867188 C 19.6875 27.867188 19.734375 27.863281 19.777344 27.847656 L 27.972656 25.511719 C 28.175781 25.453125 28.324219 25.273438 28.34375 25.0625 L 30.140625 4.902344 C 30.152344 4.757812 30.105469 4.617188 30.007812 4.511719 Z M 25.699219 11.460938 L 16.082031 11.460938 L 16.308594 14.066406 L 25.46875 14.066406 L 24.78125 21.757812 L 19.636719 23.3125 L 19.585938 23.296875 L 14.503906 21.757812 L 14.226562 18.621094 L 16.714844 18.621094 L 16.824219 19.839844 L 19.667969 20.433594 L 22.457031 19.835938 L 22.753906 16.546875 L 14.039062 16.546875 L 13.363281 8.972656 L 25.921875 8.972656 Z M 25.699219 11.460938 " fill-opacity="1" fill-rule="nonzero"/></g></svg>