<svg xmlns="http://www.w3.org/2000/svg" xmlns:xlink="http://www.w3.org/1999/xlink" width="198" zoomAndPan="magnify" viewBox="0 0 148.5 31.5" height="42" preserveAspectRatio="xMidYMid meet" version="1.0"><defs><g/><clipPath id="ec125d2882"><path d="M 7.90625 8.777344 L 33 8.777344 L 33 23.542969 L 7.90625 23.542969 Z M 7.90625 8.777344 " clip-rule="nonzero"/></clipPath></defs><g fill="#b7b7b7" fill-opacity="1"><g transform="translate(34.008965, 25.108527)"><g><path d="M 10.671875 -8.671875 C 10.554688 -8.773438 10.316406 -9.117188 9.953125 -9.703125 C 9.671875 -10.191406 9.46875 -10.546875 9.34375 -10.765625 C 9.1875 -10.992188 9.054688 -11.21875 8.953125 -11.4375 C 8.828125 -11.707031 8.75 -11.921875 8.71875 -12.078125 C 8.851562 -11.835938 9.203125 -11.234375 9.765625 -10.265625 C 10.316406 -9.296875 10.617188 -8.765625 10.671875 -8.671875 Z M 14.765625 -6 C 14.640625 -5.34375 14.390625 -4.722656 14.015625 -4.140625 C 13.554688 -3.390625 13.050781 -2.972656 12.5 -2.890625 C 12.03125 -2.847656 11.59375 -2.921875 11.1875 -3.109375 C 10.851562 -3.265625 10.546875 -3.492188 10.265625 -3.796875 C 10.140625 -3.890625 10.03125 -4 9.9375 -4.125 C 9.851562 -4.226562 9.796875 -4.328125 9.765625 -4.421875 C 9.722656 -4.503906 9.703125 -4.550781 9.703125 -4.5625 C 9.703125 -4.59375 9.722656 -4.578125 9.765625 -4.515625 C 10.148438 -4.046875 10.484375 -3.703125 10.765625 -3.484375 C 11.242188 -3.117188 11.773438 -2.945312 12.359375 -2.96875 C 12.703125 -2.976562 13.046875 -3.148438 13.390625 -3.484375 C 13.648438 -3.734375 13.90625 -4.078125 14.15625 -4.515625 C 14.320312 -4.816406 14.476562 -5.164062 14.625 -5.5625 C 14.71875 -5.851562 14.765625 -6 14.765625 -6 Z M 6.875 -16.640625 C 6.875 -16.691406 6.867188 -16.757812 6.859375 -16.84375 C 6.828125 -16.914062 6.796875 -16.9375 6.765625 -16.90625 L 6.703125 -16.9375 C 6.703125 -16.945312 6.703125 -16.953125 6.703125 -16.953125 C 6.703125 -16.972656 6.695312 -16.984375 6.6875 -16.984375 L 6.609375 -17 L 6.515625 -17.078125 L 6.46875 -17.078125 C 6.457031 -17.046875 6.441406 -17.03125 6.421875 -17.03125 C 6.390625 -17.007812 6.375 -17 6.375 -17 C 6.363281 -17.03125 6.359375 -17.054688 6.359375 -17.078125 C 6.359375 -17.078125 6.363281 -17.09375 6.375 -17.125 L 6.375 -17.140625 C 6.363281 -17.171875 6.347656 -17.179688 6.328125 -17.171875 C 6.316406 -17.148438 6.300781 -17.125 6.28125 -17.09375 C 6.269531 -17.0625 6.253906 -17.046875 6.234375 -17.046875 C 6.222656 -17.035156 6.21875 -17.03125 6.21875 -17.03125 L 6.1875 -17.171875 C 6.144531 -17.117188 6.109375 -17.085938 6.078125 -17.078125 C 6.023438 -17.023438 5.992188 -17.007812 5.984375 -17.03125 L 5.953125 -17.1875 L 5.890625 -17.03125 L 5.859375 -17.171875 L 5.71875 -17.03125 L 5.703125 -17.140625 L 5.703125 -17.1875 L 5.65625 -17.09375 C 5.632812 -17.082031 5.625 -17.078125 5.625 -17.078125 C 5.5625 -17.085938 5.523438 -17.117188 5.515625 -17.171875 C 5.484375 -17.203125 5.472656 -17.21875 5.484375 -17.21875 L 5.390625 -17.125 L 5.375 -17.21875 C 5.351562 -17.25 5.34375 -17.269531 5.34375 -17.28125 C 5.332031 -17.300781 5.328125 -17.296875 5.328125 -17.265625 L 5.28125 -17.1875 L 5.234375 -17.125 C 5.203125 -17.125 5.1875 -17.125 5.1875 -17.125 C 5.164062 -17.125 5.148438 -17.128906 5.140625 -17.140625 L 5.09375 -17.171875 L 5.015625 -17.125 L 4.96875 -17.078125 C 4.9375 -17.078125 4.910156 -17.09375 4.890625 -17.125 C 4.890625 -17.132812 4.882812 -17.15625 4.875 -17.1875 C 4.851562 -17.207031 4.84375 -17.222656 4.84375 -17.234375 C 4.832031 -17.234375 4.828125 -17.226562 4.828125 -17.21875 L 4.78125 -17.140625 C 4.757812 -17.109375 4.742188 -17.085938 4.734375 -17.078125 C 4.710938 -17.046875 4.695312 -17.03125 4.6875 -17.03125 L 4.421875 -17.140625 C 4.328125 -17.191406 4.257812 -17.222656 4.21875 -17.234375 C 4.132812 -17.265625 4.078125 -17.273438 4.046875 -17.265625 C 3.660156 -17.203125 3.335938 -17.0625 3.078125 -16.84375 C 2.722656 -16.507812 2.503906 -15.984375 2.421875 -15.265625 L 2.421875 -2.5625 C 2.421875 -2.375 2.515625 -2.25 2.703125 -2.1875 C 2.847656 -2.15625 3.078125 -2.148438 3.390625 -2.171875 C 3.210938 -2.171875 3.320312 -2.1875 3.71875 -2.21875 C 3.96875 -2.21875 4.164062 -2.203125 4.3125 -2.171875 C 4.84375 -2.023438 5.34375 -2 5.8125 -2.09375 C 6.445312 -2.238281 6.765625 -2.613281 6.765625 -3.21875 L 6.765625 -7.8125 C 7.117188 -7.09375 7.476562 -6.4375 7.84375 -5.84375 C 8.1875 -5.226562 8.507812 -4.734375 8.8125 -4.359375 L 8.859375 -4.234375 C 9.390625 -3.578125 9.828125 -3.113281 10.171875 -2.84375 C 10.765625 -2.375 11.445312 -2.140625 12.21875 -2.140625 C 13.519531 -2.140625 14.503906 -3.019531 15.171875 -4.78125 C 15.648438 -6.082031 15.898438 -7.554688 15.921875 -9.203125 L 15.9375 -10.78125 C 15.96875 -12.007812 15.960938 -12.90625 15.921875 -13.46875 C 15.828125 -14.375 15.625 -15.195312 15.3125 -15.9375 C 15.070312 -16.425781 14.738281 -16.765625 14.3125 -16.953125 C 13.957031 -17.109375 13.476562 -17.1875 12.875 -17.1875 L 12.203125 -17.1875 C 11.921875 -17.175781 11.707031 -17.171875 11.5625 -17.171875 C 11.3125 -17.171875 11.078125 -17.175781 10.859375 -17.1875 L 10.53125 -17.3125 C 10.40625 -17.375 10.316406 -17.40625 10.265625 -17.40625 C 10.203125 -17.40625 10.171875 -17.359375 10.171875 -17.265625 C 10.171875 -17.203125 10.226562 -17.09375 10.34375 -16.9375 C 10.414062 -16.832031 10.523438 -16.710938 10.671875 -16.578125 L 10.78125 -16.4375 C 11.082031 -16.09375 11.296875 -15.71875 11.421875 -15.3125 C 11.492188 -15.039062 11.578125 -14.535156 11.671875 -13.796875 L 11.71875 -13.59375 C 11.769531 -13.039062 11.796875 -12.457031 11.796875 -11.84375 C 11.796875 -11.445312 11.789062 -10.8125 11.78125 -9.9375 C 11.757812 -9.5625 11.703125 -9.222656 11.609375 -8.921875 C 11.484375 -8.578125 11.359375 -8.492188 11.234375 -8.671875 C 10.828125 -9.210938 10.050781 -10.550781 8.90625 -12.6875 C 8.238281 -13.945312 7.5625 -15.265625 6.875 -16.640625 Z M 6.875 -16.640625 "/></g></g></g><g fill="#b7b7b7" fill-opacity="1"><g transform="translate(52.373486, 25.108527)"><g><path d="M 9.703125 -2.1875 C 8.773438 -2.0625 7.816406 -2.179688 6.828125 -2.546875 C 5.867188 -2.859375 5.21875 -3.28125 4.875 -3.8125 C 5.125 -3.53125 5.507812 -3.253906 6.03125 -2.984375 C 6.582031 -2.722656 7.066406 -2.546875 7.484375 -2.453125 C 7.972656 -2.359375 8.414062 -2.285156 8.8125 -2.234375 C 9.164062 -2.191406 9.460938 -2.175781 9.703125 -2.1875 Z M 13.734375 -5.671875 C 13.535156 -5.421875 13.210938 -5.1875 12.765625 -4.96875 C 12.265625 -4.75 11.738281 -4.613281 11.1875 -4.5625 C 10.5625 -4.5 9.976562 -4.5625 9.4375 -4.75 C 8.832031 -4.957031 8.332031 -5.328125 7.9375 -5.859375 C 8.332031 -5.410156 8.8125 -5.082031 9.375 -4.875 C 9.863281 -4.6875 10.363281 -4.597656 10.875 -4.609375 C 11.601562 -4.671875 12.285156 -4.851562 12.921875 -5.15625 C 13.367188 -5.375 13.640625 -5.546875 13.734375 -5.671875 Z M 3.125 -13.84375 C 3.082031 -13.445312 3.0625 -12.796875 3.0625 -11.890625 C 3.0625 -11.367188 3.066406 -10.484375 3.078125 -9.234375 L 3.109375 -7 C 3.109375 -4.769531 4.066406 -3.207031 5.984375 -2.3125 C 7.390625 -1.664062 8.988281 -1.453125 10.78125 -1.671875 C 11.507812 -1.765625 12.253906 -1.984375 13.015625 -2.328125 C 14.023438 -2.796875 14.644531 -3.367188 14.875 -4.046875 C 14.988281 -4.410156 15.0625 -4.734375 15.09375 -5.015625 C 15.101562 -5.191406 15.101562 -5.410156 15.09375 -5.671875 L 15.109375 -6.125 L 15.1875 -6.875 C 15.25 -7.269531 15.289062 -7.550781 15.3125 -7.71875 C 15.320312 -7.988281 15.304688 -8.144531 15.265625 -8.1875 C 15.234375 -8.21875 15.175781 -8.179688 15.09375 -8.078125 C 15.039062 -7.992188 14.945312 -7.859375 14.8125 -7.671875 C 14.6875 -7.441406 14.582031 -7.265625 14.5 -7.140625 C 14.363281 -6.953125 14.238281 -6.773438 14.125 -6.609375 C 13.382812 -5.691406 12.390625 -5.175781 11.140625 -5.0625 C 9.878906 -4.96875 8.925781 -5.304688 8.28125 -6.078125 C 8.113281 -6.273438 7.96875 -6.570312 7.84375 -6.96875 C 7.75 -7.34375 7.675781 -7.78125 7.625 -8.28125 L 13.328125 -8.28125 C 13.785156 -8.28125 14.097656 -8.3125 14.265625 -8.375 C 14.546875 -8.476562 14.679688 -8.65625 14.671875 -8.90625 L 14.625 -9.4375 L 14.59375 -9.578125 C 14.59375 -9.753906 14.59375 -9.90625 14.59375 -10.03125 C 14.59375 -10.28125 14.609375 -10.484375 14.640625 -10.640625 C 14.640625 -10.691406 14.632812 -10.75 14.625 -10.8125 C 14.601562 -10.84375 14.585938 -10.894531 14.578125 -10.96875 L 14.546875 -11.09375 C 14.535156 -11.09375 14.550781 -11.082031 14.59375 -11.0625 C 14.625 -11.0625 14.632812 -11.070312 14.625 -11.09375 L 14.546875 -11.203125 L 14.640625 -11.296875 L 14.546875 -11.4375 C 14.503906 -11.4375 14.515625 -11.429688 14.578125 -11.421875 C 14.609375 -11.421875 14.644531 -11.4375 14.6875 -11.46875 L 14.546875 -11.515625 L 14.546875 -11.5625 C 14.578125 -11.59375 14.59375 -11.613281 14.59375 -11.625 C 14.59375 -11.644531 14.578125 -11.675781 14.546875 -11.71875 L 7.5625 -11.71875 C 7.5625 -12.164062 7.578125 -12.609375 7.609375 -13.046875 C 7.617188 -13.410156 7.632812 -13.59375 7.65625 -13.59375 L 7.65625 -13.6875 C 9.207031 -13.65625 10.628906 -13.671875 11.921875 -13.734375 C 13.285156 -13.773438 14.144531 -13.867188 14.5 -14.015625 C 14.519531 -14.023438 14.53125 -14.039062 14.53125 -14.0625 C 14.507812 -14.070312 14.492188 -14.09375 14.484375 -14.125 L 14.453125 -14.21875 L 14.40625 -14.390625 L 14.4375 -14.4375 C 14.46875 -14.445312 14.484375 -14.460938 14.484375 -14.484375 C 14.515625 -14.492188 14.53125 -14.507812 14.53125 -14.53125 L 14.40625 -14.6875 L 14.453125 -14.8125 L 14.53125 -14.90625 L 14.578125 -16.21875 C 14.578125 -16.394531 14.59375 -16.5625 14.625 -16.71875 C 14.632812 -16.8125 14.65625 -16.9375 14.6875 -17.09375 C 14.738281 -17.28125 14.75 -17.398438 14.71875 -17.453125 C 14.664062 -17.492188 14.507812 -17.5 14.25 -17.46875 C 13.820312 -17.425781 13.097656 -17.394531 12.078125 -17.375 C 11.265625 -17.363281 10.285156 -17.359375 9.140625 -17.359375 L 5.421875 -17.359375 L 4.734375 -17.40625 C 4.203125 -17.4375 3.84375 -17.441406 3.65625 -17.421875 C 3.300781 -17.390625 3.101562 -17.289062 3.0625 -17.125 C 3.0625 -17.070312 3.046875 -17.015625 3.015625 -16.953125 C 2.992188 -16.921875 2.96875 -16.875 2.9375 -16.8125 L 2.875 -16.640625 C 2.875 -16.628906 2.875 -16.613281 2.875 -16.59375 C 2.882812 -16.582031 2.898438 -16.566406 2.921875 -16.546875 C 2.929688 -16.515625 2.9375 -16.492188 2.9375 -16.484375 C 2.96875 -16.460938 2.984375 -16.429688 2.984375 -16.390625 L 2.984375 -15.265625 C 2.984375 -15.234375 2.96875 -15.203125 2.9375 -15.171875 C 2.9375 -15.148438 2.921875 -15.125 2.890625 -15.09375 C 2.859375 -15.070312 2.84375 -15.054688 2.84375 -15.046875 C 2.84375 -15.023438 2.851562 -15.007812 2.875 -15 L 2.921875 -14.96875 C 2.929688 -14.96875 2.9375 -14.960938 2.9375 -14.953125 C 2.96875 -14.929688 2.984375 -14.914062 2.984375 -14.90625 C 2.953125 -14.90625 2.929688 -14.90625 2.921875 -14.90625 C 2.859375 -14.882812 2.847656 -14.859375 2.890625 -14.828125 C 2.910156 -14.828125 2.941406 -14.820312 2.984375 -14.8125 C 3.066406 -14.78125 3.109375 -14.753906 3.109375 -14.734375 L 3.03125 -14.71875 C 2.9375 -14.6875 2.867188 -14.660156 2.828125 -14.640625 C 2.734375 -14.597656 2.6875 -14.5625 2.6875 -14.53125 C 2.6875 -14.507812 2.71875 -14.507812 2.78125 -14.53125 C 2.8125 -14.539062 2.863281 -14.5625 2.9375 -14.59375 L 3.0625 -14.625 C 3.039062 -14.59375 3.007812 -14.550781 2.96875 -14.5 C 2.9375 -14.46875 2.910156 -14.453125 2.890625 -14.453125 L 2.921875 -14.453125 L 3.015625 -14.390625 L 2.921875 -14.25 L 3.03125 -14.3125 C 3.03125 -14.3125 3.015625 -14.289062 2.984375 -14.25 C 2.953125 -14.195312 2.929688 -14.15625 2.921875 -14.125 L 2.984375 -14.125 L 2.96875 -14.078125 L 2.9375 -13.9375 C 2.9375 -13.894531 2.960938 -13.875 3.015625 -13.875 C 3.023438 -13.851562 3.0625 -13.84375 3.125 -13.84375 Z M 3.125 -13.84375 "/></g></g></g><g fill="#b7b7b7" fill-opacity="1"><g transform="translate(70.267117, 25.108527)"><g><path d="M 8.78125 -13.046875 L 5.90625 -16.0625 C 5.34375 -16.5625 4.84375 -16.820312 4.40625 -16.84375 C 4.09375 -16.851562 3.769531 -16.753906 3.4375 -16.546875 C 3.425781 -16.546875 3.410156 -16.53125 3.390625 -16.5 C 3.378906 -16.46875 3.363281 -16.414062 3.34375 -16.34375 C 3.34375 -16.25 3.332031 -16.1875 3.3125 -16.15625 C 3.300781 -16.070312 3.285156 -16.015625 3.265625 -15.984375 C 3.234375 -15.984375 3.203125 -15.984375 3.171875 -15.984375 C 3.140625 -15.984375 3.101562 -15.992188 3.0625 -16.015625 L 2.984375 -16.015625 C 2.953125 -16.046875 2.9375 -16.050781 2.9375 -16.03125 C 2.9375 -16.03125 2.945312 -16.015625 2.96875 -15.984375 C 3 -15.941406 3.015625 -15.910156 3.015625 -15.890625 C 3.023438 -15.847656 3.023438 -15.816406 3.015625 -15.796875 C 2.984375 -15.785156 2.957031 -15.785156 2.9375 -15.796875 C 2.9375 -15.796875 2.929688 -15.8125 2.921875 -15.84375 L 2.890625 -15.84375 L 2.875 -15.75 L 2.875 -15.703125 L 2.6875 -15.734375 C 2.65625 -15.734375 2.640625 -15.722656 2.640625 -15.703125 C 2.640625 -15.703125 2.644531 -15.6875 2.65625 -15.65625 L 2.6875 -15.59375 C 2.664062 -15.570312 2.648438 -15.570312 2.640625 -15.59375 C 2.617188 -15.59375 2.59375 -15.597656 2.5625 -15.609375 L 2.546875 -15.640625 L 2.546875 -15.609375 C 2.578125 -15.578125 2.59375 -15.546875 2.59375 -15.515625 C 2.59375 -15.472656 2.578125 -15.425781 2.546875 -15.375 L 2.5 -15.40625 L 2.421875 -15.453125 C 2.410156 -15.453125 2.40625 -15.453125 2.40625 -15.453125 C 2.40625 -15.429688 2.410156 -15.414062 2.421875 -15.40625 C 2.453125 -15.382812 2.46875 -15.367188 2.46875 -15.359375 C 2.488281 -15.328125 2.488281 -15.300781 2.46875 -15.28125 C 2.46875 -15.3125 2.421875 -15.3125 2.328125 -15.28125 C 2.234375 -15.25 2.195312 -15.234375 2.21875 -15.234375 L 2.328125 -15.140625 L 2.140625 -15.21875 L 2.265625 -15.046875 C 2.242188 -15.015625 2.203125 -15.003906 2.140625 -15.015625 C 2.097656 -15.015625 2.046875 -15.03125 1.984375 -15.0625 C 1.960938 -15.0625 1.953125 -15.0625 1.953125 -15.0625 C 1.972656 -15.050781 1.988281 -15.035156 2 -15.015625 C 2.03125 -14.984375 2.046875 -14.96875 2.046875 -14.96875 C 2.078125 -14.9375 2.09375 -14.90625 2.09375 -14.875 L 2 -14.90625 C 1.96875 -14.90625 1.945312 -14.90625 1.9375 -14.90625 C 1.914062 -14.914062 1.90625 -14.90625 1.90625 -14.875 C 1.90625 -14.863281 1.90625 -14.847656 1.90625 -14.828125 C 1.925781 -14.828125 1.941406 -14.820312 1.953125 -14.8125 L 2 -14.765625 C 2 -14.742188 1.992188 -14.726562 1.984375 -14.71875 C 1.960938 -14.71875 1.945312 -14.71875 1.9375 -14.71875 L 1.890625 -14.6875 L 1.90625 -14.6875 C 1.925781 -14.65625 1.941406 -14.640625 1.953125 -14.640625 C 1.972656 -14.609375 1.984375 -14.578125 1.984375 -14.546875 L 1.953125 -14.484375 L 1.953125 -14.34375 L 1.90625 -14.34375 C 1.84375 -14.3125 1.804688 -14.285156 1.796875 -14.265625 C 1.765625 -14.234375 1.753906 -14.203125 1.765625 -14.171875 C 1.796875 -14.097656 1.890625 -13.988281 2.046875 -13.84375 C 2.140625 -13.769531 2.289062 -13.660156 2.5 -13.515625 L 2.6875 -13.375 L 6.078125 -9.703125 L 2.375 -4.984375 C 2.175781 -4.703125 2.140625 -4.398438 2.265625 -4.078125 C 2.398438 -3.710938 2.710938 -3.375 3.203125 -3.0625 L 3.625 -2.890625 L 4.078125 -2.65625 L 4.1875 -2.546875 C 4.28125 -2.429688 4.351562 -2.351562 4.40625 -2.3125 C 4.5 -2.226562 4.566406 -2.179688 4.609375 -2.171875 C 4.703125 -2.117188 4.894531 -2.101562 5.1875 -2.125 C 5.5 -2.132812 5.734375 -2.171875 5.890625 -2.234375 L 9.15625 -6.375 L 12.71875 -2.609375 C 12.945312 -2.347656 13.171875 -2.203125 13.390625 -2.171875 C 13.554688 -2.140625 13.75 -2.191406 13.96875 -2.328125 L 14.21875 -2.546875 L 14.5 -2.890625 L 14.875 -3.3125 C 15.03125 -3.476562 15.144531 -3.597656 15.21875 -3.671875 C 15.34375 -3.785156 15.457031 -3.875 15.5625 -3.9375 C 15.78125 -4.15625 15.953125 -4.375 16.078125 -4.59375 C 16.234375 -4.882812 16.242188 -5.101562 16.109375 -5.25 L 11.84375 -9.796875 L 16.3125 -15.40625 C 16.3125 -15.46875 16.28125 -15.519531 16.21875 -15.5625 C 16.1875 -15.613281 16.132812 -15.660156 16.0625 -15.703125 L 15.875 -15.890625 L 15.890625 -15.984375 L 15.796875 -15.984375 L 15.75 -15.96875 C 15.738281 -15.976562 15.765625 -16.007812 15.828125 -16.0625 C 15.867188 -16.101562 15.898438 -16.125 15.921875 -16.125 L 15.734375 -16.03125 L 15.75 -16.125 C 15.738281 -16.144531 15.722656 -16.15625 15.703125 -16.15625 C 15.703125 -16.15625 15.695312 -16.144531 15.6875 -16.125 L 15.640625 -16.109375 L 15.78125 -16.265625 C 15.78125 -16.296875 15.75 -16.296875 15.6875 -16.265625 C 15.601562 -16.203125 15.570312 -16.171875 15.59375 -16.171875 L 15.65625 -16.296875 L 15.5 -16.21875 L 15.609375 -16.390625 L 15.453125 -16.265625 L 15.453125 -16.453125 L 15.359375 -16.359375 L 15.3125 -16.265625 L 15.375 -16.40625 C 15.375 -16.4375 15.359375 -16.445312 15.328125 -16.4375 C 15.285156 -16.40625 15.269531 -16.390625 15.28125 -16.390625 L 15.28125 -16.53125 L 15.3125 -16.640625 L 15.046875 -16.53125 C 15.023438 -16.53125 15.039062 -16.566406 15.09375 -16.640625 C 15.144531 -16.691406 15.171875 -16.703125 15.171875 -16.671875 C 15.171875 -16.671875 15.117188 -16.671875 15.015625 -16.671875 C 14.941406 -16.679688 14.90625 -16.695312 14.90625 -16.71875 C 14.90625 -16.71875 14.90625 -16.734375 14.90625 -16.765625 C 14.914062 -16.816406 14.914062 -16.847656 14.90625 -16.859375 L 14.828125 -16.90625 L 14.71875 -16.984375 C 14.59375 -17.140625 14.410156 -17.28125 14.171875 -17.40625 C 13.921875 -17.53125 13.726562 -17.59375 13.59375 -17.59375 C 13.039062 -17.59375 12.671875 -17.546875 12.484375 -17.453125 C 12.328125 -17.390625 12.109375 -17.1875 11.828125 -16.84375 L 11.78125 -16.765625 Z M 8.78125 -13.046875 "/></g></g></g><g fill="#b7b7b7" fill-opacity="1"><g transform="translate(88.631637, 25.108527)"><g><path d="M 5.953125 -13.296875 L 5.9375 -2.5 C 5.9375 -2.25 6.050781 -2.097656 6.28125 -2.046875 C 6.425781 -2.035156 6.609375 -2.046875 6.828125 -2.078125 L 6.859375 -2.09375 C 6.867188 -2.09375 6.875 -2.09375 6.875 -2.09375 C 6.90625 -2.082031 6.9375 -2.0625 6.96875 -2.03125 L 7.109375 -2.125 C 7.171875 -2.164062 7.21875 -2.203125 7.25 -2.234375 C 7.3125 -2.265625 7.367188 -2.265625 7.421875 -2.234375 C 7.429688 -2.222656 7.460938 -2.21875 7.515625 -2.21875 C 7.546875 -2.195312 7.59375 -2.1875 7.65625 -2.1875 L 7.8125 -2.21875 L 7.984375 -2.234375 L 8.046875 -2.21875 C 8.109375 -2.1875 8.15625 -2.171875 8.1875 -2.171875 C 8.238281 -2.140625 8.296875 -2.125 8.359375 -2.125 L 8.4375 -2.171875 L 8.59375 -2.1875 L 8.828125 -2.140625 L 9.203125 -2.234375 C 9.253906 -2.253906 9.316406 -2.25 9.390625 -2.21875 C 9.441406 -2.195312 9.519531 -2.15625 9.625 -2.09375 C 9.71875 -2.0625 9.78125 -2.039062 9.8125 -2.03125 C 9.863281 -2.007812 9.90625 -2 9.9375 -2 L 10.15625 -2.078125 C 10.257812 -2.117188 10.367188 -2.3125 10.484375 -2.65625 C 10.578125 -2.988281 10.625 -3.3125 10.625 -3.625 L 10.640625 -13.25 C 11.710938 -13.269531 12.582031 -13.300781 13.25 -13.34375 C 14.039062 -13.394531 14.546875 -13.453125 14.765625 -13.515625 L 14.78125 -13.5625 C 14.863281 -13.613281 14.921875 -13.660156 14.953125 -13.703125 C 15.015625 -13.753906 15.046875 -13.800781 15.046875 -13.84375 C 15.046875 -13.925781 15.035156 -13.96875 15.015625 -13.96875 C 15.015625 -13.96875 15.023438 -13.96875 15.046875 -13.96875 L 15.09375 -14.15625 L 15 -14.203125 L 15.09375 -14.21875 L 15 -14.296875 L 15.109375 -14.3125 L 15 -14.390625 L 15.0625 -14.546875 L 15 -14.640625 L 15 -14.671875 L 15.09375 -14.765625 L 14.953125 -14.765625 L 15.0625 -14.859375 L 15.046875 -15.46875 L 15.0625 -15.84375 C 15.0625 -15.875 15.054688 -15.90625 15.046875 -15.9375 C 15.023438 -15.9375 15.007812 -15.953125 15 -15.984375 L 14.953125 -16.0625 C 14.953125 -16.101562 14.957031 -16.125 14.96875 -16.125 C 14.96875 -16.144531 14.984375 -16.15625 15.015625 -16.15625 L 15.0625 -16.171875 C 15.0625 -16.203125 15.039062 -16.21875 15 -16.21875 C 14.976562 -16.21875 14.960938 -16.21875 14.953125 -16.21875 C 14.953125 -16.21875 14.96875 -16.234375 15 -16.265625 C 15.03125 -16.296875 15.046875 -16.335938 15.046875 -16.390625 C 15.046875 -16.796875 14.988281 -17.054688 14.875 -17.171875 C 14.769531 -17.296875 14.53125 -17.347656 14.15625 -17.328125 C 13.351562 -17.285156 11.453125 -17.28125 8.453125 -17.3125 C 3.953125 -17.320312 2.53125 -17.328125 4.1875 -17.328125 L 3.65625 -17.359375 C 3.207031 -17.367188 2.90625 -17.359375 2.75 -17.328125 C 2.46875 -17.285156 2.273438 -17.160156 2.171875 -16.953125 C 2.109375 -16.878906 2.066406 -16.800781 2.046875 -16.71875 C 2.035156 -16.6875 2.03125 -16.613281 2.03125 -16.5 L 2.046875 -16.390625 L 2.046875 -16.03125 L 2 -15.921875 C 1.988281 -15.867188 1.984375 -15.835938 1.984375 -15.828125 C 1.984375 -15.796875 2 -15.765625 2.03125 -15.734375 L 2.09375 -15.59375 L 2.046875 -15.59375 C 2.015625 -15.570312 1.992188 -15.554688 1.984375 -15.546875 C 1.960938 -15.523438 1.96875 -15.492188 2 -15.453125 C 2.03125 -15.453125 2.054688 -15.453125 2.078125 -15.453125 C 2.109375 -15.453125 2.113281 -15.4375 2.09375 -15.40625 L 2 -15.328125 C 2 -15.316406 2.007812 -15.3125 2.03125 -15.3125 C 2.03125 -15.3125 2.046875 -15.3125 2.078125 -15.3125 C 2.085938 -15.3125 2.09375 -15.3125 2.09375 -15.3125 C 2.113281 -15.289062 2.125 -15.273438 2.125 -15.265625 C 2.101562 -15.234375 2.078125 -15.207031 2.046875 -15.1875 C 2.035156 -15.15625 2.019531 -15.140625 2 -15.140625 C 1.96875 -15.140625 1.960938 -15.140625 1.984375 -15.140625 C 1.992188 -15.117188 2.015625 -15.101562 2.046875 -15.09375 L 2.09375 -15.046875 L 2.03125 -15 L 2.09375 -14.90625 L 2.046875 -14.828125 L 2.078125 -14.71875 L 2.09375 -14.625 C 2.082031 -14.601562 2.066406 -14.453125 2.046875 -14.171875 C 2.046875 -13.878906 2.054688 -13.734375 2.078125 -13.734375 C 2.054688 -13.679688 2.0625 -13.625 2.09375 -13.5625 C 2.125 -13.5 2.164062 -13.46875 2.21875 -13.46875 C 2.632812 -13.4375 3.191406 -13.410156 3.890625 -13.390625 C 4.390625 -13.359375 5.078125 -13.328125 5.953125 -13.296875 Z M 5.953125 -13.296875 "/></g></g></g><g fill="#b7b7b7" fill-opacity="1"><g transform="translate(106.05438, 25.108527)"><g><path d="M 10.390625 -4.421875 C 10.148438 -3.671875 9.691406 -3.03125 9.015625 -2.5 C 8.335938 -1.96875 7.65625 -1.703125 6.96875 -1.703125 C 7.144531 -1.703125 7.363281 -1.75 7.625 -1.84375 C 7.957031 -1.945312 8.304688 -2.109375 8.671875 -2.328125 C 9.054688 -2.597656 9.414062 -2.925781 9.75 -3.3125 C 9.988281 -3.664062 10.203125 -4.035156 10.390625 -4.421875 Z M 12.765625 -16.390625 C 12.671875 -16.367188 12.359375 -16.351562 11.828125 -16.34375 C 11.410156 -16.320312 11.070312 -16.3125 10.8125 -16.3125 L 9.703125 -16.34375 C 10.046875 -16.40625 10.632812 -16.4375 11.46875 -16.4375 C 12.25 -16.4375 12.679688 -16.421875 12.765625 -16.390625 Z M 6.875 -13.6875 C 6.9375 -12.507812 6.9375 -11.195312 6.875 -9.75 C 6.800781 -7.394531 6.535156 -5.941406 6.078125 -5.390625 C 5.429688 -4.648438 4.796875 -4.3125 4.171875 -4.375 C 3.566406 -4.4375 3.046875 -4.816406 2.609375 -5.515625 C 2.472656 -5.742188 2.332031 -5.890625 2.1875 -5.953125 C 2.0625 -6.015625 1.976562 -6.007812 1.9375 -5.9375 C 1.875 -5.90625 1.84375 -5.832031 1.84375 -5.71875 C 1.84375 -5.65625 1.863281 -5.515625 1.90625 -5.296875 L 1.953125 -5.015625 L 2.125 -3.9375 C 2.257812 -3.175781 2.609375 -2.554688 3.171875 -2.078125 C 3.660156 -1.679688 4.265625 -1.40625 4.984375 -1.25 C 6.328125 -1.007812 7.539062 -1.160156 8.625 -1.703125 C 10.375 -2.554688 11.25 -4.359375 11.25 -7.109375 L 11.234375 -13.6875 L 13.890625 -13.6875 C 13.972656 -13.6875 14.03125 -13.703125 14.0625 -13.734375 C 14.070312 -13.734375 14.078125 -13.765625 14.078125 -13.828125 L 14.109375 -13.84375 C 14.078125 -13.90625 14.050781 -13.960938 14.03125 -14.015625 C 14.019531 -14.078125 14.03125 -14.140625 14.0625 -14.203125 L 14.0625 -14.390625 L 14.078125 -14.671875 C 14.078125 -14.703125 14.070312 -14.71875 14.0625 -14.71875 C 14.0625 -14.726562 14.046875 -14.734375 14.015625 -14.734375 L 13.984375 -14.765625 L 14.015625 -14.8125 L 14.078125 -14.875 L 14.03125 -14.90625 C 14.019531 -14.914062 14.015625 -14.921875 14.015625 -14.921875 C 13.992188 -14.941406 13.992188 -14.953125 14.015625 -14.953125 L 14.109375 -15.453125 C 14.109375 -15.460938 14.09375 -15.484375 14.0625 -15.515625 C 14.03125 -15.546875 14.015625 -15.5625 14.015625 -15.5625 C 14.015625 -15.5625 14.03125 -15.570312 14.0625 -15.59375 C 14.09375 -15.601562 14.109375 -15.609375 14.109375 -15.609375 C 14.109375 -15.640625 14.09375 -15.65625 14.0625 -15.65625 C 13.976562 -15.644531 13.960938 -15.640625 14.015625 -15.640625 L 14.078125 -15.734375 L 14.125 -15.734375 C 14.125 -15.765625 14.125 -15.78125 14.125 -15.78125 C 14.113281 -15.789062 14.097656 -15.796875 14.078125 -15.796875 L 14.0625 -15.828125 L 14.125 -15.984375 L 14.015625 -16.015625 L 14.0625 -16.125 C 14.09375 -16.144531 14.109375 -16.160156 14.109375 -16.171875 C 14.109375 -16.191406 14.109375 -16.203125 14.109375 -16.203125 L 14.015625 -16.3125 L 14.0625 -16.578125 L 14.109375 -16.640625 L 14.0625 -16.6875 L 14.015625 -16.765625 L 14.078125 -16.890625 L 14.015625 -17.078125 C 14.015625 -17.078125 14.019531 -17.09375 14.03125 -17.125 C 14.050781 -17.164062 14.0625 -17.195312 14.0625 -17.21875 C 14.0625 -17.257812 14.050781 -17.289062 14.03125 -17.3125 C 14.019531 -17.320312 14 -17.328125 13.96875 -17.328125 L 3.984375 -17.328125 L 3.9375 -17.3125 C 3.90625 -17.257812 3.875 -17.226562 3.84375 -17.21875 C 3.8125 -17.15625 3.796875 -17.09375 3.796875 -17.03125 L 3.796875 -16.671875 L 3.65625 -16.671875 C 3.625 -16.671875 3.609375 -16.671875 3.609375 -16.671875 C 3.617188 -16.671875 3.632812 -16.660156 3.65625 -16.640625 C 3.695312 -16.640625 3.726562 -16.632812 3.75 -16.625 C 3.789062 -16.625 3.8125 -16.609375 3.8125 -16.578125 L 3.671875 -16.53125 L 3.609375 -16.5 C 3.609375 -16.488281 3.613281 -16.472656 3.625 -16.453125 C 3.625 -16.453125 3.648438 -16.445312 3.703125 -16.4375 L 3.765625 -16.390625 L 3.796875 -16.25 L 3.8125 -16.203125 C 3.8125 -16.203125 3.804688 -16.191406 3.796875 -16.171875 C 3.773438 -16.171875 3.757812 -16.164062 3.75 -16.15625 L 3.671875 -16.109375 C 3.640625 -16.109375 3.632812 -16.097656 3.65625 -16.078125 C 3.664062 -16.066406 3.6875 -16.0625 3.71875 -16.0625 L 3.765625 -16.015625 C 3.765625 -15.992188 3.742188 -15.976562 3.703125 -15.96875 C 3.679688 -15.96875 3.640625 -15.957031 3.578125 -15.9375 L 3.53125 -15.890625 C 3.59375 -15.890625 3.648438 -15.882812 3.703125 -15.875 C 3.742188 -15.851562 3.765625 -15.820312 3.765625 -15.78125 L 3.671875 -15.59375 L 3.765625 -15.59375 L 3.71875 -15.5 L 3.671875 -15.375 L 3.703125 -15.359375 L 3.796875 -15.28125 C 3.796875 -15.269531 3.785156 -15.265625 3.765625 -15.265625 C 3.765625 -15.265625 3.757812 -15.253906 3.75 -15.234375 C 3.726562 -15.234375 3.710938 -15.234375 3.703125 -15.234375 C 3.703125 -15.222656 3.703125 -15.203125 3.703125 -15.171875 L 3.8125 -15.015625 L 3.703125 -14.953125 L 3.765625 -14.875 L 3.8125 -14.828125 L 3.71875 -14.6875 L 3.75 -14.6875 L 3.796875 -14.625 C 3.796875 -14.625 3.78125 -14.613281 3.75 -14.59375 C 3.726562 -14.59375 3.703125 -14.585938 3.671875 -14.578125 L 3.609375 -14.53125 L 3.8125 -14.390625 L 3.75 -14.359375 L 3.671875 -14.34375 L 3.71875 -14.3125 L 3.796875 -14.265625 C 3.796875 -14.253906 3.78125 -14.238281 3.75 -14.21875 C 3.726562 -14.1875 3.71875 -14.171875 3.71875 -14.171875 C 3.738281 -14.003906 3.816406 -13.875 3.953125 -13.78125 C 4.097656 -13.71875 4.28125 -13.6875 4.5 -13.6875 Z M 13.421875 -16.765625 C 13.328125 -16.734375 13.078125 -16.71875 12.671875 -16.71875 C 12.429688 -16.71875 12.09375 -16.71875 11.65625 -16.71875 L 9.28125 -16.71875 C 9.632812 -16.78125 10.394531 -16.8125 11.5625 -16.8125 C 12.6875 -16.832031 13.304688 -16.816406 13.421875 -16.765625 Z M 13.421875 -16.765625 "/></g></g></g><g fill="#b7b7b7" fill-opacity="1"><g transform="translate(123.006245, 25.108527)"><g><path d="M 13.015625 -15.09375 L 12.859375 -15.109375 L 12.953125 -15.171875 L 12.875 -15.234375 L 13.015625 -15.28125 L 12.875 -15.328125 L 13.015625 -15.359375 L 12.90625 -15.375 C 12.882812 -15.40625 12.890625 -15.429688 12.921875 -15.453125 C 12.921875 -15.453125 12.9375 -15.453125 12.96875 -15.453125 L 12.859375 -15.46875 L 12.90625 -15.546875 C 12.9375 -15.554688 12.953125 -15.570312 12.953125 -15.59375 C 12.960938 -15.59375 12.96875 -15.59375 12.96875 -15.59375 L 12.875 -15.734375 L 12.953125 -15.890625 L 12.828125 -15.921875 C 12.828125 -15.929688 12.828125 -15.945312 12.828125 -15.96875 C 12.847656 -15.96875 12.863281 -15.972656 12.875 -15.984375 L 12.921875 -15.984375 L 12.765625 -16.078125 C 12.765625 -16.109375 12.769531 -16.148438 12.78125 -16.203125 C 12.800781 -16.210938 12.816406 -16.21875 12.828125 -16.21875 L 12.71875 -16.25 L 12.859375 -16.296875 L 12.71875 -16.3125 C 12.71875 -16.3125 12.722656 -16.328125 12.734375 -16.359375 C 12.753906 -16.390625 12.765625 -16.414062 12.765625 -16.4375 C 12.734375 -16.476562 12.707031 -16.53125 12.6875 -16.59375 C 12.6875 -16.644531 12.679688 -16.707031 12.671875 -16.78125 C 12.648438 -16.957031 12.625 -17.078125 12.59375 -17.140625 C 12.550781 -17.265625 12.472656 -17.34375 12.359375 -17.375 C 11.304688 -17.644531 10.234375 -17.75 9.140625 -17.6875 C 8.003906 -17.632812 6.972656 -17.40625 6.046875 -17 C 5.054688 -16.59375 4.28125 -16.019531 3.71875 -15.28125 C 3.09375 -14.5 2.765625 -13.570312 2.734375 -12.5 C 2.648438 -10.851562 3.46875 -9.625 5.1875 -8.8125 C 6.238281 -8.289062 7.492188 -7.96875 8.953125 -7.84375 C 9.359375 -7.8125 9.640625 -7.738281 9.796875 -7.625 C 9.921875 -7.53125 9.988281 -7.382812 10 -7.1875 C 10.03125 -6.800781 9.796875 -6.4375 9.296875 -6.09375 C 8.734375 -5.71875 7.925781 -5.460938 6.875 -5.328125 C 6.3125 -5.242188 5.550781 -5.328125 4.59375 -5.578125 C 3.976562 -5.722656 3.3125 -5.921875 2.59375 -6.171875 C 2.40625 -6.242188 2.316406 -6.210938 2.328125 -6.078125 C 2.347656 -5.960938 2.441406 -5.796875 2.609375 -5.578125 C 2.765625 -5.390625 2.890625 -5.144531 2.984375 -4.84375 C 3.046875 -4.675781 3.125 -4.425781 3.21875 -4.09375 L 3.265625 -3.953125 C 3.410156 -3.429688 3.789062 -2.984375 4.40625 -2.609375 C 5.019531 -2.234375 5.765625 -2 6.640625 -1.90625 C 7.566406 -1.78125 8.507812 -1.820312 9.46875 -2.03125 C 10.5 -2.257812 11.460938 -2.664062 12.359375 -3.25 C 12.859375 -3.613281 13.304688 -4.09375 13.703125 -4.6875 C 14.128906 -5.3125 14.40625 -5.960938 14.53125 -6.640625 C 14.65625 -7.410156 14.578125 -8.109375 14.296875 -8.734375 C 13.953125 -9.453125 13.367188 -10.039062 12.546875 -10.5 C 12.316406 -10.644531 11.976562 -10.753906 11.53125 -10.828125 C 11.238281 -10.890625 10.796875 -10.960938 10.203125 -11.046875 C 8.972656 -11.234375 8.15625 -11.421875 7.75 -11.609375 C 7.070312 -11.910156 6.90625 -12.359375 7.25 -12.953125 C 7.550781 -13.503906 8.179688 -13.863281 9.140625 -14.03125 C 9.703125 -14.144531 10.613281 -14.207031 11.875 -14.21875 L 12.90625 -14.21875 L 12.90625 -14.265625 C 12.90625 -14.296875 12.90625 -14.320312 12.90625 -14.34375 C 12.90625 -14.375 12.910156 -14.390625 12.921875 -14.390625 L 12.875 -14.53125 L 12.875 -14.578125 C 12.863281 -14.585938 12.859375 -14.59375 12.859375 -14.59375 C 12.835938 -14.613281 12.835938 -14.625 12.859375 -14.625 L 12.90625 -14.6875 L 12.828125 -14.6875 L 12.90625 -14.765625 L 12.8125 -14.765625 C 12.8125 -14.796875 12.816406 -14.8125 12.828125 -14.8125 C 12.847656 -14.8125 12.863281 -14.8125 12.875 -14.8125 L 12.921875 -14.828125 L 12.828125 -14.90625 L 12.953125 -14.953125 L 12.859375 -15 Z M 9.0625 -10.640625 C 8.625 -10.640625 8.160156 -10.71875 7.671875 -10.875 C 6.804688 -11.175781 6.351562 -11.65625 6.3125 -12.3125 C 6.257812 -12.644531 6.328125 -12.953125 6.515625 -13.234375 C 6.722656 -13.566406 7.070312 -13.847656 7.5625 -14.078125 C 7.0625 -13.796875 6.710938 -13.453125 6.515625 -13.046875 C 6.328125 -12.679688 6.3125 -12.320312 6.46875 -11.96875 C 6.613281 -11.601562 6.898438 -11.300781 7.328125 -11.0625 C 7.796875 -10.832031 8.375 -10.691406 9.0625 -10.640625 Z M 13.984375 -6.875 C 14.003906 -6.414062 13.90625 -5.945312 13.6875 -5.46875 C 13.488281 -5.070312 13.265625 -4.722656 13.015625 -4.421875 C 12.597656 -4.003906 12.148438 -3.65625 11.671875 -3.375 C 11.410156 -3.226562 11.113281 -3.09375 10.78125 -2.96875 L 10.671875 -2.921875 L 10.921875 -3.0625 C 11.628906 -3.425781 12.203125 -3.800781 12.640625 -4.1875 C 13.378906 -4.914062 13.828125 -5.8125 13.984375 -6.875 Z M 13.984375 -6.875 "/></g></g></g><g clip-path="url(#ec125d2882)"><path fill="#b7b7b7" d="M 13.746094 12.671875 L 18.414062 12.671875 L 18.414062 13.042969 L 14.175781 13.042969 L 14.175781 15.832031 L 18.160156 15.832031 L 18.160156 16.203125 L 14.175781 16.203125 L 14.175781 19.269531 L 18.460938 19.269531 L 18.460938 19.640625 L 13.746094 19.640625 Z M 18.832031 12.671875 L 19.328125 12.671875 L 21.523438 15.734375 L 23.769531 12.671875 L 26.824219 8.777344 L 21.804688 16.058594 L 24.390625 19.640625 L 23.875 19.640625 L 21.523438 16.378906 L 19.160156 19.640625 L 18.65625 19.640625 L 21.261719 16.058594 Z M 24.578125 13.042969 L 24.578125 12.671875 L 29.894531 12.671875 L 29.894531 13.042969 L 27.445312 13.042969 L 27.445312 19.640625 L 27.015625 19.640625 L 27.015625 13.042969 Z M 7.910156 12.671875 L 8.441406 12.671875 L 15.816406 23.703125 L 12.769531 19.640625 L 8.355469 13.199219 L 8.335938 19.640625 L 7.910156 19.640625 Z M 29.851562 19.15625 C 29.765625 19.15625 29.699219 19.089844 29.699219 19 C 29.699219 18.914062 29.765625 18.847656 29.851562 18.847656 C 29.941406 18.847656 30.003906 18.914062 30.003906 19 C 30.003906 19.089844 29.941406 19.15625 29.851562 19.15625 Z M 30.273438 18.75 L 30.5 18.75 C 30.503906 18.871094 30.59375 18.957031 30.726562 18.957031 C 30.875 18.957031 30.960938 18.867188 30.960938 18.699219 L 30.960938 17.636719 L 31.195312 17.636719 L 31.195312 18.699219 C 31.195312 19 31.019531 19.175781 30.730469 19.175781 C 30.457031 19.175781 30.273438 19.007812 30.273438 18.75 Z M 31.5 18.734375 L 31.730469 18.734375 C 31.75 18.878906 31.886719 18.96875 32.089844 18.96875 C 32.277344 18.96875 32.414062 18.871094 32.414062 18.738281 C 32.414062 18.625 32.328125 18.554688 32.128906 18.507812 L 31.933594 18.460938 C 31.664062 18.398438 31.539062 18.265625 31.539062 18.046875 C 31.539062 17.777344 31.757812 17.601562 32.085938 17.601562 C 32.390625 17.601562 32.613281 17.777344 32.625 18.03125 L 32.398438 18.03125 C 32.378906 17.890625 32.257812 17.804688 32.082031 17.804688 C 31.898438 17.804688 31.773438 17.894531 31.773438 18.03125 C 31.773438 18.136719 31.855469 18.199219 32.050781 18.246094 L 32.214844 18.285156 C 32.523438 18.355469 32.648438 18.480469 32.648438 18.707031 C 32.648438 18.996094 32.425781 19.175781 32.070312 19.175781 C 31.738281 19.175781 31.515625 19.003906 31.5 18.734375 Z M 31.5 18.734375 " fill-opacity="1" fill-rule="nonzero"/></g></svg>