<svg xmlns="http://www.w3.org/2000/svg" xmlns:xlink="http://www.w3.org/1999/xlink" width="198" zoomAndPan="magnify" viewBox="0 0 148.5 31.5" height="42" preserveAspectRatio="xMidYMid meet" version="1.0"><defs><g/><clipPath id="ed845ab09f"><path d="M 11 6.820312 L 23 6.820312 L 23 22 L 11 22 Z M 11 6.820312 " clip-rule="nonzero"/></clipPath><clipPath id="dd284b0f87"><path d="M 14 12 L 27.609375 12 L 27.609375 26 L 14 26 Z M 14 12 " clip-rule="nonzero"/></clipPath></defs><g fill="#b7b7b7" fill-opacity="1"><g transform="translate(31.549568, 25.242258)"><g><path d="M 13.046875 -5.484375 C 12.898438 -5.484375 12.664062 -5.53125 12.34375 -5.625 C 11.832031 -5.769531 11.375 -5.953125 10.96875 -6.171875 C 10.75 -6.296875 10.515625 -6.457031 10.265625 -6.65625 C 9.960938 -6.914062 9.773438 -7.144531 9.703125 -7.34375 C 10.046875 -6.875 10.609375 -6.441406 11.390625 -6.046875 C 12.023438 -5.765625 12.578125 -5.578125 13.046875 -5.484375 Z M 14.59375 -13.34375 L 14.546875 -13.5 C 14.421875 -14.28125 14.203125 -14.921875 13.890625 -15.421875 C 13.296875 -16.347656 12.410156 -16.84375 11.234375 -16.90625 C 11.734375 -16.957031 12.226562 -16.867188 12.71875 -16.640625 C 13.09375 -16.453125 13.398438 -16.21875 13.640625 -15.9375 C 14.046875 -15.457031 14.328125 -14.914062 14.484375 -14.3125 C 14.554688 -13.988281 14.59375 -13.675781 14.59375 -13.375 Z M 7.28125 -4.78125 C 8.207031 -3.84375 9.382812 -3.144531 10.8125 -2.6875 C 12.269531 -2.226562 13.328125 -2.242188 13.984375 -2.734375 C 14.285156 -2.929688 14.5 -3.332031 14.625 -3.9375 C 14.6875 -4.257812 14.738281 -4.773438 14.78125 -5.484375 C 14.800781 -5.785156 14.816406 -6 14.828125 -6.125 C 14.847656 -6.320312 14.878906 -6.460938 14.921875 -6.546875 C 14.972656 -6.671875 14.972656 -6.722656 14.921875 -6.703125 C 14.910156 -6.703125 14.84375 -6.65625 14.71875 -6.5625 C 14.382812 -6.363281 14.109375 -6.21875 13.890625 -6.125 C 13.515625 -5.96875 13.171875 -5.9375 12.859375 -6.03125 C 12.296875 -6.21875 11.769531 -6.441406 11.28125 -6.703125 C 10.664062 -7.035156 10.234375 -7.367188 9.984375 -7.703125 C 10.828125 -7.859375 11.707031 -8.25 12.625 -8.875 C 13.863281 -9.757812 14.625 -10.828125 14.90625 -12.078125 C 15.3125 -13.742188 15.003906 -15.101562 13.984375 -16.15625 C 12.992188 -17.207031 11.617188 -17.660156 9.859375 -17.515625 C 9.253906 -17.484375 8.742188 -17.429688 8.328125 -17.359375 C 8.015625 -17.273438 7.71875 -17.171875 7.4375 -17.046875 L 7.4375 -17.140625 C 7.425781 -17.171875 7.410156 -17.1875 7.390625 -17.1875 C 7.378906 -17.1875 7.359375 -17.179688 7.328125 -17.171875 L 7.28125 -17.140625 C 7.25 -17.140625 7.21875 -17.148438 7.1875 -17.171875 C 7.15625 -17.179688 7.128906 -17.195312 7.109375 -17.21875 C 7.078125 -17.226562 7.0625 -17.242188 7.0625 -17.265625 C 7.0625 -17.273438 7.0625 -17.296875 7.0625 -17.328125 L 7.046875 -17.453125 L 7.015625 -17.453125 C 6.984375 -17.421875 6.960938 -17.394531 6.953125 -17.375 C 6.929688 -17.363281 6.914062 -17.359375 6.90625 -17.359375 L 6.90625 -17.46875 C 6.914062 -17.46875 6.921875 -17.476562 6.921875 -17.5 C 6.921875 -17.5 6.914062 -17.5 6.90625 -17.5 C 6.882812 -17.53125 6.875 -17.535156 6.875 -17.515625 C 6.875 -17.503906 6.859375 -17.484375 6.828125 -17.453125 L 6.78125 -17.375 L 6.765625 -17.515625 C 6.765625 -17.535156 6.765625 -17.546875 6.765625 -17.546875 C 6.765625 -17.546875 6.765625 -17.535156 6.765625 -17.515625 L 6.65625 -17.46875 C 6.625 -17.425781 6.601562 -17.40625 6.59375 -17.40625 C 6.5625 -17.382812 6.546875 -17.375 6.546875 -17.375 L 6.515625 -17.5625 L 6.421875 -17.375 L 6.40625 -17.515625 C 6.382812 -17.515625 6.359375 -17.507812 6.328125 -17.5 C 6.285156 -17.445312 6.265625 -17.40625 6.265625 -17.375 L 6.234375 -17.453125 C 6.222656 -17.609375 6.21875 -17.640625 6.21875 -17.546875 C 6.21875 -17.578125 6.21875 -17.582031 6.21875 -17.5625 L 6.1875 -17.5 C 6.175781 -17.46875 6.171875 -17.453125 6.171875 -17.453125 C 6.171875 -17.429688 6.171875 -17.429688 6.171875 -17.453125 C 6.109375 -17.460938 6.066406 -17.492188 6.046875 -17.546875 C 6.015625 -17.578125 6.007812 -17.59375 6.03125 -17.59375 L 5.9375 -17.46875 L 5.90625 -17.546875 C 5.894531 -17.585938 5.890625 -17.617188 5.890625 -17.640625 C 5.890625 -17.648438 5.878906 -17.640625 5.859375 -17.609375 L 5.765625 -17.46875 L 5.703125 -17.5 L 5.625 -17.515625 L 5.578125 -17.5 C 5.566406 -17.476562 5.5625 -17.46875 5.5625 -17.46875 C 5.539062 -17.457031 5.523438 -17.453125 5.515625 -17.453125 L 5.4375 -17.515625 C 5.40625 -17.566406 5.390625 -17.59375 5.390625 -17.59375 C 5.378906 -17.601562 5.375 -17.601562 5.375 -17.59375 L 5.328125 -17.515625 C 5.304688 -17.472656 5.289062 -17.441406 5.28125 -17.421875 C 5.257812 -17.390625 5.242188 -17.375 5.234375 -17.375 L 4.984375 -17.5 C 4.921875 -17.539062 4.882812 -17.570312 4.875 -17.59375 C 4.8125 -17.625 4.769531 -17.628906 4.75 -17.609375 C 4.300781 -17.546875 3.941406 -17.40625 3.671875 -17.1875 C 3.210938 -16.84375 2.953125 -16.316406 2.890625 -15.609375 L 2.890625 -2.5625 C 2.890625 -2.375 2.976562 -2.25 3.15625 -2.1875 C 3.300781 -2.15625 3.535156 -2.148438 3.859375 -2.171875 C 3.703125 -2.171875 3.804688 -2.1875 4.171875 -2.21875 C 4.421875 -2.21875 4.613281 -2.203125 4.75 -2.171875 C 5.289062 -2.023438 5.800781 -2 6.28125 -2.09375 C 6.945312 -2.238281 7.28125 -2.613281 7.28125 -3.21875 Z M 7.28125 -13.828125 L 7.375 -13.875 C 7.695312 -14.007812 8 -14.117188 8.28125 -14.203125 C 8.769531 -14.328125 9.28125 -14.390625 9.8125 -14.390625 C 10.226562 -14.390625 10.566406 -14.25 10.828125 -13.96875 C 11.171875 -13.613281 11.28125 -13.140625 11.15625 -12.546875 C 11.019531 -11.929688 10.476562 -11.296875 9.53125 -10.640625 C 8.71875 -10.054688 7.96875 -9.671875 7.28125 -9.484375 Z M 7.28125 -13.828125 "/></g></g></g><g fill="#b7b7b7" fill-opacity="1"><g transform="translate(48.972311, 25.242258)"><g><path d="M 9.703125 -2.1875 C 8.773438 -2.0625 7.816406 -2.179688 6.828125 -2.546875 C 5.867188 -2.859375 5.21875 -3.28125 4.875 -3.8125 C 5.125 -3.53125 5.507812 -3.253906 6.03125 -2.984375 C 6.582031 -2.722656 7.066406 -2.546875 7.484375 -2.453125 C 7.972656 -2.359375 8.414062 -2.285156 8.8125 -2.234375 C 9.164062 -2.191406 9.460938 -2.175781 9.703125 -2.1875 Z M 13.734375 -5.671875 C 13.535156 -5.421875 13.210938 -5.1875 12.765625 -4.96875 C 12.265625 -4.75 11.738281 -4.613281 11.1875 -4.5625 C 10.5625 -4.5 9.976562 -4.5625 9.4375 -4.75 C 8.832031 -4.957031 8.332031 -5.328125 7.9375 -5.859375 C 8.332031 -5.410156 8.8125 -5.082031 9.375 -4.875 C 9.863281 -4.6875 10.363281 -4.597656 10.875 -4.609375 C 11.601562 -4.671875 12.285156 -4.851562 12.921875 -5.15625 C 13.367188 -5.375 13.640625 -5.546875 13.734375 -5.671875 Z M 3.125 -13.84375 C 3.082031 -13.445312 3.0625 -12.796875 3.0625 -11.890625 C 3.0625 -11.367188 3.066406 -10.484375 3.078125 -9.234375 L 3.109375 -7 C 3.109375 -4.769531 4.066406 -3.207031 5.984375 -2.3125 C 7.390625 -1.664062 8.988281 -1.453125 10.78125 -1.671875 C 11.507812 -1.765625 12.253906 -1.984375 13.015625 -2.328125 C 14.023438 -2.796875 14.644531 -3.367188 14.875 -4.046875 C 14.988281 -4.410156 15.0625 -4.734375 15.09375 -5.015625 C 15.101562 -5.191406 15.101562 -5.410156 15.09375 -5.671875 L 15.109375 -6.125 L 15.1875 -6.875 C 15.25 -7.269531 15.289062 -7.550781 15.3125 -7.71875 C 15.320312 -7.988281 15.304688 -8.144531 15.265625 -8.1875 C 15.234375 -8.21875 15.175781 -8.179688 15.09375 -8.078125 C 15.039062 -7.992188 14.945312 -7.859375 14.8125 -7.671875 C 14.6875 -7.441406 14.582031 -7.265625 14.5 -7.140625 C 14.363281 -6.953125 14.238281 -6.773438 14.125 -6.609375 C 13.382812 -5.691406 12.390625 -5.175781 11.140625 -5.0625 C 9.878906 -4.96875 8.925781 -5.304688 8.28125 -6.078125 C 8.113281 -6.273438 7.96875 -6.570312 7.84375 -6.96875 C 7.75 -7.34375 7.675781 -7.78125 7.625 -8.28125 L 13.328125 -8.28125 C 13.785156 -8.28125 14.097656 -8.3125 14.265625 -8.375 C 14.546875 -8.476562 14.679688 -8.65625 14.671875 -8.90625 L 14.625 -9.4375 L 14.59375 -9.578125 C 14.59375 -9.753906 14.59375 -9.90625 14.59375 -10.03125 C 14.59375 -10.28125 14.609375 -10.484375 14.640625 -10.640625 C 14.640625 -10.691406 14.632812 -10.75 14.625 -10.8125 C 14.601562 -10.84375 14.585938 -10.894531 14.578125 -10.96875 L 14.546875 -11.09375 C 14.535156 -11.09375 14.550781 -11.082031 14.59375 -11.0625 C 14.625 -11.0625 14.632812 -11.070312 14.625 -11.09375 L 14.546875 -11.203125 L 14.640625 -11.296875 L 14.546875 -11.4375 C 14.503906 -11.4375 14.515625 -11.429688 14.578125 -11.421875 C 14.609375 -11.421875 14.644531 -11.4375 14.6875 -11.46875 L 14.546875 -11.515625 L 14.546875 -11.5625 C 14.578125 -11.59375 14.59375 -11.613281 14.59375 -11.625 C 14.59375 -11.644531 14.578125 -11.675781 14.546875 -11.71875 L 7.5625 -11.71875 C 7.5625 -12.164062 7.578125 -12.609375 7.609375 -13.046875 C 7.617188 -13.410156 7.632812 -13.59375 7.65625 -13.59375 L 7.65625 -13.6875 C 9.207031 -13.65625 10.628906 -13.671875 11.921875 -13.734375 C 13.285156 -13.773438 14.144531 -13.867188 14.5 -14.015625 C 14.519531 -14.023438 14.53125 -14.039062 14.53125 -14.0625 C 14.507812 -14.070312 14.492188 -14.09375 14.484375 -14.125 L 14.453125 -14.21875 L 14.40625 -14.390625 L 14.4375 -14.4375 C 14.46875 -14.445312 14.484375 -14.460938 14.484375 -14.484375 C 14.515625 -14.492188 14.53125 -14.507812 14.53125 -14.53125 L 14.40625 -14.6875 L 14.453125 -14.8125 L 14.53125 -14.90625 L 14.578125 -16.21875 C 14.578125 -16.394531 14.59375 -16.5625 14.625 -16.71875 C 14.632812 -16.8125 14.65625 -16.9375 14.6875 -17.09375 C 14.738281 -17.28125 14.75 -17.398438 14.71875 -17.453125 C 14.664062 -17.492188 14.507812 -17.5 14.25 -17.46875 C 13.820312 -17.425781 13.097656 -17.394531 12.078125 -17.375 C 11.265625 -17.363281 10.285156 -17.359375 9.140625 -17.359375 L 5.421875 -17.359375 L 4.734375 -17.40625 C 4.203125 -17.4375 3.84375 -17.441406 3.65625 -17.421875 C 3.300781 -17.390625 3.101562 -17.289062 3.0625 -17.125 C 3.0625 -17.070312 3.046875 -17.015625 3.015625 -16.953125 C 2.992188 -16.921875 2.96875 -16.875 2.9375 -16.8125 L 2.875 -16.640625 C 2.875 -16.628906 2.875 -16.613281 2.875 -16.59375 C 2.882812 -16.582031 2.898438 -16.566406 2.921875 -16.546875 C 2.929688 -16.515625 2.9375 -16.492188 2.9375 -16.484375 C 2.96875 -16.460938 2.984375 -16.429688 2.984375 -16.390625 L 2.984375 -15.265625 C 2.984375 -15.234375 2.96875 -15.203125 2.9375 -15.171875 C 2.9375 -15.148438 2.921875 -15.125 2.890625 -15.09375 C 2.859375 -15.070312 2.84375 -15.054688 2.84375 -15.046875 C 2.84375 -15.023438 2.851562 -15.007812 2.875 -15 L 2.921875 -14.96875 C 2.929688 -14.96875 2.9375 -14.960938 2.9375 -14.953125 C 2.96875 -14.929688 2.984375 -14.914062 2.984375 -14.90625 C 2.953125 -14.90625 2.929688 -14.90625 2.921875 -14.90625 C 2.859375 -14.882812 2.847656 -14.859375 2.890625 -14.828125 C 2.910156 -14.828125 2.941406 -14.820312 2.984375 -14.8125 C 3.066406 -14.78125 3.109375 -14.753906 3.109375 -14.734375 L 3.03125 -14.71875 C 2.9375 -14.6875 2.867188 -14.660156 2.828125 -14.640625 C 2.734375 -14.597656 2.6875 -14.5625 2.6875 -14.53125 C 2.6875 -14.507812 2.71875 -14.507812 2.78125 -14.53125 C 2.8125 -14.539062 2.863281 -14.5625 2.9375 -14.59375 L 3.0625 -14.625 C 3.039062 -14.59375 3.007812 -14.550781 2.96875 -14.5 C 2.9375 -14.46875 2.910156 -14.453125 2.890625 -14.453125 L 2.921875 -14.453125 L 3.015625 -14.390625 L 2.921875 -14.25 L 3.03125 -14.3125 C 3.03125 -14.3125 3.015625 -14.289062 2.984375 -14.25 C 2.953125 -14.195312 2.929688 -14.15625 2.921875 -14.125 L 2.984375 -14.125 L 2.96875 -14.078125 L 2.9375 -13.9375 C 2.9375 -13.894531 2.960938 -13.875 3.015625 -13.875 C 3.023438 -13.851562 3.0625 -13.84375 3.125 -13.84375 Z M 3.125 -13.84375 "/></g></g></g><g fill="#b7b7b7" fill-opacity="1"><g transform="translate(66.865942, 25.242258)"><g><path d="M 13.34375 -9.34375 C 13.34375 -9.207031 13.265625 -8.972656 13.109375 -8.640625 C 12.941406 -8.273438 12.753906 -7.960938 12.546875 -7.703125 C 12.347656 -7.453125 12.054688 -7.171875 11.671875 -6.859375 C 11.328125 -6.585938 11.117188 -6.4375 11.046875 -6.40625 L 11.234375 -6.5625 C 11.492188 -6.757812 11.710938 -6.941406 11.890625 -7.109375 C 12.222656 -7.410156 12.515625 -7.75 12.765625 -8.125 C 12.890625 -8.332031 13 -8.546875 13.09375 -8.765625 C 13.15625 -8.867188 13.222656 -9.03125 13.296875 -9.25 Z M 13.140625 -10.265625 C 13.023438 -9.609375 12.8125 -9.003906 12.5 -8.453125 C 12.269531 -8.046875 12.019531 -7.707031 11.75 -7.4375 C 12.0625 -7.8125 12.320312 -8.179688 12.53125 -8.546875 C 12.875 -9.191406 13.0625 -9.867188 13.09375 -10.578125 C 13.09375 -10.859375 13.0625 -11.171875 13 -11.515625 C 12.914062 -11.847656 12.835938 -12.066406 12.765625 -12.171875 C 12.890625 -12.066406 12.988281 -11.820312 13.0625 -11.4375 C 13.15625 -11.019531 13.179688 -10.628906 13.140625 -10.265625 Z M 5.65625 -2.125 L 5.703125 -2.125 C 6.234375 -2.007812 7.125 -2.054688 8.375 -2.265625 C 9.96875 -2.546875 11.335938 -3.054688 12.484375 -3.796875 C 13.734375 -4.585938 14.695312 -5.65625 15.375 -7 C 16.019531 -8.238281 16.332031 -9.546875 16.3125 -10.921875 C 16.28125 -12.285156 15.945312 -13.503906 15.3125 -14.578125 C 14.601562 -15.691406 13.644531 -16.453125 12.4375 -16.859375 C 11.769531 -17.097656 10.957031 -17.222656 10 -17.234375 C 9.019531 -17.253906 8.164062 -17.144531 7.4375 -16.90625 L 7.4375 -16.953125 C 7.425781 -16.984375 7.410156 -17 7.390625 -17 C 7.378906 -17 7.359375 -16.992188 7.328125 -16.984375 L 7.28125 -16.953125 C 7.25 -16.941406 7.21875 -16.953125 7.1875 -16.984375 C 7.15625 -16.992188 7.128906 -17.007812 7.109375 -17.03125 C 7.078125 -17.039062 7.0625 -17.0625 7.0625 -17.09375 C 7.0625 -17.113281 7.0625 -17.140625 7.0625 -17.171875 L 7.046875 -17.265625 L 7.015625 -17.265625 C 6.984375 -17.234375 6.96875 -17.21875 6.96875 -17.21875 C 6.9375 -17.195312 6.914062 -17.1875 6.90625 -17.1875 L 6.90625 -17.3125 C 6.914062 -17.320312 6.921875 -17.328125 6.921875 -17.328125 C 6.921875 -17.328125 6.914062 -17.328125 6.90625 -17.328125 C 6.882812 -17.359375 6.875 -17.367188 6.875 -17.359375 C 6.875 -17.335938 6.859375 -17.3125 6.828125 -17.28125 C 6.816406 -17.25 6.8125 -17.234375 6.8125 -17.234375 C 6.789062 -17.222656 6.78125 -17.21875 6.78125 -17.21875 L 6.765625 -17.359375 L 6.703125 -17.328125 C 6.660156 -17.285156 6.628906 -17.253906 6.609375 -17.234375 C 6.578125 -17.203125 6.554688 -17.195312 6.546875 -17.21875 L 6.515625 -17.375 L 6.421875 -17.21875 L 6.40625 -17.359375 L 6.265625 -17.21875 L 6.234375 -17.234375 C 6.234375 -17.253906 6.226562 -17.285156 6.21875 -17.328125 C 6.21875 -17.378906 6.21875 -17.394531 6.21875 -17.375 L 6.1875 -17.3125 C 6.175781 -17.289062 6.171875 -17.273438 6.171875 -17.265625 C 6.109375 -17.273438 6.066406 -17.304688 6.046875 -17.359375 C 6.015625 -17.390625 6.007812 -17.40625 6.03125 -17.40625 L 5.9375 -17.328125 L 5.90625 -17.40625 C 5.894531 -17.4375 5.890625 -17.457031 5.890625 -17.46875 C 5.890625 -17.488281 5.878906 -17.488281 5.859375 -17.46875 C 5.859375 -17.4375 5.84375 -17.414062 5.8125 -17.40625 C 5.800781 -17.375 5.785156 -17.347656 5.765625 -17.328125 C 5.753906 -17.316406 5.738281 -17.3125 5.71875 -17.3125 C 5.71875 -17.3125 5.710938 -17.316406 5.703125 -17.328125 L 5.625 -17.359375 L 5.578125 -17.328125 C 5.566406 -17.316406 5.5625 -17.300781 5.5625 -17.28125 C 5.539062 -17.269531 5.523438 -17.265625 5.515625 -17.265625 C 5.484375 -17.265625 5.457031 -17.28125 5.4375 -17.3125 C 5.425781 -17.320312 5.410156 -17.34375 5.390625 -17.375 C 5.378906 -17.394531 5.375 -17.410156 5.375 -17.421875 C 5.351562 -17.421875 5.34375 -17.414062 5.34375 -17.40625 L 5.28125 -17.3125 C 5.257812 -17.28125 5.242188 -17.265625 5.234375 -17.265625 C 5.234375 -17.234375 5.222656 -17.21875 5.203125 -17.21875 L 4.9375 -17.359375 C 4.894531 -17.398438 4.859375 -17.429688 4.828125 -17.453125 C 4.765625 -17.460938 4.722656 -17.46875 4.703125 -17.46875 C 4.234375 -17.375 3.867188 -17.226562 3.609375 -17.03125 C 3.128906 -16.695312 2.851562 -16.171875 2.78125 -15.453125 L 2.78125 -2.609375 C 2.78125 -2.441406 2.847656 -2.328125 2.984375 -2.265625 C 3.128906 -2.203125 3.320312 -2.175781 3.5625 -2.1875 L 3.609375 -2.234375 L 3.65625 -2.265625 L 3.671875 -2.1875 C 3.660156 -2.1875 3.660156 -2.203125 3.671875 -2.234375 C 3.703125 -2.253906 3.734375 -2.265625 3.765625 -2.265625 C 3.765625 -2.242188 3.765625 -2.226562 3.765625 -2.21875 C 3.753906 -2.195312 3.75 -2.179688 3.75 -2.171875 C 3.75 -2.148438 3.753906 -2.140625 3.765625 -2.140625 L 3.8125 -2.234375 L 3.859375 -2.28125 C 3.878906 -2.28125 3.878906 -2.28125 3.859375 -2.28125 C 3.859375 -2.269531 3.859375 -2.253906 3.859375 -2.234375 L 3.859375 -2.1875 L 3.953125 -2.265625 L 3.953125 -1.953125 L 4.046875 -2.28125 L 4.09375 -2.171875 L 4.140625 -2.234375 L 4.1875 -2.265625 L 4.1875 -2.1875 L 4.328125 -2.234375 C 4.316406 -2.234375 4.3125 -2.226562 4.3125 -2.21875 C 4.3125 -2.195312 4.316406 -2.1875 4.328125 -2.1875 C 4.316406 -2.1875 4.328125 -2.203125 4.359375 -2.234375 C 4.390625 -2.253906 4.421875 -2.253906 4.453125 -2.234375 L 4.453125 -2.171875 L 4.46875 -2.21875 L 4.5625 -2.234375 L 4.59375 -2.171875 L 4.65625 -2.234375 C 4.65625 -2.234375 4.65625 -2.210938 4.65625 -2.171875 C 4.65625 -2.140625 4.648438 -2.097656 4.640625 -2.046875 L 4.640625 -1.953125 L 4.78125 -2.265625 L 4.984375 -2.171875 L 5.15625 -2.1875 C 5.1875 -2.1875 5.210938 -2.1875 5.234375 -2.1875 C 5.242188 -2.175781 5.257812 -2.160156 5.28125 -2.140625 Z M 7.28125 -12.953125 L 7.328125 -12.953125 C 7.453125 -12.953125 7.625 -12.96875 7.84375 -13 C 7.945312 -13.007812 8.148438 -13.046875 8.453125 -13.109375 C 8.878906 -13.203125 9.203125 -13.265625 9.421875 -13.296875 C 9.796875 -13.347656 10.140625 -13.347656 10.453125 -13.296875 C 11.285156 -13.203125 11.890625 -12.78125 12.265625 -12.03125 C 12.671875 -11.25 12.703125 -10.367188 12.359375 -9.390625 C 11.929688 -8.273438 11.179688 -7.359375 10.109375 -6.640625 C 9.242188 -6.054688 8.300781 -5.679688 7.28125 -5.515625 Z M 7.28125 -12.953125 "/></g></g></g><g fill="#b7b7b7" fill-opacity="1"><g transform="translate(85.70135, 25.242258)"><g><path d="M 15.1875 -16.5 C 15.125 -16.613281 15.019531 -16.6875 14.875 -16.71875 C 14.675781 -16.800781 14.410156 -16.820312 14.078125 -16.78125 C 13.941406 -16.800781 13.785156 -16.859375 13.609375 -16.953125 C 13.492188 -17.015625 13.320312 -17.117188 13.09375 -17.265625 L 12.71875 -17.46875 C 12.4375 -17.675781 12.171875 -17.707031 11.921875 -17.5625 C 11.691406 -17.425781 11.609375 -17.269531 11.671875 -17.09375 C 11.671875 -17.09375 11.710938 -16.644531 11.796875 -15.75 C 11.921875 -14.65625 11.992188 -13.617188 12.015625 -12.640625 C 12.046875 -11.273438 11.988281 -10.128906 11.84375 -9.203125 C 11.65625 -8.054688 11.332031 -7.28125 10.875 -6.875 C 10.46875 -6.507812 10 -6.3125 9.46875 -6.28125 C 8.84375 -6.269531 8.300781 -6.492188 7.84375 -6.953125 C 7.007812 -7.773438 6.6875 -9.546875 6.875 -12.265625 C 6.988281 -14.179688 7.222656 -15.710938 7.578125 -16.859375 C 7.640625 -16.859375 7.570312 -16.882812 7.375 -16.9375 C 7.21875 -16.945312 7.066406 -16.9375 6.921875 -16.90625 L 6.875 -17 C 6.84375 -17.050781 6.828125 -17.082031 6.828125 -17.09375 C 6.796875 -17.125 6.773438 -17.140625 6.765625 -17.140625 L 6.734375 -17.09375 C 6.710938 -17.019531 6.703125 -16.957031 6.703125 -16.90625 C 6.671875 -16.863281 6.640625 -16.84375 6.609375 -16.84375 C 6.578125 -16.875 6.554688 -16.90625 6.546875 -16.9375 C 6.523438 -16.945312 6.507812 -16.96875 6.5 -17 L 6.5 -17.03125 L 6.375 -16.890625 C 6.34375 -16.890625 6.320312 -16.894531 6.3125 -16.90625 C 6.289062 -16.90625 6.273438 -16.921875 6.265625 -16.953125 C 6.234375 -16.984375 6.207031 -17 6.1875 -17 C 6.175781 -17.019531 6.160156 -17.03125 6.140625 -17.03125 C 6.128906 -17.03125 6.113281 -17.015625 6.09375 -16.984375 C 6.082031 -16.960938 6.066406 -16.929688 6.046875 -16.890625 C 6.035156 -16.816406 6.03125 -16.78125 6.03125 -16.78125 C 6.007812 -16.75 6 -16.75 6 -16.78125 L 5.9375 -17 L 5.890625 -17.125 C 5.867188 -17.125 5.859375 -17.125 5.859375 -17.125 C 5.859375 -17.101562 5.859375 -17.078125 5.859375 -17.046875 C 5.847656 -17.003906 5.84375 -16.972656 5.84375 -16.953125 C 5.84375 -16.921875 5.832031 -16.890625 5.8125 -16.859375 C 5.800781 -16.847656 5.78125 -16.847656 5.75 -16.859375 C 5.75 -16.878906 5.734375 -16.894531 5.703125 -16.90625 L 5.578125 -16.984375 L 5.4375 -16.859375 L 5.34375 -17.09375 C 5.3125 -17.09375 5.28125 -17.085938 5.25 -17.078125 C 5.238281 -17.054688 5.21875 -17.03125 5.1875 -17 L 5.109375 -16.890625 C 5.078125 -16.890625 5.050781 -16.90625 5.03125 -16.9375 C 5.019531 -16.96875 5.003906 -17.003906 4.984375 -17.046875 L 4.96875 -17.125 L 4.84375 -16.890625 L 4.75 -17.125 C 4.707031 -17.125 4.675781 -17.113281 4.65625 -17.09375 C 4.65625 -17.082031 4.65625 -17.046875 4.65625 -16.984375 C 4.65625 -16.953125 4.65625 -16.925781 4.65625 -16.90625 C 4.644531 -16.875 4.628906 -16.859375 4.609375 -16.859375 L 4.515625 -16.984375 L 4.40625 -16.84375 C 4.351562 -16.84375 4.3125 -16.859375 4.28125 -16.890625 C 4.269531 -16.898438 4.25 -16.914062 4.21875 -16.9375 L 4.171875 -16.984375 C 4.054688 -16.953125 3.945312 -16.851562 3.84375 -16.6875 C 3.726562 -16.582031 3.671875 -16.5 3.671875 -16.4375 C 3.140625 -15.363281 2.769531 -14.171875 2.5625 -12.859375 C 2.34375 -11.523438 2.320312 -10.210938 2.5 -8.921875 C 2.664062 -7.554688 3.023438 -6.363281 3.578125 -5.34375 C 4.171875 -4.21875 4.957031 -3.351562 5.9375 -2.75 C 7.050781 -2.113281 8.328125 -1.832031 9.765625 -1.90625 C 10.929688 -1.957031 11.929688 -2.21875 12.765625 -2.6875 C 13.921875 -3.34375 14.820312 -4.367188 15.46875 -5.765625 C 16.019531 -6.972656 16.347656 -8.363281 16.453125 -9.9375 C 16.546875 -11.351562 16.460938 -12.695312 16.203125 -13.96875 C 15.953125 -15.175781 15.613281 -16.019531 15.1875 -16.5 Z M 9.421875 -5.71875 L 9.390625 -5.71875 C 9.109375 -5.675781 8.828125 -5.691406 8.546875 -5.765625 C 7.992188 -5.878906 7.492188 -6.1875 7.046875 -6.6875 C 6.804688 -6.957031 6.609375 -7.363281 6.453125 -7.90625 C 6.242188 -8.582031 6.210938 -9.21875 6.359375 -9.8125 C 6.304688 -8.195312 6.691406 -7.050781 7.515625 -6.375 C 7.992188 -5.96875 8.628906 -5.75 9.421875 -5.71875 Z M 15.09375 -6.1875 C 14.820312 -5.4375 14.351562 -4.738281 13.6875 -4.09375 C 12.738281 -3.195312 11.597656 -2.65625 10.265625 -2.46875 C 10.660156 -2.550781 11.128906 -2.707031 11.671875 -2.9375 C 12.117188 -3.125 12.503906 -3.332031 12.828125 -3.5625 C 13.304688 -3.851562 13.816406 -4.367188 14.359375 -5.109375 C 14.765625 -5.660156 15.007812 -6.019531 15.09375 -6.1875 Z M 15.09375 -6.1875 "/></g></g></g><g fill="#b7b7b7" fill-opacity="1"><g transform="translate(104.536759, 25.242258)"><g><path d="M 8.140625 -11.71875 C 7.566406 -11.1875 7.144531 -10.59375 6.875 -9.9375 C 6.65625 -9.375 6.550781 -8.789062 6.5625 -8.1875 C 6.582031 -7.675781 6.695312 -7.203125 6.90625 -6.765625 C 7.09375 -6.335938 7.316406 -6.03125 7.578125 -5.84375 L 7.515625 -5.890625 C 7.242188 -6.085938 7.03125 -6.335938 6.875 -6.640625 C 6.570312 -7.171875 6.4375 -7.816406 6.46875 -8.578125 C 6.46875 -9.085938 6.617188 -9.648438 6.921875 -10.265625 C 7.265625 -10.953125 7.671875 -11.4375 8.140625 -11.71875 Z M 12.546875 -2.921875 C 12.410156 -2.765625 12.082031 -2.597656 11.5625 -2.421875 C 10.882812 -2.191406 10.113281 -2.066406 9.25 -2.046875 C 8.71875 -2.046875 8.203125 -2.117188 7.703125 -2.265625 C 7.109375 -2.429688 6.570312 -2.671875 6.09375 -2.984375 C 6.894531 -2.421875 8.019531 -2.15625 9.46875 -2.1875 C 10.832031 -2.207031 11.859375 -2.453125 12.546875 -2.921875 Z M 12.765625 -17.234375 L 12.59375 -17.453125 C 12.53125 -17.546875 12.476562 -17.609375 12.4375 -17.640625 C 12.351562 -17.648438 12.242188 -17.648438 12.109375 -17.640625 C 10.722656 -17.421875 9.378906 -16.960938 8.078125 -16.265625 C 6.753906 -15.566406 5.640625 -14.695312 4.734375 -13.65625 C 3.742188 -12.539062 3.082031 -11.347656 2.75 -10.078125 C 2.363281 -8.679688 2.40625 -7.269531 2.875 -5.84375 C 3.269531 -4.570312 3.953125 -3.566406 4.921875 -2.828125 C 5.734375 -2.210938 6.710938 -1.8125 7.859375 -1.625 C 8.816406 -1.476562 9.789062 -1.484375 10.78125 -1.640625 C 11.632812 -1.804688 12.285156 -2.015625 12.734375 -2.265625 C 13.191406 -2.578125 13.539062 -2.894531 13.78125 -3.21875 C 13.914062 -3.425781 14.0625 -3.71875 14.21875 -4.09375 L 14.4375 -4.515625 C 14.445312 -4.578125 14.460938 -4.65625 14.484375 -4.75 C 14.492188 -4.800781 14.5 -4.875 14.5 -4.96875 L 14.546875 -5.25 L 14.71875 -5.515625 C 14.75 -5.578125 14.769531 -5.625 14.78125 -5.65625 C 14.832031 -5.695312 14.863281 -5.742188 14.875 -5.796875 L 14.875 -6 L 14.921875 -6.265625 L 15.015625 -6.59375 L 15.171875 -6.875 L 15.59375 -7.625 C 15.726562 -7.875 15.59375 -7.875 15.1875 -7.625 C 14.789062 -7.375 14.207031 -6.9375 13.4375 -6.3125 C 12.957031 -5.9375 12.347656 -5.65625 11.609375 -5.46875 C 10.835938 -5.257812 10.125 -5.234375 9.46875 -5.390625 C 8.726562 -5.566406 8.1875 -5.9375 7.84375 -6.5 C 7.40625 -7.144531 7.269531 -8.015625 7.4375 -9.109375 C 7.59375 -10.304688 8.414062 -11.429688 9.90625 -12.484375 C 10.976562 -13.222656 12.316406 -13.875 13.921875 -14.4375 L 13.890625 -14.5 C 13.878906 -14.53125 13.863281 -14.554688 13.84375 -14.578125 C 13.84375 -14.585938 13.851562 -14.601562 13.875 -14.625 L 13.796875 -14.875 C 13.796875 -14.894531 13.78125 -14.90625 13.75 -14.90625 C 13.738281 -14.90625 13.734375 -14.90625 13.734375 -14.90625 L 13.75 -15.0625 L 13.6875 -15.0625 L 13.734375 -15.21875 L 13.703125 -15.21875 C 13.691406 -15.21875 13.6875 -15.21875 13.6875 -15.21875 C 13.664062 -15.21875 13.65625 -15.21875 13.65625 -15.21875 C 13.644531 -15.226562 13.640625 -15.242188 13.640625 -15.265625 C 13.640625 -15.265625 13.644531 -15.269531 13.65625 -15.28125 L 13.703125 -15.328125 L 13.59375 -15.359375 L 13.703125 -15.453125 L 13.59375 -15.46875 L 13.703125 -15.640625 L 13.546875 -15.609375 L 13.65625 -15.734375 C 13.625 -15.734375 13.601562 -15.738281 13.59375 -15.75 C 13.5625 -15.75 13.546875 -15.757812 13.546875 -15.78125 L 13.65625 -15.890625 L 13.5 -15.84375 L 13.609375 -15.984375 L 13.5 -15.96875 C 13.476562 -15.976562 13.484375 -16 13.515625 -16.03125 C 13.546875 -16.0625 13.570312 -16.078125 13.59375 -16.078125 C 13.601562 -16.078125 13.570312 -16.078125 13.5 -16.078125 C 13.445312 -16.078125 13.421875 -16.078125 13.421875 -16.078125 C 13.398438 -16.097656 13.390625 -16.113281 13.390625 -16.125 C 13.410156 -16.144531 13.425781 -16.160156 13.4375 -16.171875 C 13.457031 -16.203125 13.476562 -16.226562 13.5 -16.25 C 13.5 -16.257812 13.5 -16.265625 13.5 -16.265625 L 13.234375 -16.53125 L 13.234375 -16.546875 C 13.265625 -16.566406 13.28125 -16.578125 13.28125 -16.578125 C 13.289062 -16.585938 13.296875 -16.601562 13.296875 -16.625 L 13.15625 -16.625 L 13.1875 -16.671875 C 13.1875 -16.679688 13.191406 -16.6875 13.203125 -16.6875 C 13.203125 -16.707031 13.203125 -16.722656 13.203125 -16.734375 L 13 -16.84375 C 12.976562 -16.875 12.976562 -16.921875 13 -16.984375 C 13.007812 -17.015625 13.023438 -17.03125 13.046875 -17.03125 L 12.859375 -16.984375 L 12.96875 -17.09375 L 12.765625 -17.078125 C 12.765625 -17.078125 12.769531 -17.097656 12.78125 -17.140625 C 12.8125 -17.191406 12.804688 -17.222656 12.765625 -17.234375 Z M 12.765625 -17.234375 "/></g></g></g><g fill="#b7b7b7" fill-opacity="1"><g transform="translate(122.43039, 25.242258)"><g><path d="M 5.953125 -13.296875 L 5.9375 -2.5 C 5.9375 -2.25 6.050781 -2.097656 6.28125 -2.046875 C 6.425781 -2.035156 6.609375 -2.046875 6.828125 -2.078125 L 6.859375 -2.09375 C 6.867188 -2.09375 6.875 -2.09375 6.875 -2.09375 C 6.90625 -2.082031 6.9375 -2.0625 6.96875 -2.03125 L 7.109375 -2.125 C 7.171875 -2.164062 7.21875 -2.203125 7.25 -2.234375 C 7.3125 -2.265625 7.367188 -2.265625 7.421875 -2.234375 C 7.429688 -2.222656 7.460938 -2.21875 7.515625 -2.21875 C 7.546875 -2.195312 7.59375 -2.1875 7.65625 -2.1875 L 7.8125 -2.21875 L 7.984375 -2.234375 L 8.046875 -2.21875 C 8.109375 -2.1875 8.15625 -2.171875 8.1875 -2.171875 C 8.238281 -2.140625 8.296875 -2.125 8.359375 -2.125 L 8.4375 -2.171875 L 8.59375 -2.1875 L 8.828125 -2.140625 L 9.203125 -2.234375 C 9.253906 -2.253906 9.316406 -2.25 9.390625 -2.21875 C 9.441406 -2.195312 9.519531 -2.15625 9.625 -2.09375 C 9.71875 -2.0625 9.78125 -2.039062 9.8125 -2.03125 C 9.863281 -2.007812 9.90625 -2 9.9375 -2 L 10.15625 -2.078125 C 10.257812 -2.117188 10.367188 -2.3125 10.484375 -2.65625 C 10.578125 -2.988281 10.625 -3.3125 10.625 -3.625 L 10.640625 -13.25 C 11.710938 -13.269531 12.582031 -13.300781 13.25 -13.34375 C 14.039062 -13.394531 14.546875 -13.453125 14.765625 -13.515625 L 14.78125 -13.5625 C 14.863281 -13.613281 14.921875 -13.660156 14.953125 -13.703125 C 15.015625 -13.753906 15.046875 -13.800781 15.046875 -13.84375 C 15.046875 -13.925781 15.035156 -13.96875 15.015625 -13.96875 C 15.015625 -13.96875 15.023438 -13.96875 15.046875 -13.96875 L 15.09375 -14.15625 L 15 -14.203125 L 15.09375 -14.21875 L 15 -14.296875 L 15.109375 -14.3125 L 15 -14.390625 L 15.0625 -14.546875 L 15 -14.640625 L 15 -14.671875 L 15.09375 -14.765625 L 14.953125 -14.765625 L 15.0625 -14.859375 L 15.046875 -15.46875 L 15.0625 -15.84375 C 15.0625 -15.875 15.054688 -15.90625 15.046875 -15.9375 C 15.023438 -15.9375 15.007812 -15.953125 15 -15.984375 L 14.953125 -16.0625 C 14.953125 -16.101562 14.957031 -16.125 14.96875 -16.125 C 14.96875 -16.144531 14.984375 -16.15625 15.015625 -16.15625 L 15.0625 -16.171875 C 15.0625 -16.203125 15.039062 -16.21875 15 -16.21875 C 14.976562 -16.21875 14.960938 -16.21875 14.953125 -16.21875 C 14.953125 -16.21875 14.96875 -16.234375 15 -16.265625 C 15.03125 -16.296875 15.046875 -16.335938 15.046875 -16.390625 C 15.046875 -16.796875 14.988281 -17.054688 14.875 -17.171875 C 14.769531 -17.296875 14.53125 -17.347656 14.15625 -17.328125 C 13.351562 -17.285156 11.453125 -17.28125 8.453125 -17.3125 C 3.953125 -17.320312 2.53125 -17.328125 4.1875 -17.328125 L 3.65625 -17.359375 C 3.207031 -17.367188 2.90625 -17.359375 2.75 -17.328125 C 2.46875 -17.285156 2.273438 -17.160156 2.171875 -16.953125 C 2.109375 -16.878906 2.066406 -16.800781 2.046875 -16.71875 C 2.035156 -16.6875 2.03125 -16.613281 2.03125 -16.5 L 2.046875 -16.390625 L 2.046875 -16.03125 L 2 -15.921875 C 1.988281 -15.867188 1.984375 -15.835938 1.984375 -15.828125 C 1.984375 -15.796875 2 -15.765625 2.03125 -15.734375 L 2.09375 -15.59375 L 2.046875 -15.59375 C 2.015625 -15.570312 1.992188 -15.554688 1.984375 -15.546875 C 1.960938 -15.523438 1.96875 -15.492188 2 -15.453125 C 2.03125 -15.453125 2.054688 -15.453125 2.078125 -15.453125 C 2.109375 -15.453125 2.113281 -15.4375 2.09375 -15.40625 L 2 -15.328125 C 2 -15.316406 2.007812 -15.3125 2.03125 -15.3125 C 2.03125 -15.3125 2.046875 -15.3125 2.078125 -15.3125 C 2.085938 -15.3125 2.09375 -15.3125 2.09375 -15.3125 C 2.113281 -15.289062 2.125 -15.273438 2.125 -15.265625 C 2.101562 -15.234375 2.078125 -15.207031 2.046875 -15.1875 C 2.035156 -15.15625 2.019531 -15.140625 2 -15.140625 C 1.96875 -15.140625 1.960938 -15.140625 1.984375 -15.140625 C 1.992188 -15.117188 2.015625 -15.101562 2.046875 -15.09375 L 2.09375 -15.046875 L 2.03125 -15 L 2.09375 -14.90625 L 2.046875 -14.828125 L 2.078125 -14.71875 L 2.09375 -14.625 C 2.082031 -14.601562 2.066406 -14.453125 2.046875 -14.171875 C 2.046875 -13.878906 2.054688 -13.734375 2.078125 -13.734375 C 2.054688 -13.679688 2.0625 -13.625 2.09375 -13.5625 C 2.125 -13.5 2.164062 -13.46875 2.21875 -13.46875 C 2.632812 -13.4375 3.191406 -13.410156 3.890625 -13.390625 C 4.390625 -13.359375 5.078125 -13.328125 5.953125 -13.296875 Z M 5.953125 -13.296875 "/></g></g></g><g clip-path="url(#ed845ab09f)"><path fill="#b7b7b7" d="M 14.292969 9.503906 C 15.023438 8.582031 16.398438 8.125 17.335938 8.101562 C 19.964844 8.050781 21.058594 11.363281 21.144531 12.679688 L 22.363281 13.046875 C 22.082031 9.011719 19.597656 6.894531 17.222656 6.894531 C 14.996094 6.894531 12.941406 8.53125 12.113281 10.929688 C 10.980469 14.128906 11.722656 17.203125 13.109375 19.664062 C 12.988281 19.824219 12.917969 20.109375 12.941406 20.378906 C 12.964844 21.117188 13.585938 21.730469 14.328125 21.730469 L 14.378906 21.730469 C 15.15625 21.707031 15.753906 21.054688 15.714844 20.28125 C 15.714844 19.542969 15.082031 18.929688 14.339844 18.929688 L 14.292969 18.929688 C 14.242188 18.929688 14.171875 18.929688 14.109375 18.953125 C 13.097656 17.230469 12.671875 15.382812 12.832031 13.390625 C 12.925781 11.890625 13.414062 10.585938 14.292969 9.503906 Z M 14.292969 9.503906 " fill-opacity="1" fill-rule="nonzero"/></g><path fill="#b7b7b7" d="M 8.425781 23.46875 C 9.242188 24.699219 10.910156 25.484375 12.734375 25.484375 C 13.222656 25.484375 13.734375 25.449219 14.230469 25.324219 C 17.398438 24.710938 19.796875 22.792969 21.171875 19.960938 L 21.183594 19.9375 C 21.890625 19.875 22.4375 19.246094 22.402344 18.496094 C 22.363281 17.746094 21.753906 17.144531 21.011719 17.144531 L 20.964844 17.144531 C 20.199219 17.167969 19.601562 17.820312 19.625 18.597656 C 19.648438 18.988281 19.808594 19.308594 20.027344 19.542969 C 19.175781 21.21875 17.894531 22.445312 15.960938 23.480469 C 14.65625 24.167969 13.28125 24.429688 11.941406 24.242188 C 10.824219 24.085938 9.945312 23.578125 9.410156 22.765625 C 8.609375 21.535156 8.535156 20.207031 9.203125 18.878906 C 9.691406 17.921875 10.421875 17.21875 10.910156 16.875 C 10.789062 16.554688 10.640625 16.011719 10.566406 15.609375 C 6.960938 18.214844 7.328125 21.78125 8.425781 23.46875 Z M 8.425781 23.46875 " fill-opacity="1" fill-rule="nonzero"/><g clip-path="url(#dd284b0f87)"><path fill="#b7b7b7" d="M 26.734375 22.925781 C 27.464844 21.449219 27.402344 18.964844 25.539062 16.835938 L 25.527344 16.859375 C 23.640625 14.621094 20.867188 13.390625 17.699219 13.390625 L 17.285156 13.390625 C 17.078125 12.9375 16.605469 12.652344 16.070312 12.652344 L 16.03125 12.652344 C 15.265625 12.652344 14.667969 13.316406 14.695312 14.089844 C 14.71875 14.828125 15.339844 15.445312 16.082031 15.445312 L 16.140625 15.445312 C 16.691406 15.421875 17.164062 15.074219 17.359375 14.585938 L 17.808594 14.585938 C 19.6875 14.585938 21.460938 15.136719 23.082031 16.21875 C 24.324219 17.042969 25.214844 18.125 25.710938 19.417969 C 26.148438 20.476562 26.125 21.511719 25.675781 22.371094 C 24.980469 23.726562 23.8125 24.4375 22.265625 24.4375 C 21.292969 24.4375 20.34375 24.132812 19.855469 23.910156 C 19.5625 24.15625 19.078125 24.5625 18.722656 24.808594 C 19.792969 25.300781 20.878906 25.582031 21.925781 25.582031 C 24.300781 25.582031 26.0625 24.230469 26.734375 22.925781 Z M 26.734375 22.925781 " fill-opacity="1" fill-rule="nonzero"/></g></svg>