<svg xmlns="http://www.w3.org/2000/svg" xmlns:xlink="http://www.w3.org/1999/xlink" width="198" zoomAndPan="magnify" viewBox="0 0 148.5 31.5" height="42" preserveAspectRatio="xMidYMid meet" version="1.0"><defs><g/><clipPath id="3be50b3c5a"><path d="M 29.886719 7.128906 L 48.34375 7.128906 L 48.34375 27.0625 L 29.886719 27.0625 Z M 29.886719 7.128906 " clip-rule="nonzero"/></clipPath></defs><g fill="#b7b7b7" fill-opacity="1"><g transform="translate(54.728209, 25.242257)"><g><path d="M 8.140625 -11.71875 C 7.566406 -11.1875 7.144531 -10.59375 6.875 -9.9375 C 6.65625 -9.375 6.550781 -8.789062 6.5625 -8.1875 C 6.582031 -7.675781 6.695312 -7.203125 6.90625 -6.765625 C 7.09375 -6.335938 7.316406 -6.03125 7.578125 -5.84375 L 7.515625 -5.890625 C 7.242188 -6.085938 7.03125 -6.335938 6.875 -6.640625 C 6.570312 -7.171875 6.4375 -7.816406 6.46875 -8.578125 C 6.46875 -9.085938 6.617188 -9.648438 6.921875 -10.265625 C 7.265625 -10.953125 7.671875 -11.4375 8.140625 -11.71875 Z M 12.546875 -2.921875 C 12.410156 -2.765625 12.082031 -2.597656 11.5625 -2.421875 C 10.882812 -2.191406 10.113281 -2.066406 9.25 -2.046875 C 8.71875 -2.046875 8.203125 -2.117188 7.703125 -2.265625 C 7.109375 -2.429688 6.570312 -2.671875 6.09375 -2.984375 C 6.894531 -2.421875 8.019531 -2.15625 9.46875 -2.1875 C 10.832031 -2.207031 11.859375 -2.453125 12.546875 -2.921875 Z M 12.765625 -17.234375 L 12.59375 -17.453125 C 12.53125 -17.546875 12.476562 -17.609375 12.4375 -17.640625 C 12.351562 -17.648438 12.242188 -17.648438 12.109375 -17.640625 C 10.722656 -17.421875 9.378906 -16.960938 8.078125 -16.265625 C 6.753906 -15.566406 5.640625 -14.695312 4.734375 -13.65625 C 3.742188 -12.539062 3.082031 -11.347656 2.75 -10.078125 C 2.363281 -8.679688 2.40625 -7.269531 2.875 -5.84375 C 3.269531 -4.570312 3.953125 -3.566406 4.921875 -2.828125 C 5.734375 -2.210938 6.710938 -1.8125 7.859375 -1.625 C 8.816406 -1.476562 9.789062 -1.484375 10.78125 -1.640625 C 11.632812 -1.804688 12.285156 -2.015625 12.734375 -2.265625 C 13.191406 -2.578125 13.539062 -2.894531 13.78125 -3.21875 C 13.914062 -3.425781 14.0625 -3.71875 14.21875 -4.09375 L 14.4375 -4.515625 C 14.445312 -4.578125 14.460938 -4.65625 14.484375 -4.75 C 14.492188 -4.800781 14.5 -4.875 14.5 -4.96875 L 14.546875 -5.25 L 14.71875 -5.515625 C 14.75 -5.578125 14.769531 -5.625 14.78125 -5.65625 C 14.832031 -5.695312 14.863281 -5.742188 14.875 -5.796875 L 14.875 -6 L 14.921875 -6.265625 L 15.015625 -6.59375 L 15.171875 -6.875 L 15.59375 -7.625 C 15.726562 -7.875 15.59375 -7.875 15.1875 -7.625 C 14.789062 -7.375 14.207031 -6.9375 13.4375 -6.3125 C 12.957031 -5.9375 12.347656 -5.65625 11.609375 -5.46875 C 10.835938 -5.257812 10.125 -5.234375 9.46875 -5.390625 C 8.726562 -5.566406 8.1875 -5.9375 7.84375 -6.5 C 7.40625 -7.144531 7.269531 -8.015625 7.4375 -9.109375 C 7.59375 -10.304688 8.414062 -11.429688 9.90625 -12.484375 C 10.976562 -13.222656 12.316406 -13.875 13.921875 -14.4375 L 13.890625 -14.5 C 13.878906 -14.53125 13.863281 -14.554688 13.84375 -14.578125 C 13.84375 -14.585938 13.851562 -14.601562 13.875 -14.625 L 13.796875 -14.875 C 13.796875 -14.894531 13.78125 -14.90625 13.75 -14.90625 C 13.738281 -14.90625 13.734375 -14.90625 13.734375 -14.90625 L 13.75 -15.0625 L 13.6875 -15.0625 L 13.734375 -15.21875 L 13.703125 -15.21875 C 13.691406 -15.21875 13.6875 -15.21875 13.6875 -15.21875 C 13.664062 -15.21875 13.65625 -15.21875 13.65625 -15.21875 C 13.644531 -15.226562 13.640625 -15.242188 13.640625 -15.265625 C 13.640625 -15.265625 13.644531 -15.269531 13.65625 -15.28125 L 13.703125 -15.328125 L 13.59375 -15.359375 L 13.703125 -15.453125 L 13.59375 -15.46875 L 13.703125 -15.640625 L 13.546875 -15.609375 L 13.65625 -15.734375 C 13.625 -15.734375 13.601562 -15.738281 13.59375 -15.75 C 13.5625 -15.75 13.546875 -15.757812 13.546875 -15.78125 L 13.65625 -15.890625 L 13.5 -15.84375 L 13.609375 -15.984375 L 13.5 -15.96875 C 13.476562 -15.976562 13.484375 -16 13.515625 -16.03125 C 13.546875 -16.0625 13.570312 -16.078125 13.59375 -16.078125 C 13.601562 -16.078125 13.570312 -16.078125 13.5 -16.078125 C 13.445312 -16.078125 13.421875 -16.078125 13.421875 -16.078125 C 13.398438 -16.097656 13.390625 -16.113281 13.390625 -16.125 C 13.410156 -16.144531 13.425781 -16.160156 13.4375 -16.171875 C 13.457031 -16.203125 13.476562 -16.226562 13.5 -16.25 C 13.5 -16.257812 13.5 -16.265625 13.5 -16.265625 L 13.234375 -16.53125 L 13.234375 -16.546875 C 13.265625 -16.566406 13.28125 -16.578125 13.28125 -16.578125 C 13.289062 -16.585938 13.296875 -16.601562 13.296875 -16.625 L 13.15625 -16.625 L 13.1875 -16.671875 C 13.1875 -16.679688 13.191406 -16.6875 13.203125 -16.6875 C 13.203125 -16.707031 13.203125 -16.722656 13.203125 -16.734375 L 13 -16.84375 C 12.976562 -16.875 12.976562 -16.921875 13 -16.984375 C 13.007812 -17.015625 13.023438 -17.03125 13.046875 -17.03125 L 12.859375 -16.984375 L 12.96875 -17.09375 L 12.765625 -17.078125 C 12.765625 -17.078125 12.769531 -17.097656 12.78125 -17.140625 C 12.8125 -17.191406 12.804688 -17.222656 12.765625 -17.234375 Z M 12.765625 -17.234375 "/></g></g></g><g fill="#b7b7b7" fill-opacity="1"><g transform="translate(72.62184, 25.242257)"><g><path d="M 13.015625 -15.09375 L 12.859375 -15.109375 L 12.953125 -15.171875 L 12.875 -15.234375 L 13.015625 -15.28125 L 12.875 -15.328125 L 13.015625 -15.359375 L 12.90625 -15.375 C 12.882812 -15.40625 12.890625 -15.429688 12.921875 -15.453125 C 12.921875 -15.453125 12.9375 -15.453125 12.96875 -15.453125 L 12.859375 -15.46875 L 12.90625 -15.546875 C 12.9375 -15.554688 12.953125 -15.570312 12.953125 -15.59375 C 12.960938 -15.59375 12.96875 -15.59375 12.96875 -15.59375 L 12.875 -15.734375 L 12.953125 -15.890625 L 12.828125 -15.921875 C 12.828125 -15.929688 12.828125 -15.945312 12.828125 -15.96875 C 12.847656 -15.96875 12.863281 -15.972656 12.875 -15.984375 L 12.921875 -15.984375 L 12.765625 -16.078125 C 12.765625 -16.109375 12.769531 -16.148438 12.78125 -16.203125 C 12.800781 -16.210938 12.816406 -16.21875 12.828125 -16.21875 L 12.71875 -16.25 L 12.859375 -16.296875 L 12.71875 -16.3125 C 12.71875 -16.3125 12.722656 -16.328125 12.734375 -16.359375 C 12.753906 -16.390625 12.765625 -16.414062 12.765625 -16.4375 C 12.734375 -16.476562 12.707031 -16.53125 12.6875 -16.59375 C 12.6875 -16.644531 12.679688 -16.707031 12.671875 -16.78125 C 12.648438 -16.957031 12.625 -17.078125 12.59375 -17.140625 C 12.550781 -17.265625 12.472656 -17.34375 12.359375 -17.375 C 11.304688 -17.644531 10.234375 -17.75 9.140625 -17.6875 C 8.003906 -17.632812 6.972656 -17.40625 6.046875 -17 C 5.054688 -16.59375 4.28125 -16.019531 3.71875 -15.28125 C 3.09375 -14.5 2.765625 -13.570312 2.734375 -12.5 C 2.648438 -10.851562 3.46875 -9.625 5.1875 -8.8125 C 6.238281 -8.289062 7.492188 -7.96875 8.953125 -7.84375 C 9.359375 -7.8125 9.640625 -7.738281 9.796875 -7.625 C 9.921875 -7.53125 9.988281 -7.382812 10 -7.1875 C 10.03125 -6.800781 9.796875 -6.4375 9.296875 -6.09375 C 8.734375 -5.71875 7.925781 -5.460938 6.875 -5.328125 C 6.3125 -5.242188 5.550781 -5.328125 4.59375 -5.578125 C 3.976562 -5.722656 3.3125 -5.921875 2.59375 -6.171875 C 2.40625 -6.242188 2.316406 -6.210938 2.328125 -6.078125 C 2.347656 -5.960938 2.441406 -5.796875 2.609375 -5.578125 C 2.765625 -5.390625 2.890625 -5.144531 2.984375 -4.84375 C 3.046875 -4.675781 3.125 -4.425781 3.21875 -4.09375 L 3.265625 -3.953125 C 3.410156 -3.429688 3.789062 -2.984375 4.40625 -2.609375 C 5.019531 -2.234375 5.765625 -2 6.640625 -1.90625 C 7.566406 -1.78125 8.507812 -1.820312 9.46875 -2.03125 C 10.5 -2.257812 11.460938 -2.664062 12.359375 -3.25 C 12.859375 -3.613281 13.304688 -4.09375 13.703125 -4.6875 C 14.128906 -5.3125 14.40625 -5.960938 14.53125 -6.640625 C 14.65625 -7.410156 14.578125 -8.109375 14.296875 -8.734375 C 13.953125 -9.453125 13.367188 -10.039062 12.546875 -10.5 C 12.316406 -10.644531 11.976562 -10.753906 11.53125 -10.828125 C 11.238281 -10.890625 10.796875 -10.960938 10.203125 -11.046875 C 8.972656 -11.234375 8.15625 -11.421875 7.75 -11.609375 C 7.070312 -11.910156 6.90625 -12.359375 7.25 -12.953125 C 7.550781 -13.503906 8.179688 -13.863281 9.140625 -14.03125 C 9.703125 -14.144531 10.613281 -14.207031 11.875 -14.21875 L 12.90625 -14.21875 L 12.90625 -14.265625 C 12.90625 -14.296875 12.90625 -14.320312 12.90625 -14.34375 C 12.90625 -14.375 12.910156 -14.390625 12.921875 -14.390625 L 12.875 -14.53125 L 12.875 -14.578125 C 12.863281 -14.585938 12.859375 -14.59375 12.859375 -14.59375 C 12.835938 -14.613281 12.835938 -14.625 12.859375 -14.625 L 12.90625 -14.6875 L 12.828125 -14.6875 L 12.90625 -14.765625 L 12.8125 -14.765625 C 12.8125 -14.796875 12.816406 -14.8125 12.828125 -14.8125 C 12.847656 -14.8125 12.863281 -14.8125 12.875 -14.8125 L 12.921875 -14.828125 L 12.828125 -14.90625 L 12.953125 -14.953125 L 12.859375 -15 Z M 9.0625 -10.640625 C 8.625 -10.640625 8.160156 -10.71875 7.671875 -10.875 C 6.804688 -11.175781 6.351562 -11.65625 6.3125 -12.3125 C 6.257812 -12.644531 6.328125 -12.953125 6.515625 -13.234375 C 6.722656 -13.566406 7.070312 -13.847656 7.5625 -14.078125 C 7.0625 -13.796875 6.710938 -13.453125 6.515625 -13.046875 C 6.328125 -12.679688 6.3125 -12.320312 6.46875 -11.96875 C 6.613281 -11.601562 6.898438 -11.300781 7.328125 -11.0625 C 7.796875 -10.832031 8.375 -10.691406 9.0625 -10.640625 Z M 13.984375 -6.875 C 14.003906 -6.414062 13.90625 -5.945312 13.6875 -5.46875 C 13.488281 -5.070312 13.265625 -4.722656 13.015625 -4.421875 C 12.597656 -4.003906 12.148438 -3.65625 11.671875 -3.375 C 11.410156 -3.226562 11.113281 -3.09375 10.78125 -2.96875 L 10.671875 -2.921875 L 10.921875 -3.0625 C 11.628906 -3.425781 12.203125 -3.800781 12.640625 -4.1875 C 13.378906 -4.914062 13.828125 -5.8125 13.984375 -6.875 Z M 13.984375 -6.875 "/></g></g></g><g fill="#b7b7b7" fill-opacity="1"><g transform="translate(89.80915, 25.242257)"><g><path d="M 13.015625 -15.09375 L 12.859375 -15.109375 L 12.953125 -15.171875 L 12.875 -15.234375 L 13.015625 -15.28125 L 12.875 -15.328125 L 13.015625 -15.359375 L 12.90625 -15.375 C 12.882812 -15.40625 12.890625 -15.429688 12.921875 -15.453125 C 12.921875 -15.453125 12.9375 -15.453125 12.96875 -15.453125 L 12.859375 -15.46875 L 12.90625 -15.546875 C 12.9375 -15.554688 12.953125 -15.570312 12.953125 -15.59375 C 12.960938 -15.59375 12.96875 -15.59375 12.96875 -15.59375 L 12.875 -15.734375 L 12.953125 -15.890625 L 12.828125 -15.921875 C 12.828125 -15.929688 12.828125 -15.945312 12.828125 -15.96875 C 12.847656 -15.96875 12.863281 -15.972656 12.875 -15.984375 L 12.921875 -15.984375 L 12.765625 -16.078125 C 12.765625 -16.109375 12.769531 -16.148438 12.78125 -16.203125 C 12.800781 -16.210938 12.816406 -16.21875 12.828125 -16.21875 L 12.71875 -16.25 L 12.859375 -16.296875 L 12.71875 -16.3125 C 12.71875 -16.3125 12.722656 -16.328125 12.734375 -16.359375 C 12.753906 -16.390625 12.765625 -16.414062 12.765625 -16.4375 C 12.734375 -16.476562 12.707031 -16.53125 12.6875 -16.59375 C 12.6875 -16.644531 12.679688 -16.707031 12.671875 -16.78125 C 12.648438 -16.957031 12.625 -17.078125 12.59375 -17.140625 C 12.550781 -17.265625 12.472656 -17.34375 12.359375 -17.375 C 11.304688 -17.644531 10.234375 -17.75 9.140625 -17.6875 C 8.003906 -17.632812 6.972656 -17.40625 6.046875 -17 C 5.054688 -16.59375 4.28125 -16.019531 3.71875 -15.28125 C 3.09375 -14.5 2.765625 -13.570312 2.734375 -12.5 C 2.648438 -10.851562 3.46875 -9.625 5.1875 -8.8125 C 6.238281 -8.289062 7.492188 -7.96875 8.953125 -7.84375 C 9.359375 -7.8125 9.640625 -7.738281 9.796875 -7.625 C 9.921875 -7.53125 9.988281 -7.382812 10 -7.1875 C 10.03125 -6.800781 9.796875 -6.4375 9.296875 -6.09375 C 8.734375 -5.71875 7.925781 -5.460938 6.875 -5.328125 C 6.3125 -5.242188 5.550781 -5.328125 4.59375 -5.578125 C 3.976562 -5.722656 3.3125 -5.921875 2.59375 -6.171875 C 2.40625 -6.242188 2.316406 -6.210938 2.328125 -6.078125 C 2.347656 -5.960938 2.441406 -5.796875 2.609375 -5.578125 C 2.765625 -5.390625 2.890625 -5.144531 2.984375 -4.84375 C 3.046875 -4.675781 3.125 -4.425781 3.21875 -4.09375 L 3.265625 -3.953125 C 3.410156 -3.429688 3.789062 -2.984375 4.40625 -2.609375 C 5.019531 -2.234375 5.765625 -2 6.640625 -1.90625 C 7.566406 -1.78125 8.507812 -1.820312 9.46875 -2.03125 C 10.5 -2.257812 11.460938 -2.664062 12.359375 -3.25 C 12.859375 -3.613281 13.304688 -4.09375 13.703125 -4.6875 C 14.128906 -5.3125 14.40625 -5.960938 14.53125 -6.640625 C 14.65625 -7.410156 14.578125 -8.109375 14.296875 -8.734375 C 13.953125 -9.453125 13.367188 -10.039062 12.546875 -10.5 C 12.316406 -10.644531 11.976562 -10.753906 11.53125 -10.828125 C 11.238281 -10.890625 10.796875 -10.960938 10.203125 -11.046875 C 8.972656 -11.234375 8.15625 -11.421875 7.75 -11.609375 C 7.070312 -11.910156 6.90625 -12.359375 7.25 -12.953125 C 7.550781 -13.503906 8.179688 -13.863281 9.140625 -14.03125 C 9.703125 -14.144531 10.613281 -14.207031 11.875 -14.21875 L 12.90625 -14.21875 L 12.90625 -14.265625 C 12.90625 -14.296875 12.90625 -14.320312 12.90625 -14.34375 C 12.90625 -14.375 12.910156 -14.390625 12.921875 -14.390625 L 12.875 -14.53125 L 12.875 -14.578125 C 12.863281 -14.585938 12.859375 -14.59375 12.859375 -14.59375 C 12.835938 -14.613281 12.835938 -14.625 12.859375 -14.625 L 12.90625 -14.6875 L 12.828125 -14.6875 L 12.90625 -14.765625 L 12.8125 -14.765625 C 12.8125 -14.796875 12.816406 -14.8125 12.828125 -14.8125 C 12.847656 -14.8125 12.863281 -14.8125 12.875 -14.8125 L 12.921875 -14.828125 L 12.828125 -14.90625 L 12.953125 -14.953125 L 12.859375 -15 Z M 9.0625 -10.640625 C 8.625 -10.640625 8.160156 -10.71875 7.671875 -10.875 C 6.804688 -11.175781 6.351562 -11.65625 6.3125 -12.3125 C 6.257812 -12.644531 6.328125 -12.953125 6.515625 -13.234375 C 6.722656 -13.566406 7.070312 -13.847656 7.5625 -14.078125 C 7.0625 -13.796875 6.710938 -13.453125 6.515625 -13.046875 C 6.328125 -12.679688 6.3125 -12.320312 6.46875 -11.96875 C 6.613281 -11.601562 6.898438 -11.300781 7.328125 -11.0625 C 7.796875 -10.832031 8.375 -10.691406 9.0625 -10.640625 Z M 13.984375 -6.875 C 14.003906 -6.414062 13.90625 -5.945312 13.6875 -5.46875 C 13.488281 -5.070312 13.265625 -4.722656 13.015625 -4.421875 C 12.597656 -4.003906 12.148438 -3.65625 11.671875 -3.375 C 11.410156 -3.226562 11.113281 -3.09375 10.78125 -2.96875 L 10.671875 -2.921875 L 10.921875 -3.0625 C 11.628906 -3.425781 12.203125 -3.800781 12.640625 -4.1875 C 13.378906 -4.914062 13.828125 -5.8125 13.984375 -6.875 Z M 13.984375 -6.875 "/></g></g></g><g clip-path="url(#3be50b3c5a)"><path fill="#b7b7b7" d="M 48.101562 7.265625 C 48.019531 7.175781 47.914062 7.128906 47.792969 7.128906 L 30.308594 7.128906 C 30.1875 7.128906 30.082031 7.171875 30 7.265625 C 29.917969 7.355469 29.882812 7.464844 29.894531 7.585938 L 31.558594 24.238281 C 31.574219 24.414062 31.671875 24.535156 31.839844 24.589844 L 39.332031 27.089844 C 39.375 27.101562 39.421875 27.109375 39.46875 27.109375 C 39.515625 27.109375 39.566406 27.101562 39.613281 27.082031 L 46.273438 24.585938 C 46.4375 24.523438 46.527344 24.410156 46.542969 24.238281 L 48.207031 7.585938 C 48.21875 7.464844 48.183594 7.355469 48.101562 7.265625 Z M 48.101562 7.265625 " fill-opacity="1" fill-rule="nonzero"/></g><path fill="#fafafa" d="M 39.46875 22.945312 C 39.421875 22.945312 39.378906 22.9375 39.335938 22.925781 L 35.589844 21.675781 C 35.4375 21.625 35.34375 21.523438 35.3125 21.363281 L 34.898438 19.285156 C 34.875 19.171875 34.894531 19.066406 34.957031 18.96875 C 35.019531 18.875 35.109375 18.816406 35.222656 18.792969 C 35.335938 18.769531 35.4375 18.789062 35.535156 18.851562 C 35.628906 18.917969 35.691406 19.003906 35.710938 19.117188 L 36.082031 20.960938 L 39.457031 22.089844 L 42.425781 20.976562 L 43.96875 12.125 L 34.472656 12.125 C 34.355469 12.125 34.257812 12.082031 34.179688 12.003906 C 34.097656 11.921875 34.054688 11.824219 34.054688 11.707031 C 34.054688 11.59375 34.097656 11.496094 34.179688 11.414062 C 34.257812 11.332031 34.355469 11.292969 34.472656 11.292969 L 44.460938 11.292969 C 44.589844 11.292969 44.699219 11.339844 44.78125 11.441406 C 44.863281 11.539062 44.894531 11.652344 44.871094 11.777344 L 43.207031 21.351562 C 43.179688 21.507812 43.09375 21.613281 42.945312 21.671875 L 39.613281 22.917969 C 39.566406 22.9375 39.515625 22.945312 39.46875 22.945312 Z M 39.46875 22.945312 " fill-opacity="1" fill-rule="nonzero"/><path fill="#fafafa" d="M 43.628906 16.285156 L 34.886719 16.285156 C 34.773438 16.285156 34.675781 16.246094 34.59375 16.164062 C 34.511719 16.082031 34.472656 15.984375 34.472656 15.871094 C 34.472656 15.753906 34.511719 15.65625 34.59375 15.574219 C 34.675781 15.496094 34.773438 15.453125 34.886719 15.453125 L 43.628906 15.453125 C 43.746094 15.453125 43.84375 15.496094 43.925781 15.574219 C 44.003906 15.65625 44.046875 15.753906 44.046875 15.871094 C 44.046875 15.984375 44.003906 16.082031 43.925781 16.164062 C 43.84375 16.246094 43.746094 16.285156 43.628906 16.285156 Z M 43.628906 16.285156 " fill-opacity="1" fill-rule="nonzero"/></svg>